<svg width="166" height="94" viewBox="0 0 166 94" fill="none" xmlns="http://www.w3.org/2000/svg">
<path d="M84 79C101.673 79 116 64.6731 116 47C116 29.3269 101.673 15 84 15C66.3269 15 52 29.3269 52 47C52 64.6731 66.3269 79 84 79Z" fill="#5C2D91"/>
<path opacity="0.1" d="M61.8197 24C57.4707 27.8756 54.2621 32.8647 52.5399 38.4296C50.8177 43.9944 50.6471 49.9239 52.0466 55.5785C53.4462 61.2332 56.3627 66.3985 60.4818 70.5176C64.6008 74.6367 69.7661 77.5534 75.4207 78.953C81.0754 80.3526 87.005 80.1822 92.5699 78.4599C98.1349 76.7377 103.124 73.5291 107 69.18L61.8197 24Z" fill="white"/>
<path d="M59.4004 52.25C59.2137 52.253 59.0284 52.2172 58.8563 52.1449C58.6842 52.0726 58.5289 51.9654 58.4004 51.83C58.2682 51.6995 58.1638 51.5437 58.0934 51.3718C58.0229 51.2 57.9879 51.0157 57.9904 50.83C57.989 50.6445 58.0246 50.4605 58.095 50.2889C58.1654 50.1172 58.2692 49.9612 58.4004 49.83C58.5277 49.6924 58.6825 49.583 58.8547 49.5089C59.027 49.4348 59.2129 49.3977 59.4004 49.4C59.5876 49.3996 59.7729 49.4375 59.9449 49.5114C60.1169 49.5854 60.2719 49.6938 60.4004 49.83C60.5338 49.96 60.6398 50.1156 60.7119 50.2874C60.7841 50.4592 60.8209 50.6437 60.8204 50.83C60.8221 51.0165 60.7858 51.2014 60.7135 51.3734C60.6413 51.5453 60.5347 51.7007 60.4004 51.83C60.2707 51.9639 60.1152 52.0702 59.9433 52.1424C59.7715 52.2146 59.5868 52.2512 59.4004 52.25ZM79.2704 52H76.6504L67.2804 37.46C67.047 37.1018 66.8525 36.7196 66.7004 36.32H66.6204C66.7094 37.1502 66.7428 37.9854 66.7204 38.82V52H64.6004V33.77H67.3704L76.4904 48.05L77.2304 49.27H77.2804C77.1748 48.3808 77.1314 47.4853 77.1504 46.59V33.77H79.2804V52H79.2704ZM93.7004 52H84.0004V33.77H93.2404V35.7H86.1804V41.76H92.7604V43.68H86.1804V50H93.7004V52ZM108 35.7H102.7V52H100.57V35.7H95.3304V33.77H108V35.7Z" fill="white"/>
<path d="M78.1202 64.3999C77.3983 64.7496 76.6019 64.9178 75.8002 64.8899C75.2675 64.9139 74.7358 64.8237 74.2408 64.6254C73.7458 64.427 73.299 64.1251 72.9302 63.7399C72.1955 62.9174 71.8083 61.842 71.8502 60.7399C71.8233 60.1432 71.9166 59.5472 72.1244 58.9872C72.3323 58.4271 72.6505 57.9146 73.0602 57.4799C73.4595 57.0709 73.9395 56.7494 74.4698 56.5359C75 56.3225 75.5689 56.2217 76.1402 56.2399C76.824 56.2166 77.5051 56.3358 78.1402 56.5899V57.5899C77.5287 57.2514 76.8391 57.079 76.1402 57.0899C75.6996 57.0775 75.2615 57.1605 74.8559 57.333C74.4503 57.5056 74.0868 57.7638 73.7902 58.0899C73.1666 58.8004 72.8438 59.7257 72.8902 60.6699C72.8435 61.5644 73.1445 62.4423 73.7302 63.1199C74.0112 63.422 74.3541 63.6598 74.7356 63.8169C75.1171 63.9739 75.528 64.0466 75.9402 64.0299C76.708 64.05 77.4663 63.8561 78.1302 63.4699L78.1202 64.3999ZM82.2002 64.8999C81.8022 64.9128 81.406 64.84 81.0385 64.6865C80.671 64.5329 80.3408 64.3022 80.0702 64.0099C79.5234 63.3997 79.2395 62.5983 79.2802 61.7799C79.2553 61.3512 79.3158 60.9217 79.4583 60.5166C79.6008 60.1114 79.8224 59.7387 80.1102 59.4199C80.404 59.1332 80.7535 58.9099 81.1371 58.7636C81.5206 58.6174 81.9301 58.5515 82.3402 58.5699C82.7279 58.5493 83.1154 58.6128 83.4761 58.7561C83.8369 58.8993 84.1624 59.119 84.4302 59.3999C84.9617 60.0405 85.2298 60.8591 85.1802 61.6899C85.2222 62.5331 84.9313 63.3591 84.3702 63.9899C84.0946 64.2879 83.7582 64.5233 83.3839 64.6802C83.0096 64.8372 82.606 64.9121 82.2002 64.8999ZM82.2702 59.4299C81.9952 59.4184 81.721 59.469 81.4682 59.5781C81.2154 59.6872 80.9905 59.8519 80.8102 60.0599C80.4254 60.5554 80.2336 61.1737 80.2702 61.7999C80.2353 62.4076 80.4278 63.0064 80.8102 63.4799C80.9924 63.6851 81.2179 63.8471 81.4704 63.9543C81.7229 64.0616 81.9961 64.1113 82.2702 64.0999C82.5386 64.1158 82.807 64.0699 83.0549 63.9659C83.3028 63.8619 83.5235 63.7025 83.7002 63.4999C84.0638 63.0031 84.2408 62.3942 84.2002 61.7799C84.2398 61.1627 84.063 60.5509 83.7002 60.0499C83.526 59.8431 83.3062 59.6795 83.0581 59.5719C82.81 59.4644 82.5403 59.4158 82.2702 59.4299ZM89.8702 59.7299C89.6542 59.5884 89.3978 59.5217 89.1402 59.5399C88.9388 59.5473 88.7422 59.604 88.5678 59.7051C88.3935 59.8063 88.2466 59.9487 88.1402 60.1199C87.8426 60.5912 87.6993 61.1434 87.7302 61.6999V64.7599H86.7302V58.7599H87.7302V59.9999C87.8402 59.6132 88.0588 59.2661 88.3602 58.9999C88.621 58.7736 88.9549 58.6493 89.3002 58.6499C89.4935 58.6412 89.6868 58.6684 89.8702 58.7299V59.7299ZM95.7202 61.9999H91.5002C91.4718 62.559 91.6538 63.1084 92.0102 63.5399C92.1956 63.7248 92.4179 63.8685 92.6626 63.9615C92.9073 64.0546 93.1689 64.0949 93.4302 64.0799C94.1081 64.0732 94.7637 63.837 95.2902 63.4099V64.3099C94.672 64.7175 93.9398 64.9171 93.2002 64.8799C92.8271 64.8988 92.4544 64.835 92.1087 64.6933C91.7629 64.5516 91.4528 64.3353 91.2002 64.0599C90.6796 63.4106 90.4194 62.5907 90.4702 61.7599C90.4343 60.9272 90.7168 60.1119 91.2602 59.4799C91.5076 59.1942 91.8153 58.9671 92.1612 58.8149C92.5071 58.6627 92.8825 58.5893 93.2602 58.5999C93.6013 58.5808 93.9423 58.6393 94.2575 58.7709C94.5727 58.9026 94.854 59.1039 95.0802 59.3599C95.5407 59.9671 95.7678 60.7194 95.7202 61.4799L95.7302 61.9999H95.7202ZM94.7202 61.1999C94.7405 60.7366 94.5991 60.2805 94.3202 59.9099C94.1834 59.7553 94.0134 59.6336 93.8229 59.554C93.6324 59.4743 93.4264 59.4388 93.2202 59.4499C93.005 59.4473 92.7916 59.4895 92.5936 59.5739C92.3956 59.6582 92.2174 59.7829 92.0702 59.9399C91.7411 60.2881 91.534 60.7338 91.4802 61.2099H94.7202V61.1999Z" fill="#F2F2F2"/>
</svg>
