<svg width="166" height="94" viewBox="0 0 166 94" fill="none" xmlns="http://www.w3.org/2000/svg">
<path d="M105.528 39.2H104.935V41.042H104.693V39.2H104.098V38.98H105.528V39.2ZM107.958 41.043H107.718V39.66L107.738 39.26L107.674 39.46L106.972 41.043H106.854L106.15 39.473C106.122 39.4042 106.101 39.3329 106.087 39.26H106.079C106.088 39.3941 106.092 39.5285 106.09 39.663V41.043H105.86V38.983H106.18L106.813 40.423C106.849 40.503 106.88 40.5856 106.906 40.67H106.916L107.016 40.416L107.661 38.984H107.965V41.044H107.963L107.958 41.043ZM106.08 48.697C106.08 48.585 106.05 48.504 105.986 48.452C105.916 48.396 105.794 48.365 105.626 48.365H105.383V49.033H105.676C105.946 49.033 106.081 48.921 106.081 48.697H106.08ZM106.46 50.089H106.126L105.913 49.619C105.805 49.384 105.689 49.266 105.563 49.266H105.383V50.089H105.108V48.129H105.658C105.903 48.129 106.088 48.182 106.214 48.293C106.266 48.3387 106.308 48.3956 106.336 48.4594C106.363 48.5232 106.377 48.5924 106.375 48.662C106.378 48.789 106.33 48.9119 106.243 49.004C106.144 49.1059 106.016 49.1735 105.877 49.197V49.205C105.977 49.231 106.095 49.351 106.201 49.567L106.459 50.087L106.46 50.089ZM107.06 49.129C107.063 48.9493 107.03 48.7708 106.962 48.6043C106.895 48.4379 106.794 48.287 106.666 48.161C106.404 47.893 106.082 47.774 105.703 47.774C105.303 47.774 104.987 47.904 104.729 48.174C104.602 48.3005 104.503 48.4513 104.436 48.6174C104.37 48.7834 104.338 48.9612 104.343 49.14C104.343 49.54 104.477 49.857 104.743 50.117C105.009 50.377 105.326 50.505 105.703 50.505C105.881 50.5084 106.058 50.4753 106.224 50.4077C106.389 50.3402 106.539 50.2395 106.664 50.112C106.928 49.852 107.06 49.528 107.06 49.14V49.129ZM107.245 49.121C107.245 49.553 107.095 49.916 106.798 50.208C106.501 50.5 106.133 50.648 105.695 50.648C105.257 50.648 104.888 50.504 104.597 50.22C104.306 49.936 104.161 49.57 104.161 49.132C104.155 48.9302 104.192 48.7295 104.268 48.5425C104.344 48.3556 104.459 48.1865 104.604 48.046C104.899 47.76 105.268 47.603 105.708 47.603C106.138 47.603 106.501 47.743 106.794 48.026C106.941 48.1664 107.058 48.3364 107.136 48.5249C107.213 48.7134 107.251 48.9162 107.245 49.12V49.121ZM65.4005 54.58H64.4505V49.15C64.4505 48.72 64.4785 48.2 64.5305 47.583H64.5105C64.4105 47.943 64.3405 48.205 64.2685 48.366L61.5085 54.58H61.0465L58.2705 48.4C58.1925 48.228 58.1105 47.95 58.0285 47.572H58.0085C58.0385 47.896 58.0535 48.422 58.0535 49.15V54.57H57.1385V46.483H58.4005L60.8825 52.123C61.0277 52.4365 61.1503 52.76 61.2495 53.091H61.2895L61.6765 52.099L64.2125 46.484H65.4005L65.4015 54.571L65.4005 54.58ZM68.3205 54.58H67.3975V48.805H68.3205V54.58ZM68.4805 46.735C68.4819 46.8152 68.4666 46.8948 68.4356 46.9689C68.4047 47.0429 68.3587 47.1097 68.3005 47.165C68.1805 47.283 68.0405 47.34 67.8705 47.34C67.7005 47.34 67.5625 47.284 67.4445 47.17C67.3265 47.056 67.2685 46.912 67.2685 46.735C67.2667 46.6558 67.2815 46.5771 67.3118 46.5039C67.3421 46.4308 67.3873 46.3647 67.4445 46.31C67.5625 46.195 67.7045 46.14 67.8705 46.14C68.0365 46.14 68.1845 46.196 68.3005 46.31C68.3583 46.3644 68.4041 46.4304 68.4349 46.5036C68.4658 46.5768 68.4809 46.6556 68.4795 46.735H68.4805ZM74.0855 54.312C73.6425 54.584 73.1135 54.719 72.5025 54.719C71.6745 54.719 71.0075 54.444 70.4975 53.895C70.0025 53.362 69.7535 52.675 69.7535 51.831C69.7535 50.885 70.0235 50.119 70.5705 49.537C71.1175 48.955 71.8435 48.663 72.7705 48.663C73.233 48.6545 73.691 48.7548 74.1075 48.956V49.906C73.7083 49.6132 73.2266 49.4546 72.7315 49.453C72.4613 49.4441 72.1924 49.4946 71.9438 49.6008C71.6952 49.7071 71.4729 49.8665 71.2925 50.068C70.9065 50.488 70.7105 51.048 70.7105 51.748C70.7105 52.42 70.8905 52.951 71.2445 53.344C71.5985 53.737 72.0745 53.93 72.6745 53.93C73.1795 53.93 73.6525 53.764 74.0945 53.434V54.312H74.0855ZM78.4985 49.742C78.3355 49.617 78.1015 49.556 77.7925 49.556C77.4165 49.556 77.0925 49.724 76.8455 50.063C76.5455 50.443 76.4105 50.966 76.4105 51.636V54.58H75.4855V48.805H76.4105V50.005H76.4325C76.5685 49.583 76.7785 49.259 77.0585 49.029C77.3205 48.829 77.6185 48.713 77.9435 48.713C78.1895 48.713 78.3735 48.74 78.4975 48.793V49.753L78.4985 49.742ZM83.6525 51.702C83.6525 50.962 83.4855 50.398 83.1525 50.002C82.8285 49.63 82.3755 49.444 81.7925 49.444C81.2175 49.444 80.7565 49.632 80.4125 50.009C80.0475 50.411 79.8655 50.979 79.8655 51.716C79.8655 52.416 80.0385 52.949 80.3885 53.336C80.7385 53.723 81.2055 53.92 81.7925 53.92C82.4005 53.92 82.8665 53.722 83.1845 53.328C83.4975 52.943 83.6545 52.398 83.6545 51.692L83.6525 51.702ZM84.6025 51.659C84.6025 52.579 84.3425 53.319 83.8245 53.872C83.3065 54.425 82.6045 54.706 81.7245 54.706C80.8575 54.706 80.1675 54.428 79.6605 53.872C79.1645 53.336 78.9155 52.628 78.9155 51.747C78.9155 50.742 79.1955 49.967 79.7625 49.417C80.2845 48.917 80.9825 48.65 81.8595 48.65C82.7215 48.65 83.3945 48.918 83.8795 49.45C84.3645 49.982 84.6035 50.72 84.6035 51.657L84.6025 51.659ZM89.1875 53.023C89.1923 53.2463 89.147 53.4679 89.0552 53.6715C88.9633 53.8752 88.8271 54.0557 88.6565 54.2C88.2705 54.538 87.7395 54.707 87.0715 54.707C86.5245 54.707 86.0455 54.593 85.6385 54.359V53.365C86.0915 53.733 86.5915 53.918 87.1405 53.918C87.8725 53.918 88.2405 53.648 88.2405 53.111C88.2438 53.0059 88.2237 52.9015 88.1816 52.8052C88.1396 52.7088 88.0767 52.6231 87.9975 52.554C87.8345 52.41 87.5195 52.23 87.0495 52.024C86.5655 51.812 86.2215 51.594 86.0175 51.369C85.7735 51.102 85.6505 50.754 85.6505 50.326C85.6476 50.0963 85.6975 49.869 85.7963 49.6616C85.8952 49.4543 86.0403 49.2724 86.2205 49.13C86.5985 48.812 87.0885 48.652 87.6875 48.652C88.1141 48.6497 88.5358 48.7419 88.9225 48.922V49.852C88.5414 49.5769 88.0815 49.4324 87.6115 49.44C87.3055 49.44 87.0595 49.516 86.8765 49.665C86.7881 49.7337 86.717 49.8221 86.6687 49.9231C86.6205 50.0241 86.5964 50.135 86.5985 50.247C86.5985 50.503 86.6765 50.702 86.8305 50.844C86.9675 50.976 87.2585 51.136 87.6975 51.324C88.1905 51.531 88.5475 51.744 88.7645 51.964C89.0465 52.241 89.1885 52.594 89.1885 53.024L89.1875 53.023ZM94.8385 51.692C94.8385 50.952 94.6715 50.388 94.3365 49.992C94.0135 49.62 93.5595 49.434 92.9765 49.434C92.4015 49.434 91.9405 49.622 91.5935 49.999C91.2295 50.401 91.0485 50.969 91.0485 51.706C91.0485 52.406 91.2215 52.939 91.5685 53.326C91.9155 53.713 92.3885 53.91 92.9765 53.91C93.5765 53.91 94.0495 53.712 94.3685 53.318C94.6815 52.933 94.8385 52.388 94.8385 51.682V51.692ZM95.7885 51.649C95.7885 52.569 95.5265 53.309 95.0085 53.862C94.4905 54.415 93.7905 54.696 92.9105 54.696C92.0425 54.696 91.3525 54.418 90.8455 53.862C90.3495 53.326 90.1005 52.618 90.1005 51.737C90.1005 50.732 90.3845 49.957 90.9465 49.407C91.4685 48.907 92.1685 48.64 93.0465 48.64C93.9085 48.64 94.5805 48.908 95.0645 49.44C95.5485 49.972 95.7915 50.71 95.7915 51.647L95.7885 51.649ZM99.8645 46.821C99.6825 46.721 99.4805 46.669 99.2505 46.669C98.6025 46.669 98.2805 47.077 98.2805 47.893V48.793H99.6345V49.576H98.2705V54.568H97.3445V49.576H96.3615V48.793H97.3445V47.857C97.3445 47.221 97.5395 46.723 97.9445 46.363C98.2845 46.051 98.6995 45.896 99.1925 45.896C99.4785 45.896 99.7005 45.93 99.8625 45.996V46.83L99.8645 46.821ZM103.515 54.499C103.297 54.624 103.015 54.686 102.645 54.686C101.637 54.686 101.133 54.118 101.133 52.982V49.566H100.133V48.782H101.133V47.382L102.06 47.082V48.8H103.515V49.584H102.06V52.844C102.06 53.231 102.123 53.508 102.256 53.669C102.389 53.83 102.608 53.916 102.916 53.916C103.13 53.9211 103.34 53.8557 103.514 53.73V54.518L103.515 54.499ZM53.5005 77.118C53.5005 77.57 53.3385 77.962 53.0125 78.293C52.6865 78.624 52.2925 78.788 51.8285 78.788C51.6122 78.7912 51.3976 78.7487 51.1988 78.6634C51 78.5782 50.8213 78.4519 50.6745 78.293C50.5217 78.1383 50.4012 77.9547 50.32 77.753C50.2388 77.5513 50.1985 77.3354 50.2015 77.118C50.1969 76.8991 50.2364 76.6816 50.3177 76.4784C50.3989 76.2751 50.5203 76.0903 50.6745 75.935C50.9905 75.609 51.3745 75.447 51.8285 75.447C52.0493 75.4432 52.2685 75.4851 52.4722 75.5701C52.676 75.6551 52.8599 75.7814 53.0125 75.941C53.3385 76.271 53.5005 76.664 53.5005 77.118ZM74.2075 78.448H71.2005L60.2525 61.548C59.9965 61.141 59.7765 60.7 59.5885 60.218H59.4885C59.5665 60.67 59.6065 61.642 59.6065 63.13V78.45H57.1305V57.245H60.3575L70.9775 73.878L71.8355 75.295H71.8955C71.7975 74.695 71.7455 73.645 71.7455 72.178V57.245H74.2155V78.447L74.2075 78.448ZM90.1475 78.448H78.9145V57.245H89.6705V59.492H81.4005V66.545H89.0645V68.793H81.4005V76.2H90.1605V78.448H90.1475ZM107.201 59.492H101.101V78.448H98.6155V59.492H92.4935V57.244H107.201V59.492Z" fill="black"/>
<path d="M73.374 20.624C75.774 27.954 76.681 41.024 83.694 41.024C84.228 41.024 84.768 40.972 85.309 40.869C78.933 39.383 78.177 26.447 74.287 19.749C73.982 20.026 73.679 20.315 73.373 20.616" fill="url(#paint0_linear)"/>
<path d="M74.2891 19.7571C78.1791 26.4571 78.9351 39.3921 85.3111 40.8771C85.8228 40.7802 86.3262 40.6442 86.8171 40.4701C81.0941 37.6701 79.5111 25.1071 75.0941 19.0601C74.8213 19.2875 74.5529 19.5202 74.2891 19.7581" fill="url(#paint1_linear)"/>
<path d="M79.8948 15.7729C79.3525 15.774 78.8115 15.8259 78.2788 15.9279C76.8588 16.1949 75.4188 16.806 73.9648 17.731C74.3618 18.123 74.7398 18.571 75.0948 19.061C76.5728 17.835 78.0419 16.929 79.4949 16.384C80.0449 16.181 80.5908 16.0279 81.1398 15.9269C80.7299 15.8239 80.3086 15.7725 79.8858 15.7739" fill="#14559A"/>
<path d="M91.2844 37.888L93.0444 36.346C90.6074 29.049 89.7344 15.783 82.6714 15.783C82.1664 15.783 81.6564 15.83 81.1484 15.923C87.5824 17.523 88.4064 31.523 91.2844 37.886" fill="url(#paint2_linear)"/>
<path d="M81.1485 15.9259C80.7525 15.8259 80.3355 15.7729 79.8945 15.7729L82.6725 15.7829C82.1616 15.7831 81.6517 15.8307 81.1495 15.9249" fill="#3092C4"/>
<path d="M91.1604 39.4379C90.8792 39.1663 90.6134 38.8792 90.3644 38.5779C89.1764 39.4179 87.9924 40.0559 86.8164 40.4719C87.2344 40.6759 87.6734 40.8279 88.1394 40.9219C88.5104 40.9968 88.888 41.034 89.2664 41.0329C90.5864 41.0329 91.6294 40.8769 92.5184 40.4509C92.0284 40.1869 91.5804 39.8439 91.1614 39.4379" fill="#1969BC"/>
<path d="M79.5039 16.384C85.2669 19.397 85.7679 33.039 90.3659 38.578C90.6786 38.3571 90.9847 38.127 91.2839 37.8881C88.4059 31.515 87.5839 17.523 81.1499 15.925C80.5999 16.028 80.0529 16.18 79.5039 16.385" fill="url(#paint3_linear)"/>
<path d="M75.0938 19.06C79.5118 25.108 81.0937 37.67 86.8167 40.472C87.9927 40.057 89.1767 39.419 90.3647 38.578C85.7667 33.038 85.2647 19.396 79.5027 16.384C78.0397 16.927 76.5707 17.834 75.1027 19.06" fill="url(#paint4_linear)"/>
<path d="M70.548 20.447C69.855 22.012 69.148 24.069 68.293 26.755C69.993 24.36 71.689 22.295 73.375 20.625C73.1624 19.9586 72.912 19.3049 72.625 18.667C71.9014 19.2228 71.2084 19.8174 70.549 20.448" fill="url(#paint5_linear)"/>
<path d="M73.238 18.2149L72.625 18.6649C72.9116 19.3028 73.1617 19.9565 73.374 20.6229L74.288 19.7559C73.962 19.1959 73.615 18.6779 73.238 18.2129" fill="#2B74B1"/>
<path d="M73.9643 17.73L73.2383 18.214C73.6153 18.678 73.9623 19.196 74.2883 19.758L75.0933 19.058C74.7383 18.568 74.3603 18.121 73.9633 17.728" fill="#125A9E"/>
<path d="M113.27 15.215C110 27.778 103.203 37.868 97.4959 40.412L97.1759 40.544C97.1619 40.552 97.1489 40.554 97.1379 40.559C97.1079 40.571 97.0799 40.579 97.0499 40.592C97.0359 40.6 97.0229 40.602 97.0099 40.608C96.9619 40.625 96.9149 40.64 96.8679 40.658C96.8479 40.666 96.8279 40.672 96.8079 40.678C96.7879 40.684 96.7619 40.694 96.7379 40.701C96.7139 40.708 96.6939 40.716 96.6679 40.725C96.6419 40.734 96.6259 40.737 96.6079 40.745C96.5659 40.757 96.5279 40.767 96.4859 40.782C96.4689 40.782 96.4529 40.792 96.4359 40.796C96.4099 40.804 96.3809 40.811 96.3539 40.818C96.3339 40.826 96.3189 40.828 96.2979 40.833C96.2679 40.841 96.2379 40.849 96.1979 40.856L96.0879 40.88C96.3459 40.975 96.6149 41.023 96.9049 41.023C102.317 41.023 107.773 31.33 116.801 15.21H113.256L113.257 15.213L113.27 15.215Z" fill="url(#paint6_linear)"/>
<path d="M67.1176 16.2831C67.1316 16.2751 67.1376 16.2751 67.1406 16.2661C67.1776 16.2561 67.2056 16.2441 67.2356 16.2331C67.2606 16.2251 67.2676 16.2161 67.2756 16.2151L67.3696 16.1821C67.4466 16.1621 67.5126 16.1341 67.5826 16.1091C67.5926 16.1091 67.6026 16.1011 67.6126 16.1011L67.7026 16.0741C67.7166 16.0661 67.7306 16.0661 67.7426 16.0611L67.8426 16.0341C67.8556 16.0341 67.8676 16.0261 67.8766 16.0241L68.1746 15.9471C68.1886 15.9471 68.2006 15.9391 68.2146 15.9371C68.2431 15.9292 68.2722 15.9235 68.3016 15.9201C68.3146 15.9121 68.3296 15.9121 68.3446 15.9071C68.3746 15.8991 68.4016 15.8971 68.4326 15.8911H68.4526L68.6326 15.8581H68.6686C68.6986 15.8501 68.7236 15.8481 68.7516 15.8431C68.7676 15.8431 68.7836 15.8351 68.7986 15.8351C68.8256 15.8351 68.8526 15.8271 68.8786 15.8231C68.8926 15.8231 68.9066 15.8231 68.9226 15.8151L69.1176 15.7981L68.5416 15.7681C62.4476 15.7681 54.0516 27.0701 50.2676 41.7081H50.9976C52.2076 39.5501 53.2956 37.5081 54.2896 35.5931C56.9396 25.2261 62.3346 18.1551 67.1276 16.2831" fill="url(#paint7_linear)"/>
<path d="M70.5479 20.4469C71.2073 19.8163 71.9003 19.2218 72.6239 18.6659L72.1289 17.7109C71.5709 18.3869 71.0619 19.2789 70.5469 20.4479" fill="#0D82CA"/>
<path d="M71.0487 16.3701C71.4467 16.7041 71.8037 17.1631 72.1287 17.7131L72.4437 17.3611C72.0062 16.947 71.5098 16.5999 70.9707 16.3311C70.9918 16.3425 71.0135 16.3529 71.0357 16.3621" fill="#0D82CA"/>
<path d="M54.2812 35.5939C59.8383 24.8909 62.4812 18.1169 67.1192 16.2839C62.3272 18.1579 56.9293 25.2289 54.2812 35.5939Z" fill="url(#paint8_linear)"/>
<path d="M72.4439 17.3599L72.1289 17.7119C72.3029 18.0039 72.4659 18.3119 72.6249 18.6669L73.2379 18.2169C72.9936 17.9133 72.7282 17.6273 72.4439 17.3609" fill="#127BCA"/>
<path d="M56.8024 41.66C56.7684 41.668 56.7324 41.668 56.7024 41.672C56.6544 41.672 56.6244 41.68 56.5974 41.68L56.3794 41.694H56.3594C61.9844 41.537 64.5554 38.722 65.8294 34.64L68.2934 26.74C65.9374 30.054 63.5714 34.005 61.1914 38.43C60.0444 40.563 58.2994 41.454 56.8034 41.645" fill="url(#paint9_linear)"/>
<path d="M56.8018 41.6581C58.2978 41.4681 60.0418 40.5781 61.1898 38.4431C63.5698 34.0181 65.9368 30.0661 68.2898 26.7531C69.1458 24.0671 69.8528 22.0111 70.5458 20.4451C65.8558 24.9081 61.1458 32.3301 56.8008 41.6551" fill="url(#paint10_linear)"/>
<path d="M54.2803 35.594L50.9883 41.709H53.1083C53.3883 39.566 53.7883 37.523 54.2803 35.595" fill="#05A1E6"/>
<path d="M68.9136 15.8199C68.8966 15.8199 68.8836 15.8279 68.8686 15.8279C68.8426 15.8359 68.8166 15.8359 68.7886 15.8379C68.7726 15.8379 68.7586 15.8379 68.7416 15.8459C68.7116 15.8539 68.6856 15.8559 68.6586 15.8609C68.6456 15.8609 68.6326 15.8609 68.6226 15.8689L68.4426 15.9009H68.4226C68.3936 15.9084 68.3642 15.9141 68.3346 15.9179C68.3196 15.9259 68.3046 15.9259 68.2906 15.9299C68.2606 15.9379 68.2326 15.9419 68.2046 15.9469C68.1896 15.9549 68.1776 15.9549 68.1646 15.9569L67.8666 16.0339C67.8566 16.0339 67.8466 16.0419 67.8326 16.0439L67.7326 16.0709C67.7196 16.0789 67.7046 16.0789 67.6926 16.0829L67.6026 16.1099C67.5906 16.1099 67.5826 16.1179 67.5706 16.1179L67.3636 16.1909L67.2696 16.2239C67.2566 16.2319 67.2446 16.2339 67.2296 16.2399C67.1996 16.2499 67.1696 16.2599 67.1416 16.2729C67.1316 16.2809 67.1216 16.2829 67.1116 16.2869C62.4646 18.1209 59.8316 24.8949 54.2736 35.5969C53.7601 37.6094 53.3687 39.6511 53.1016 41.7109H53.3996L55.7896 41.7029H56.3716C56.4376 41.6949 56.5066 41.6949 56.5756 41.6889H56.5886C56.6186 41.6889 56.6466 41.6809 56.6746 41.6809H56.6946C56.7246 41.6809 56.7606 41.6729 56.7946 41.6689C61.1386 32.3419 65.8486 24.9209 70.5396 20.4589C71.0556 19.2909 71.5636 18.3989 72.1196 17.7239C71.7946 17.1739 71.4376 16.7239 71.0396 16.3799L71.0276 16.3719C71.0046 16.3619 70.9836 16.3519 70.9616 16.3399C70.9396 16.3279 70.9196 16.3199 70.8966 16.3069C70.8747 16.2976 70.8534 16.2873 70.8326 16.2759C70.8046 16.2679 70.7826 16.2559 70.7576 16.2439C70.7326 16.2319 70.7176 16.2269 70.6976 16.2179C70.6556 16.2019 70.6146 16.1849 70.5746 16.1679C70.5566 16.1599 70.5396 16.1549 70.5226 16.1479C70.4916 16.1364 70.4609 16.1241 70.4306 16.1109C70.4156 16.1029 70.3986 16.1009 70.3806 16.0949L70.2536 16.0509H70.2436C70.1936 16.0349 70.1466 16.0229 70.0956 16.0089C70.0836 16.0009 70.0756 16.0009 70.0626 15.9989L69.9386 15.9639C69.9286 15.9639 69.9186 15.9559 69.9086 15.9559C69.8086 15.9289 69.7046 15.9079 69.5986 15.8879C69.5886 15.8879 69.5786 15.8799 69.5666 15.8799C69.5222 15.8712 69.4775 15.8642 69.4326 15.8589C69.4226 15.8509 69.4156 15.8509 69.4056 15.8509C69.3516 15.8429 69.2996 15.8359 69.2476 15.8309H69.2196C69.1766 15.8229 69.1376 15.8209 69.0976 15.8169C69.0306 15.8249 68.9656 15.8289 68.9026 15.8349" fill="url(#paint11_linear)"/>
<path d="M100.54 22.17L97.8496 30.74C100.784 26.705 103.674 21.628 106.426 15.77C103.226 16.778 101.503 19.084 100.539 22.168" fill="url(#paint12_linear)"/>
<path d="M97.945 40.1978L97.498 40.4118C103.205 37.8678 110.012 27.7778 113.272 15.2148H112.612C105.124 28.5848 102.716 37.5348 97.946 40.1978" fill="url(#paint13_linear)"/>
<path d="M94.2168 39.075C95.4588 37.56 96.4698 34.975 97.8508 30.741C96.2578 32.928 94.6548 34.807 93.0508 36.341C93.3928 37.403 93.7768 38.329 94.2148 39.075" fill="#079AE1"/>
<path d="M94.2176 39.075C93.7946 39.591 93.3476 39.983 92.8496 40.275L92.5176 40.4529C93.0575 40.7454 93.6485 40.9318 94.2586 41.0019L94.5436 41.027H94.5606C94.6046 41.027 94.6606 41.027 94.6976 41.035H95.1616C95.1786 41.035 95.1966 41.035 95.2136 41.027C95.2466 41.027 95.2836 41.027 95.3166 41.019H95.3666C95.4016 41.019 95.4406 41.011 95.4766 41.007C95.4966 41.007 95.5086 40.999 95.5196 40.999C95.5596 40.991 95.5996 40.9869 95.6396 40.9809H95.6746L95.8086 40.959H95.8166L96.0966 40.903C95.3606 40.633 94.7436 39.998 94.2126 39.103" fill="#1969BC"/>
<path d="M83.6953 41.0339C84.2293 41.0339 84.7693 40.9819 85.3103 40.8779C85.8221 40.782 86.3256 40.6462 86.8163 40.4719C87.2363 40.6759 87.6733 40.8279 88.1383 40.9219C88.5096 40.9968 88.8875 41.034 89.2663 41.0329H83.6963L83.6953 41.0339Z" fill="#1E5CB3"/>
<path d="M89.2667 41.0339C90.5867 41.0339 91.6297 40.8779 92.5167 40.4519C93.0567 40.7444 93.6477 40.9307 94.2577 41.0009L94.5427 41.0259H94.5597C94.6037 41.0259 94.6597 41.0259 94.6967 41.0339H94.8567H89.2617H89.2657H89.2667Z" fill="#1E5CB3"/>
<path d="M94.8606 41.034H95.1656C95.1836 41.034 95.2006 41.034 95.2176 41.026C95.2506 41.026 95.2876 41.026 95.3216 41.018H95.3716C95.4066 41.018 95.4456 41.01 95.4716 41.006C95.4916 41.006 95.5036 40.998 95.5146 40.998C95.5546 40.99 95.5946 40.986 95.6346 40.98C95.6476 40.98 95.6576 40.98 95.6716 40.972L95.8056 40.952H95.8136L96.0936 40.896C96.3516 40.991 96.6206 41.039 96.9106 41.039L94.8536 41.047L94.8516 41.037L94.8606 41.034Z" fill="#1D60B5"/>
<path d="M93.0452 36.354L91.2852 37.887L90.3652 38.587C90.6143 38.8883 90.88 39.1755 91.1612 39.447C91.5812 39.853 92.0292 40.197 92.5182 40.46L92.8482 40.282C93.3482 39.992 93.7942 39.598 94.2182 39.082C93.7802 38.335 93.3962 37.41 93.0462 36.362" fill="#175FAB"/>
<path d="M110.518 15.2148H107.194L106.667 15.2408L106.422 15.7648C103.67 21.6228 100.78 26.6988 97.8469 30.7348C96.4669 34.9788 95.4549 37.5548 94.2129 39.0688C94.7429 39.9738 95.3609 40.6108 96.0959 40.8788C96.1159 40.8708 96.1359 40.8708 96.1539 40.8658H96.1659C96.1789 40.8658 96.1929 40.8578 96.2059 40.8578C96.2359 40.8498 96.2679 40.8438 96.2979 40.8348C96.3179 40.8268 96.3329 40.8248 96.3529 40.8198C96.3809 40.8118 96.4099 40.8048 96.4349 40.7998C96.4519 40.7918 96.4689 40.7898 96.4849 40.7848C96.5279 40.7708 96.5649 40.7608 96.6069 40.7478C96.6269 40.7398 96.6469 40.7328 96.6669 40.7278C96.6869 40.7228 96.7139 40.7128 96.7369 40.7028C96.7599 40.6928 96.7869 40.6898 96.8069 40.6808C96.8269 40.6718 96.8469 40.6668 96.8649 40.6608C96.9129 40.6438 96.9599 40.6288 97.0079 40.6108C97.0209 40.6108 97.0339 40.5988 97.0479 40.5958C97.0779 40.5838 97.1079 40.5758 97.1359 40.5618C97.1459 40.5538 97.1599 40.5518 97.1729 40.5478L97.4809 40.4158H97.4909C97.6415 40.3487 97.7903 40.2774 97.9369 40.2018C102.707 37.5378 105.117 28.5878 112.604 15.2188H110.514L110.516 15.2178L110.518 15.2148Z" fill="url(#paint14_linear)"/>
<path d="M69.1094 15.8021C69.1214 15.8021 69.1324 15.8021 69.1434 15.8101C69.1734 15.8101 69.2014 15.8101 69.2304 15.8201H69.2604L69.4184 15.8401C69.4284 15.8401 69.4364 15.8401 69.4454 15.8481L69.5794 15.8701C69.5894 15.8701 69.6024 15.8781 69.6124 15.8781L69.9204 15.9461C69.9304 15.9461 69.9404 15.9541 69.9484 15.9541L70.0724 15.9891C70.0854 15.9891 70.0944 15.9971 70.1064 15.9991L70.2534 16.0411L70.3934 16.0931C70.4104 16.1011 70.4264 16.1051 70.4434 16.1091L70.5354 16.1471C70.5524 16.1471 70.5694 16.1591 70.5874 16.1651L70.7094 16.2151L70.7694 16.2411C70.7932 16.2536 70.8179 16.2643 70.8434 16.2731L70.9084 16.3031L70.9734 16.3361C71.5122 16.6053 72.0086 16.9523 72.4464 17.3661C72.6085 17.1954 72.7829 17.037 72.9684 16.8921C71.9792 16.1717 70.786 15.7856 69.5624 15.7901L69.1104 15.8101" fill="#7DCBEC"/>
<path d="M72.4434 17.36C72.7204 17.618 72.9864 17.906 73.2374 18.216L73.9634 17.732C73.6464 17.415 73.3134 17.132 72.9634 16.886C72.7834 17.026 72.6094 17.186 72.4434 17.36Z" fill="#5EC5ED"/>
<path d="M69.1092 15.8028L69.5612 15.7848C70.8552 15.7848 71.9772 16.1848 72.9672 16.8848C74.0112 16.0608 75.2732 15.7728 77.0282 15.7728H68.5332C68.7292 15.7728 68.9202 15.7848 69.1092 15.8028Z" fill="url(#paint15_linear)"/>
<path d="M77.0268 15.7727C75.2728 15.7727 74.0098 16.0607 72.9648 16.8847C73.3118 17.1297 73.6448 17.4147 73.9628 17.7307C75.4178 16.8067 76.8578 16.1947 78.2788 15.9267C78.8113 15.8255 79.3519 15.774 79.8938 15.7727H77.0268Z" fill="url(#paint16_linear)"/>
<path d="M97.8508 30.743L100.551 22.17C101.516 19.085 103.226 16.778 106.436 15.772L106.683 15.248C101.45 15.561 99.0028 18.222 97.7828 22.162C95.6008 29.04 94.3078 33.5 93.0508 36.34C94.6538 34.808 96.2578 32.927 97.8508 30.743Z" fill="url(#paint17_linear)"/>
<defs>
<linearGradient id="paint0_linear" x1="79.3407" y1="15.597" x2="79.3407" y2="47.3268" gradientUnits="userSpaceOnUse">
<stop stop-color="#0994DC"/>
<stop offset="0.350006" stop-color="#66CEF5"/>
<stop offset="0.846161" stop-color="#127BCA"/>
<stop offset="1" stop-color="#127BCA"/>
</linearGradient>
<linearGradient id="paint1_linear" x1="80.5532" y1="14.8022" x2="80.5532" y2="47.3402" gradientUnits="userSpaceOnUse">
<stop stop-color="#0E76BC"/>
<stop offset="0.360001" stop-color="#36AEE8"/>
<stop offset="0.846161" stop-color="#00ADEF"/>
<stop offset="1" stop-color="#00ADEF"/>
</linearGradient>
<linearGradient id="paint2_linear" x1="87.0963" y1="40.3022" x2="87.0963" y2="14.4094" gradientUnits="userSpaceOnUse">
<stop stop-color="#1C63B7"/>
<stop offset="0.5" stop-color="#33BDF2"/>
<stop offset="1" stop-color="#33BDF2" stop-opacity="0.42"/>
</linearGradient>
<linearGradient id="paint3_linear" x1="85.394" y1="11.5043" x2="85.394" y2="45.2895" gradientUnits="userSpaceOnUse">
<stop stop-color="#166AB8"/>
<stop offset="0.399994" stop-color="#36AEE8"/>
<stop offset="0.846161" stop-color="#0798DD"/>
<stop offset="1" stop-color="#0798DD"/>
</linearGradient>
<linearGradient id="paint4_linear" x1="82.729" y1="11.6818" x2="82.729" y2="47.6086" gradientUnits="userSpaceOnUse">
<stop stop-color="#124379"/>
<stop offset="0.389999" stop-color="#1487CB"/>
<stop offset="0.780228" stop-color="#165197"/>
<stop offset="1" stop-color="#165197"/>
</linearGradient>
<linearGradient id="paint5_linear" x1="68.293" y1="22.711" x2="73.375" y2="22.711" gradientUnits="userSpaceOnUse">
<stop stop-color="#33BDF2" stop-opacity="0.698"/>
<stop offset="1" stop-color="#1DACD8"/>
</linearGradient>
<linearGradient id="paint6_linear" x1="106.446" y1="39.6514" x2="106.446" y2="14.4292" gradientUnits="userSpaceOnUse">
<stop stop-color="#136AB4"/>
<stop offset="0.6" stop-color="#59CAF5" stop-opacity="0.55"/>
<stop offset="1" stop-color="#59CAF5" stop-opacity="0.235"/>
</linearGradient>
<linearGradient id="paint7_linear" x1="50.2674" y1="28.738" x2="69.1174" y2="28.738" gradientUnits="userSpaceOnUse">
<stop stop-color="#05A1E6" stop-opacity="0.247"/>
<stop offset="1" stop-color="#05A1E6"/>
</linearGradient>
<linearGradient id="paint8_linear" x1="60.7" y1="40.2889" x2="60.7" y2="14.4647" gradientUnits="userSpaceOnUse">
<stop stop-color="#318ED5"/>
<stop offset="1" stop-color="#38A7E4"/>
</linearGradient>
<linearGradient id="paint9_linear" x1="62.3262" y1="40.378" x2="62.3262" y2="15.2575" gradientUnits="userSpaceOnUse">
<stop stop-color="#05A1E6"/>
<stop offset="1" stop-color="#05A1E6" stop-opacity="0.55"/>
</linearGradient>
<linearGradient id="paint10_linear" x1="63.6733" y1="41.6603" x2="63.6733" y2="20.4472" gradientUnits="userSpaceOnUse">
<stop stop-color="#1959A6"/>
<stop offset="0.5" stop-color="#05A1E6"/>
<stop offset="0.917587" stop-color="#7EC5EA"/>
<stop offset="1" stop-color="#7EC5EA"/>
</linearGradient>
<linearGradient id="paint11_linear" x1="63.6163" y1="40.3043" x2="59.6158" y2="17.6268" gradientUnits="userSpaceOnUse">
<stop stop-color="#165096"/>
<stop offset="1" stop-color="#0D82CA"/>
</linearGradient>
<linearGradient id="paint12_linear" x1="102.137" y1="27.2966" x2="102.137" y2="15.2762" gradientUnits="userSpaceOnUse">
<stop stop-color="#05A1E6"/>
<stop offset="0.873627" stop-color="#0495D6"/>
<stop offset="1" stop-color="#0495D6"/>
</linearGradient>
<linearGradient id="paint13_linear" x1="106.329" y1="14.1663" x2="101.529" y2="41.3756" gradientUnits="userSpaceOnUse">
<stop stop-color="#38A7E4" stop-opacity="0.33"/>
<stop offset="0.961533" stop-color="#0E88D3"/>
<stop offset="1" stop-color="#0E88D3"/>
</linearGradient>
<linearGradient id="paint14_linear" x1="103.411" y1="15.1389" x2="103.411" y2="41.3618" gradientUnits="userSpaceOnUse">
<stop stop-color="#168CD4"/>
<stop offset="0.5" stop-color="#1C87CC"/>
<stop offset="1" stop-color="#154B8D"/>
</linearGradient>
<linearGradient id="paint15_linear" x1="69.9496" y1="16.2992" x2="75.1224" y2="18.4426" gradientUnits="userSpaceOnUse">
<stop stop-color="#97D6EE"/>
<stop offset="0.703293" stop-color="#55C1EA"/>
<stop offset="1" stop-color="#55C1EA"/>
</linearGradient>
<linearGradient id="paint16_linear" x1="73.4423" y1="16.82" x2="77.4677" y2="14.9961" gradientUnits="userSpaceOnUse">
<stop stop-color="#7ACCEC"/>
<stop offset="1" stop-color="#3FB7ED"/>
</linearGradient>
<linearGradient id="paint17_linear" x1="99.8663" y1="16.5901" x2="99.8663" y2="42.2377" gradientUnits="userSpaceOnUse">
<stop stop-color="#1DA7E7"/>
<stop offset="1" stop-color="#37ABE7" stop-opacity="0"/>
</linearGradient>
</defs>
</svg>
