<svg width="140" height="60" viewBox="0 0 140 60" fill="none" xmlns="http://www.w3.org/2000/svg">
<path d="M35.5255 5.0119C35.4526 5.01948 35.1763 5.03842 34.9191 5.05736C25.8157 5.74301 17.7486 11.3343 13.8992 19.6227C12.7363 22.1266 12.0455 24.7102 11.7308 27.7823C11.6425 28.6081 11.6464 31.3621 11.7308 32.2182C11.9956 34.8547 12.5099 36.9988 13.4271 39.2793C16.1328 46.0146 21.8282 51.3672 28.7594 53.6969C30.732 54.356 32.6049 54.7424 34.9191 54.9545C35.6598 55.0227 38.4692 55.0114 39.206 54.9394C41.8964 54.6704 44.0648 54.159 46.3483 53.265C52.7614 50.7459 57.9502 45.6168 60.5023 39.2793C61.4042 37.0405 61.9377 34.8245 62.1948 32.2561C62.2639 31.5326 62.2946 29.2711 62.2447 28.4642C61.9914 24.5548 60.8784 20.8841 58.9211 17.5203L58.5949 16.9559L59.9075 15.6527C61.2929 14.2739 61.339 14.2208 61.4311 13.8269C61.6115 13.0617 61.1317 12.27 60.3565 12.0616C60.2759 12.0427 59.1706 11.9366 57.9041 11.8305C56.6338 11.7245 55.586 11.626 55.5707 11.6184C55.5592 11.6032 55.4632 10.5691 55.3557 9.31522C55.2483 8.05756 55.1447 6.96658 55.1216 6.88703C55.0219 6.52716 54.7302 6.14834 54.4193 5.98166C54.0969 5.8112 53.6786 5.7468 53.3371 5.83014C52.9379 5.92106 52.8842 5.96273 51.491 7.33403L50.1708 8.62956L49.6182 8.31515C48.8314 7.87194 48.179 7.53858 47.4843 7.22417C44.8439 6.04227 42.2495 5.36799 39.2444 5.06872C38.734 5.02327 35.9093 4.97781 35.5255 5.0119ZM37.8513 7.96286C41.3744 8.12196 44.5176 8.97807 47.6109 10.6183L47.964 10.804L47.0545 11.7093C45.7611 12.9897 45.811 12.8495 45.9645 14.6413C46.0221 15.308 46.0681 15.8649 46.0681 15.88C46.0681 15.8952 46.0106 15.8725 45.9415 15.8308C43.4392 14.3383 41.006 13.5466 38.2581 13.3344C37.1835 13.2511 35.5639 13.3079 34.4471 13.467C31.4382 13.8988 28.5022 15.2057 26.1381 17.1528C22.6034 20.0697 20.4427 24.195 20.082 28.7218C20.0398 29.2748 20.0398 30.7446 20.082 31.2977C20.3852 35.1161 21.9702 38.6542 24.6222 41.4499C27.278 44.2531 30.8357 46.0638 34.6774 46.5866C36.105 46.776 38.0432 46.7646 39.4862 46.5487C44.1722 45.8555 48.4092 43.1849 51.042 39.2641C52.036 37.7868 52.7383 36.2904 53.2181 34.635C53.6671 33.0895 53.8628 31.6917 53.8628 30.0211C53.8628 29.0816 53.8321 28.5778 53.7247 27.7747C53.433 25.5852 52.6424 23.3351 51.4872 21.4372C51.349 21.2099 51.2377 21.0167 51.2454 21.0092C51.2531 21.0054 51.8134 21.047 52.4889 21.1039C53.8667 21.2213 53.9396 21.2175 54.331 21.0357C54.5268 20.9486 54.6649 20.8273 55.4671 20.0318L56.3843 19.1302L56.5685 19.475C56.8333 19.9636 57.3361 20.9902 57.5165 21.4107C59.1015 25.1193 59.6311 29.2483 59.0363 33.2599C58.1804 38.999 55.0526 44.1622 50.3013 47.6889C44.8055 51.7687 37.6671 53.087 30.97 51.2687C26.6486 50.0944 22.7378 47.5904 19.798 44.1167C15.584 39.1353 13.8301 32.6122 14.9738 26.1421C15.868 21.0622 18.6121 16.4066 22.6802 13.0541C26.4528 9.94405 31.089 8.1712 35.9938 7.96664C36.8995 7.92497 37.0415 7.92498 37.8513 7.96286ZM52.5503 11.8457C52.604 12.5275 52.6693 13.1715 52.6885 13.2814C52.7882 13.8117 53.1605 14.2436 53.6824 14.414C53.7976 14.4519 54.2927 14.5087 55.2022 14.5845C55.943 14.6489 56.5608 14.7019 56.58 14.7095C56.5954 14.7133 55.8125 15.4974 54.853 16.4483L53.1029 18.1794L51.1878 18.0203C50.1324 17.9332 49.2651 17.8612 49.2651 17.8574C49.2612 17.8574 49.1883 17.0013 49.1 15.9558L48.9389 14.0617L50.6889 12.3306C51.6522 11.3797 52.439 10.607 52.4467 10.6108C52.439 10.6145 52.4927 11.1714 52.5503 11.8457ZM37.6402 16.2664C40.4879 16.4217 43.0439 17.3385 45.3044 19.0128L45.669 19.2818L43.5658 21.3577L41.4665 23.4335L41.3437 23.3654C40.1578 22.6532 39.1945 22.3009 37.9357 22.1342C37.5174 22.0774 36.3852 22.0774 35.9784 22.1342C34.1439 22.3805 32.555 23.1494 31.2885 24.4071C29.5039 26.1686 28.6634 28.6422 29.0088 31.0932C29.3082 33.2221 30.4404 35.101 32.1827 36.3776C33.7064 37.4951 35.6368 38.0557 37.4713 37.9194C40.177 37.7148 42.4605 36.3397 43.8422 34.0782C45.3888 31.5439 45.3504 28.2407 43.7501 25.7936L43.5966 25.5625L45.7035 23.4828L47.8105 21.4031L48.083 21.763C51.6292 26.4413 51.8173 32.7599 48.5551 37.5974C48.0254 38.3815 47.5918 38.9043 46.8779 39.6278C44.794 41.734 42.1689 43.0902 39.2329 43.5788C37.7515 43.8288 36.1012 43.8212 34.6006 43.5637C32.1712 43.147 29.9453 42.128 28.0302 40.5483C27.585 40.1847 26.7752 39.3891 26.3799 38.927C24.5032 36.7488 23.4132 34.2259 23.0985 31.3583C23.0294 30.6878 23.0294 29.3279 23.0985 28.6574C23.3825 26.0701 24.3075 23.7404 25.8695 21.7024C26.5795 20.7781 27.6157 19.7553 28.5406 19.0583C30.8433 17.3385 33.5605 16.3687 36.4313 16.2551C36.957 16.2323 37.0645 16.2361 37.6402 16.2664ZM37.905 25.1344C38.2965 25.2102 38.7724 25.3655 39.0525 25.5095L39.2636 25.6117L37.5097 27.3505C36.4735 28.3809 35.7213 29.1498 35.6714 29.2408C35.4066 29.6991 35.4104 30.3696 35.6867 30.7901C35.7942 30.9568 35.9976 31.1575 36.1588 31.2598C36.6155 31.5477 37.3063 31.5439 37.7822 31.2485C37.8589 31.203 38.7109 30.3886 39.6704 29.4453L41.4167 27.7255L41.551 28.0096C41.7045 28.3354 41.8311 28.7332 41.9117 29.1574C41.9923 29.5665 41.9923 30.4454 41.9156 30.8583C41.5126 32.9342 39.9275 34.5025 37.8244 34.9002C37.4099 34.976 36.5195 34.976 36.105 34.9002C34.0019 34.5025 32.4169 32.9342 32.0139 30.8583C31.9333 30.4378 31.9371 29.5665 32.0177 29.1423C32.2825 27.7785 33.054 26.6232 34.213 25.8655C34.8808 25.4261 35.5409 25.195 36.508 25.0587C36.7268 25.0246 37.5941 25.07 37.905 25.1344Z" fill="#40444D"/>
<path d="M76.0537 21.6682H78.1069L81.6761 38.336L80.283 37.7223L79.2468 32.8205V32.7599H79.2276L77.1743 23.1229H76.9671L74.8524 32.7599H74.8332V32.8394L73.751 37.7185L72.3809 38.3322L76.0537 21.6682ZM75.0597 32.7599L77.0707 23.5926L79.0204 32.7599H75.0597ZM77.6541 31.5098L77.0515 28.5171L76.449 31.5098H77.6541ZM73.9582 37.7412L75.0175 32.9644H79.0626L80.0988 37.7412L79.0012 38.336L78.1722 34.1122H75.9309L75.0597 38.336L73.9582 37.7412ZM85.1609 31.7143H87.7975C88.1583 31.7143 88.496 31.7825 88.8107 31.9189C89.1293 32.0553 89.4094 32.2485 89.6512 32.4947C89.893 32.7409 90.0849 33.025 90.2231 33.347C90.3612 33.669 90.4303 34.0137 90.4303 34.3812V37.7223L89.2252 38.317V34.2372C89.2252 33.8281 89.0794 33.4796 88.7915 33.1917C88.4999 32.9038 88.1506 32.7599 87.7323 32.7599H86.3852V38.336L85.1609 37.7412V31.7143ZM90.3919 25.5435V29.0096C90.3919 29.3505 90.3267 29.6763 90.1924 29.9832C90.0619 30.29 89.8815 30.5589 89.6551 30.7824C89.4248 31.0097 89.1638 31.184 88.8645 31.3166C88.5689 31.4454 88.2466 31.5098 87.9012 31.5098H85.1609V23.0244H87.9012C88.2466 23.0244 88.5689 23.0888 88.8645 23.2176C89.1638 23.3464 89.4248 23.5282 89.6551 23.7631C89.8853 23.9941 90.0619 24.2631 90.1924 24.5699C90.3267 24.8767 90.3919 25.2025 90.3919 25.5435ZM86.3891 24.2744V30.1574H87.9242C88.2696 30.1574 88.5651 30.0286 88.8146 29.7672C89.064 29.5096 89.1907 29.1877 89.1907 28.8051V25.6268C89.1907 25.2442 89.064 24.9222 88.8146 24.6646C88.5651 24.4032 88.2696 24.2744 87.9242 24.2744H86.3891V24.2744ZM91.8004 25.6268V28.8051C91.8004 29.324 91.7122 29.8127 91.5318 30.2711C91.3514 30.7294 91.1019 31.1347 90.7834 31.4908C91.1173 31.8469 91.3783 32.2598 91.574 32.7333C91.7697 33.2031 91.8657 33.7069 91.8657 34.241V38.3208L90.6414 37.7261V34.385C90.6414 33.7296 90.4457 33.15 90.0504 32.6424C89.6551 32.1386 89.1638 31.7939 88.5651 31.6158C89.1446 31.4643 89.6244 31.1499 90.0043 30.6726C90.3843 30.1953 90.5761 29.6422 90.5761 29.0134V25.5472C90.5761 25.1798 90.5071 24.8313 90.3689 24.5017C90.2307 24.1722 90.0389 23.8881 89.7971 23.6418C89.5553 23.3956 89.2713 23.1986 88.9489 23.0547C88.6227 22.9107 88.2773 22.8425 87.9012 22.8425H85.1609H84.9537V23.0282V31.5135V31.6992V37.7488L83.7524 38.3435V32.7674V30.1612V24.2782V21.6682H86.3852H87.9204C88.4615 21.6682 88.9643 21.7743 89.4325 21.9864C89.9045 22.1986 90.3152 22.4827 90.6683 22.8388C91.0213 23.1948 91.2977 23.6115 91.4972 24.0888C91.7006 24.5661 91.8004 25.0775 91.8004 25.6268ZM95.3466 31.7143H97.9832C98.344 31.7143 98.6817 31.7825 99.0002 31.9189C99.3188 32.0553 99.5951 32.2485 99.8369 32.4947C100.079 32.7409 100.271 33.025 100.409 33.347C100.547 33.669 100.616 34.0137 100.616 34.3812V37.7223L99.4148 38.317V34.2372C99.4148 33.8281 99.2689 33.4796 98.9772 33.1917C98.6856 32.9038 98.3363 32.7599 97.918 32.7599H96.5709V38.336L95.3466 37.7412V31.7143V31.7143ZM100.578 25.5435V29.0096C100.578 29.3505 100.512 29.6763 100.378 29.9832C100.248 30.29 100.067 30.5589 99.8407 30.7824C99.6105 31.0097 99.3495 31.184 99.054 31.3166C98.7546 31.4454 98.4361 31.5098 98.0868 31.5098H95.3466V23.0244H98.0868C98.4322 23.0244 98.7546 23.0888 99.054 23.2176C99.3495 23.3464 99.6105 23.5282 99.8407 23.7631C100.071 23.9941 100.248 24.2631 100.378 24.5699C100.512 24.8767 100.578 25.2025 100.578 25.5435ZM96.5709 24.2744V30.1574H98.106C98.4514 30.1574 98.7508 30.0286 99.0002 29.7672C99.2497 29.5096 99.3725 29.1877 99.3725 28.8051V25.6268C99.3725 25.2442 99.2497 24.9222 99.0002 24.6646C98.7508 24.4032 98.4514 24.2744 98.106 24.2744H96.5709V24.2744ZM101.986 25.6268V28.8051C101.986 29.324 101.898 29.8127 101.717 30.2711C101.537 30.7294 101.288 31.1347 100.973 31.4908C101.303 31.8469 101.564 32.2598 101.76 32.7333C101.955 33.2031 102.051 33.7069 102.051 34.241V38.3208L100.827 37.7261V34.385C100.827 33.7296 100.631 33.15 100.236 32.6424C99.8408 32.1386 99.3495 31.7939 98.7508 31.6158C99.3342 31.4643 99.8139 31.1499 100.194 30.6726C100.574 30.1953 100.766 29.6422 100.766 29.0134V25.5472C100.766 25.1798 100.697 24.8313 100.558 24.5017C100.42 24.1722 100.228 23.8881 99.9866 23.6418C99.7448 23.3956 99.4608 23.1986 99.1346 23.0547C98.8084 22.9107 98.4629 22.8425 98.0868 22.8425H95.3466H95.1394V23.0282V31.5135V31.6992V37.7488L93.9381 38.3435V32.7674V30.1612V24.2782V21.6682H96.5709H98.106C98.6472 21.6682 99.1499 21.7743 99.622 21.9864C100.09 22.1986 100.501 22.4827 100.854 22.8388C101.207 23.1948 101.483 23.6115 101.683 24.0888C101.886 24.5661 101.986 25.0775 101.986 25.6268ZM108.253 21.6909H108.441C109.009 21.6909 109.543 21.797 110.049 22.0054C110.552 22.2175 110.99 22.5092 111.366 22.8766C111.738 23.2479 112.034 23.6797 112.249 24.1797C112.463 24.6798 112.567 25.2101 112.567 25.767V34.2372C112.567 34.7979 112.46 35.3282 112.249 35.8244C112.034 36.3245 111.738 36.7563 111.366 37.1276C110.99 37.4988 110.552 37.7867 110.049 37.9988C109.543 38.211 109.009 38.317 108.441 38.317H108.253C107.685 38.317 107.152 38.211 106.645 37.9988C106.139 37.7867 105.701 37.4988 105.329 37.1276C104.953 36.7601 104.661 36.3245 104.446 35.8244C104.231 35.3244 104.124 34.7941 104.124 34.2372V25.767C104.124 25.2063 104.231 24.676 104.446 24.1797C104.661 23.6835 104.953 23.2479 105.329 22.8766C105.701 22.5092 106.139 22.2175 106.645 22.0054C107.152 21.797 107.685 21.6909 108.253 21.6909ZM111.404 34.4418V25.6647C111.404 25.2707 111.327 24.8995 111.178 24.5472C111.024 24.1987 110.821 23.8956 110.568 23.6456C110.31 23.3918 110.007 23.191 109.654 23.0433C109.301 22.8918 108.933 22.8198 108.545 22.8198H108.273C107.87 22.8198 107.493 22.8956 107.144 23.0433C106.791 23.1948 106.488 23.3956 106.231 23.6456C105.974 23.8994 105.77 24.1987 105.617 24.5472C105.463 24.8957 105.39 25.2669 105.39 25.6647V34.4418C105.39 34.8395 105.467 35.207 105.617 35.5479C105.77 35.8888 105.974 36.1881 106.231 36.4381C106.488 36.6919 106.791 36.8927 107.144 37.0404C107.497 37.192 107.873 37.2677 108.273 37.2677H108.545C108.933 37.2677 109.301 37.192 109.654 37.0404C110.007 36.8889 110.31 36.6881 110.568 36.4381C110.825 36.1843 111.028 35.8888 111.178 35.5479C111.331 35.207 111.404 34.8395 111.404 34.4418ZM108.273 23.0244H108.545C108.917 23.0244 109.267 23.0925 109.593 23.2289C109.919 23.3653 110.199 23.5547 110.441 23.7933C110.683 24.032 110.875 24.3123 111.013 24.6343C111.151 24.9563 111.22 25.301 111.22 25.6685V34.4456C111.22 34.813 111.151 35.1577 111.013 35.4835C110.875 35.8055 110.683 36.0858 110.441 36.3245C110.199 36.5631 109.915 36.7525 109.593 36.8889C109.267 37.0253 108.921 37.0934 108.545 37.0934H108.273C107.9 37.0934 107.551 37.0253 107.225 36.8889C106.899 36.7525 106.618 36.5631 106.377 36.3245C106.135 36.0858 105.943 35.8055 105.805 35.4835C105.667 35.1615 105.598 34.8168 105.598 34.4456V25.6685C105.598 25.301 105.667 24.9563 105.805 24.6343C105.943 24.3123 106.135 24.032 106.377 23.7933C106.618 23.5547 106.902 23.3653 107.225 23.2289C107.551 23.0925 107.9 23.0244 108.273 23.0244ZM109.934 34.2372V25.767C109.934 25.3578 109.789 25.0093 109.501 24.7214C109.209 24.4335 108.86 24.2896 108.441 24.2896H108.253C107.839 24.2896 107.486 24.4335 107.194 24.7214C106.902 25.0093 106.757 25.3578 106.757 25.767V34.2372C106.757 34.6463 106.902 34.9948 107.194 35.2827C107.486 35.5706 107.835 35.7146 108.253 35.7146H108.441C108.856 35.7146 109.209 35.5706 109.501 35.2827C109.789 34.9948 109.934 34.6463 109.934 34.2372ZM123.812 37.0442H124L126.925 22.2819L128.333 21.6682L125.263 37.3511L125.075 38.336H122.772L122.584 37.3321L121.482 31.5325L120.385 37.3321L120.197 38.336H117.894L117.706 37.3511L114.636 21.6682L116.006 22.2819L118.911 37.0442H119.095L121.482 25.5624L123.812 37.0442ZM121.59 25.051H121.383L119.019 36.5328L116.194 22.2857L117.315 21.672L119.019 30.4074L120.158 24.5017L120.323 23.5395H122.649L122.814 24.5017L123.954 30.4074L125.658 21.672L126.717 22.2857L123.916 36.5328L121.59 25.051Z" fill="#40444D"/>
</svg>
