<svg width="173" height="33" viewBox="0 0 173 33" fill="none" xmlns="http://www.w3.org/2000/svg">
<path d="M31.6925 1.49368C27.8742 -0.887336 22.8474 -0.325171 18.3641 2.49343C13.8948 -0.323614 8.86497 -0.887336 5.05129 1.49368C-0.98146 5.26376 -1.71492 14.9747 3.41463 23.1814C7.1956 29.2343 13.1084 32.7786 18.3719 32.7132C23.6354 32.7786 29.5482 29.2343 33.3292 23.1814C38.4525 14.9747 37.7253 5.26376 31.6925 1.49368ZM6.18807 21.4497C5.13008 19.7726 4.33204 17.945 3.82107 16.029C3.36672 14.3663 3.19304 12.6395 3.30718 10.9197C3.53609 7.88771 4.77098 5.52538 6.78294 4.26713C8.79489 3.00888 11.4547 2.93569 14.2873 4.05846C14.7179 4.23162 15.1394 4.42652 15.5502 4.64242C13.9758 6.07677 12.607 7.7217 11.4827 9.5306C8.36821 14.5138 7.41829 20.0606 8.50524 24.4801C7.63934 23.545 6.86352 22.5304 6.18807 21.4497ZM32.9243 16.029C32.4127 17.9447 31.6147 19.7722 30.5573 21.4497C29.8821 22.5325 29.1063 23.5492 28.2401 24.4863C29.2119 20.5231 28.5516 15.6692 26.169 11.1159C26.0927 10.9636 25.9552 10.8509 25.7909 10.8061C25.6266 10.7612 25.451 10.7884 25.3079 10.8807L17.8798 15.5229C17.7431 15.6079 17.6459 15.744 17.6096 15.9009C17.5734 16.0578 17.6011 16.2227 17.6867 16.3591L18.7768 18.1016C18.8619 18.2384 18.9979 18.3356 19.1548 18.3718C19.3117 18.4081 19.4766 18.3803 19.613 18.2947L24.428 15.2877C24.5837 15.7549 24.7395 16.2143 24.8563 16.6892C25.3105 18.3519 25.4841 20.0787 25.3701 21.7985C25.1412 24.832 23.9063 27.1944 21.8944 28.4526C20.8566 29.0871 19.6675 29.4313 18.4513 29.4492H18.2956C17.0793 29.4317 15.8901 29.0875 14.8525 28.4526C12.839 27.1944 11.6041 24.832 11.3752 21.7985C11.262 20.0787 11.4357 18.352 11.8891 16.6892C12.9333 12.8429 15.0906 9.39087 18.09 6.7665C19.3837 5.63048 20.8572 4.71743 22.4503 4.06468C25.2752 2.94191 27.9396 3.01511 29.9531 4.27335C31.9666 5.5316 33.1999 7.89394 33.4289 10.9259C33.5446 12.6431 33.3741 14.3676 32.9243 16.029Z" fill="#40444D"/>
<path d="M73.9504 8.86348C69.5964 8.86348 66.0775 12.2627 66.0775 16.5871C66.0775 20.8821 69.5964 24.2257 73.9504 24.2257C78.3339 24.2257 81.8529 20.8873 81.8529 16.5871C81.8529 12.2644 78.3392 8.86521 73.9504 8.86521V8.86348ZM73.9504 20.1877C71.9436 20.1877 70.4158 18.5645 70.4158 16.5576C70.4158 14.5508 71.9436 12.9033 73.9504 12.9033C75.9868 12.9033 77.5145 14.556 77.5145 16.5628C77.5145 18.5697 75.9868 20.1946 73.9504 20.1946V20.1877ZM91.6702 2.93129H83.6584C83.4835 2.92806 83.3148 2.99618 83.1913 3.12003C83.0678 3.24388 83.0001 3.41276 83.0039 3.58764V23.1199C82.9913 23.3007 83.0548 23.4785 83.1791 23.6104C83.3034 23.7423 83.4772 23.8162 83.6584 23.8143H91.6702C98.0815 23.8143 102.536 19.5506 102.536 13.3477C102.536 7.1066 98.0815 2.93129 91.6702 2.93129ZM91.8595 19.6895H87.476V7.04584H91.8595C95.4079 7.04584 97.854 9.70025 97.854 13.339C97.854 16.917 95.4079 19.6895 91.8595 19.6895ZM118.483 9.2836H115.471C115.126 9.3109 114.857 9.59369 114.846 9.93982V10.8339C114.161 9.70025 112.61 8.86521 110.68 8.86521C106.923 8.86521 103.404 11.8165 103.404 16.5299C103.404 21.2172 106.892 24.2223 110.65 24.2223C112.588 24.2223 114.169 23.389 114.855 22.2553V23.1789C114.857 23.5236 115.135 23.8028 115.48 23.8056H118.492C118.659 23.8095 118.821 23.7447 118.94 23.6263C119.058 23.5079 119.123 23.3463 119.119 23.1789V9.93982C119.124 9.76786 119.059 9.60113 118.94 9.47753C118.82 9.35394 118.655 9.28399 118.483 9.2836ZM111.477 20.2207C109.482 20.2207 107.984 18.6878 107.984 16.5611C107.984 14.4344 109.482 12.9033 111.477 12.9033C113.471 12.9033 114.97 14.4327 114.97 16.5594C114.97 18.686 113.473 20.2189 111.477 20.2189V20.2207ZM135.391 2.93141H132.379C132.208 2.92628 132.043 2.98975 131.92 3.10759C131.797 3.22543 131.727 3.38776 131.724 3.55812V10.7749C131.03 9.70025 129.457 8.86521 127.49 8.86521C123.761 8.86521 120.303 11.8165 120.303 16.5299C120.303 21.2172 123.791 24.2223 127.549 24.2223C129.487 24.2223 130.948 23.389 131.754 22.2553V23.1789C131.755 23.524 132.034 23.8037 132.379 23.8056H135.391C135.558 23.81 135.72 23.7453 135.839 23.6268C135.957 23.5083 136.022 23.3464 136.017 23.1789V3.5616C136.023 3.39349 135.959 3.23064 135.84 3.11138C135.721 2.99213 135.559 2.92703 135.391 2.93141ZM128.384 20.2571C126.398 20.2571 124.912 18.7086 124.912 16.5594C124.912 14.4101 126.403 12.8616 128.384 12.8616C130.365 12.8616 131.856 14.4101 131.856 16.5594C131.856 18.7086 130.372 20.2571 128.384 20.2571ZM152.295 2.93141H149.288C149.117 2.92628 148.952 2.9897 148.829 3.10749C148.705 3.22528 148.634 3.3876 148.632 3.55812V10.7749C147.946 9.70025 146.364 8.86521 144.397 8.86521C140.668 8.86521 137.21 11.8165 137.21 16.5299C137.21 21.2172 140.7 24.2223 144.456 24.2223C146.396 24.2223 147.856 23.389 148.661 22.2553V23.1789C148.663 23.5242 148.942 23.8037 149.288 23.8056H152.295C152.462 23.81 152.624 23.7453 152.742 23.6267C152.86 23.5082 152.924 23.3462 152.92 23.1789V3.5616C152.925 3.39366 152.862 3.23078 152.743 3.11147C152.625 2.99216 152.463 2.927 152.295 2.93141ZM145.288 20.2571C143.3 20.2571 141.816 18.7086 141.816 16.5594C141.816 14.4101 143.307 12.8616 145.288 12.8616C147.269 12.8616 148.76 14.4101 148.76 16.5594C148.76 18.7086 147.279 20.2571 145.293 20.2571H145.288ZM168.787 10.2992L164.292 25.7135C163.424 28.4565 161.489 30.097 158.477 30.097C157.107 30.097 155.86 29.8175 154.883 29.2585C154.314 28.9339 153.841 28.637 153.841 28.1613C153.841 27.8662 153.937 27.7134 154.111 27.4374L155.003 26.1007C155.255 25.7274 155.44 25.6059 155.711 25.6059C155.926 25.6112 156.133 25.6834 156.305 25.8125C156.866 26.1753 157.386 26.4878 158.18 26.4878C159.107 26.4878 159.815 26.1909 160.197 25.0868L160.583 23.8073H158.763C158.315 23.8073 158.069 23.54 157.958 23.1806L153.935 10.2992C153.786 9.79226 153.923 9.28533 154.668 9.28533H157.836C158.223 9.28533 158.494 9.41727 158.664 9.97107L161.635 20.3439L164.412 9.97107C164.501 9.61345 164.74 9.28533 165.218 9.28533H168.223C168.815 9.2836 168.994 9.70025 168.787 10.2992ZM64.9422 14.8841V23.1181C64.9449 23.2995 64.8742 23.4742 64.7459 23.6025C64.6177 23.7307 64.4429 23.8015 64.2616 23.7987H61.7756C61.5941 23.802 61.419 23.7314 61.2907 23.603C61.1623 23.4747 61.0917 23.2996 61.095 23.1181V20.9568C59.517 22.9497 56.7723 24.2049 53.6682 24.2049C47.8386 24.2049 43.2832 19.8197 43.2832 13.5768C43.2832 7.08924 48.2014 2.61719 54.4147 2.61719C59.0014 2.61719 62.6679 4.58934 64.2963 8.5562C64.3419 8.66102 64.3672 8.77353 64.3709 8.88778C64.3709 9.07527 64.2477 9.21763 63.8501 9.35478L60.9475 10.4728C60.7724 10.5454 60.5762 10.5485 60.3989 10.4815C60.2434 10.3897 60.1217 10.2503 60.0517 10.0839C59.01 8.10309 57.1559 6.75765 54.3019 6.75765C50.6006 6.75765 47.9497 9.64817 47.9497 13.3963C47.9497 17.0298 50.2066 20.0176 54.4078 20.0176C56.6178 20.0176 58.3799 18.9759 59.201 17.8319H56.5796C56.3982 17.8347 56.2235 17.7639 56.0952 17.6357C55.967 17.5075 55.8962 17.3327 55.899 17.1514V14.9136C55.8962 14.7322 55.967 14.5575 56.0952 14.4293C56.2235 14.301 56.3982 14.2302 56.5796 14.2331H64.2616C64.4396 14.224 64.6134 14.2887 64.7422 14.4118C64.871 14.535 64.9433 14.7059 64.9422 14.8841ZM168.869 6.2351V6.03546C168.868 6.02146 168.873 6.00787 168.883 5.99727C168.893 5.98838 168.906 5.98345 168.919 5.98338H170.188C170.202 5.98292 170.215 5.98793 170.225 5.99727C170.234 6.00787 170.239 6.02146 170.238 6.03546V6.2351C170.238 6.24854 170.233 6.26149 170.225 6.27156C170.215 6.2809 170.202 6.28591 170.188 6.28545H169.725V7.53714C169.724 7.56552 169.701 7.58832 169.672 7.58922H169.433C169.42 7.58916 169.407 7.58348 169.398 7.5736C169.388 7.56409 169.383 7.55092 169.383 7.53714V6.28545H168.919C168.905 6.2865 168.892 6.28154 168.882 6.27186C168.873 6.26218 168.868 6.24875 168.869 6.2351ZM171.087 6.02852L171.435 6.8323L171.782 6.02852C171.787 6.01427 171.797 6.0021 171.81 5.99379C171.824 5.98631 171.84 5.98272 171.856 5.98338H172.259C172.272 5.98238 172.286 5.98711 172.295 5.9964C172.305 6.00568 172.31 6.01863 172.31 6.03199V7.53888C172.311 7.5522 172.306 7.56533 172.296 7.57494C172.287 7.58456 172.274 7.58975 172.261 7.58922H172.035C172.022 7.58968 172.009 7.58467 171.999 7.57533C171.989 7.56591 171.984 7.5525 171.985 7.53888V6.40177L171.612 7.22812C171.606 7.24372 171.597 7.25753 171.584 7.26805C171.57 7.27595 171.553 7.27957 171.537 7.27847H171.353C171.337 7.27933 171.322 7.27572 171.308 7.26805C171.295 7.25804 171.285 7.24405 171.28 7.22812L170.909 6.40177V7.53888C170.908 7.55231 170.904 7.56526 170.895 7.57533C170.885 7.58383 170.873 7.58874 170.86 7.58922H170.629C170.617 7.58933 170.605 7.58431 170.596 7.57533C170.586 7.56591 170.581 7.5525 170.582 7.53888V6.03199C170.582 6.01863 170.587 6.00568 170.596 5.9964C170.606 5.98711 170.619 5.98238 170.632 5.98338H171.023C171.039 5.98294 171.054 5.98653 171.068 5.99379C171.078 6.00333 171.084 6.01537 171.087 6.02852Z" fill="#40444D"/>
</svg>
