<svg width="176" height="39" viewBox="0 0 176 39" fill="none" xmlns="http://www.w3.org/2000/svg">
<path fill-rule="evenodd" clip-rule="evenodd" d="M58.9024 23.8454H51.3201L48.3628 30.108H45.0098L49.3704 20.8735H57.5055L54.7564 15.0275H52.1419L52.3598 14.5629C53.1816 12.8103 53.9938 11.0512 54.8285 9.30328L55.1265 8.67847L65.1246 30.108H61.8485L58.9024 23.8454ZM70.0796 20.0693C70.0654 21.0846 70.2567 22.0924 70.642 23.0319C71.0272 23.9714 71.5986 24.8232 72.3215 25.5362C73.0445 26.2492 73.9042 26.8086 74.849 27.1807C75.7937 27.5529 76.804 27.73 77.819 27.7016C79.0878 27.7343 80.3452 27.4542 81.4803 26.8862C82.6154 26.3182 83.5933 25.4797 84.3279 24.4446L84.5266 24.1867L86.904 26.0114L86.7181 26.2678C85.4066 28.0893 83.5512 29.448 81.4188 30.1484C79.2864 30.8489 76.9868 30.855 74.8507 30.166C72.7145 29.4769 70.8519 28.1281 69.5307 26.3136C68.2095 24.4991 67.4977 22.3123 67.4977 20.0677C67.4977 17.8231 68.2095 15.6363 69.5307 13.8218C70.8519 12.0073 72.7145 10.6585 74.8507 9.96943C76.9868 9.28036 79.2864 9.28651 81.4188 9.98696C83.5512 10.6874 85.4066 12.0461 86.7181 13.8676L86.904 14.1256L84.5266 15.9503L84.3279 15.6924C83.5933 14.6573 82.6154 13.8187 81.4803 13.2508C80.3452 12.6828 79.0878 12.4027 77.819 12.4354C76.8038 12.407 75.7935 12.5842 74.8486 12.9564C73.9038 13.3287 73.044 13.8882 72.321 14.6014C71.5979 15.3145 71.0267 16.1666 70.6415 17.1062C70.2563 18.0459 70.0652 19.0538 70.0796 20.0693ZM93.6581 20.0693C93.6438 21.0846 93.8351 22.0924 94.2204 23.0319C94.6057 23.9714 95.177 24.8232 95.8999 25.5362C96.6229 26.2492 97.4827 26.8086 98.4274 27.1807C99.3721 27.5529 100.382 27.73 101.397 27.7016C102.667 27.7389 103.925 27.4612 105.061 26.8934C106.197 26.3257 107.174 25.4854 107.906 24.4478L108.105 24.1867L110.482 26.0114L110.297 26.2678C108.985 28.0893 107.13 29.448 104.997 30.1484C102.865 30.8489 100.565 30.855 98.4291 30.166C96.2929 29.4769 94.4304 28.1281 93.1091 26.3136C91.7879 24.4991 91.0761 22.3123 91.0761 20.0677C91.0761 17.8231 91.7879 15.6363 93.1091 13.8218C94.4304 12.0073 96.2929 10.6585 98.4291 9.96943C100.565 9.28036 102.865 9.28651 104.997 9.98696C107.13 10.6874 108.985 12.0461 110.297 13.8676L110.482 14.1256L108.105 15.9503L107.906 15.6908C107.175 14.6529 106.197 13.8123 105.061 13.2443C103.926 12.6762 102.667 12.3983 101.397 12.4354C100.382 12.407 99.3719 12.5842 98.427 12.9564C97.4822 13.3287 96.6224 13.8882 95.8994 14.6014C95.1763 15.3145 94.6051 16.1666 94.2199 17.1062C93.8347 18.0459 93.6436 19.0538 93.6581 20.0693ZM150.012 21.8829L154.911 30.0952H151.425L146.76 22.2898H142.955V30.0952H139.934V19.3115H147.521C147.97 19.3597 148.423 19.313 148.853 19.1743C149.282 19.0357 149.677 18.8081 150.013 18.5066C150.349 18.2051 150.617 17.8362 150.801 17.4241C150.985 17.012 151.08 16.5658 151.08 16.1146C151.08 15.6633 150.985 15.2171 150.801 14.805C150.617 14.3929 150.349 14.024 150.013 13.7225C149.677 13.421 149.282 13.1934 148.853 13.0548C148.423 12.9161 147.97 12.8694 147.521 12.9176H139.934V9.93931H147.556C148.398 9.89177 149.241 10.0167 150.034 10.3065C150.826 10.5962 151.551 11.0447 152.164 11.6244C152.776 12.2042 153.264 12.9029 153.598 13.6779C153.931 14.4529 154.103 15.2877 154.102 16.1314C154.119 17.4002 153.732 18.6415 152.997 19.6756C152.262 20.7097 151.216 21.4828 150.012 21.8829ZM124.494 9.4619C126.583 9.44263 128.631 10.0436 130.379 11.1886C132.127 12.3337 133.496 13.9715 134.313 15.8948C135.129 17.8181 135.357 19.9405 134.968 21.9935C134.578 24.0464 133.588 25.9377 132.124 27.428C130.659 28.9182 128.785 29.9406 126.74 30.3657C124.694 30.7908 122.568 30.5995 120.631 29.816C118.694 29.0325 117.033 27.6921 115.857 25.9643C114.682 24.2364 114.046 22.1989 114.029 20.1094C113.999 18.7183 114.248 17.3353 114.761 16.042C115.274 14.7486 116.041 13.571 117.016 12.5787C117.991 11.5864 119.155 10.7994 120.44 10.2641C121.724 9.72876 123.102 9.45601 124.494 9.4619ZM158.831 30.108V9.93931H163.342C164.379 9.93931 165.425 9.96014 166.45 10.0451C167.565 10.1094 168.668 10.3144 169.731 10.6554C171.46 11.4126 172.952 12.6231 174.049 14.1588C175.146 15.6945 175.808 17.4983 175.964 19.3793C176.12 21.2602 175.764 23.1484 174.935 24.8438C174.106 26.5393 172.834 27.979 171.253 29.0105C169.431 29.8214 167.445 30.1971 165.452 30.108H158.831ZM124.578 12.4354C123.582 12.4413 122.597 12.6452 121.681 13.0352C120.764 13.4252 119.934 13.9935 119.239 14.7071C118.544 15.4207 117.998 16.2653 117.632 17.1919C117.266 18.1185 117.088 19.1086 117.108 20.1045C117.101 21.0992 117.292 22.0853 117.669 23.0057C118.046 23.926 118.603 24.7623 119.306 25.4659C120.009 26.1696 120.844 26.7266 121.764 27.1046C122.684 27.4826 123.67 27.674 124.665 27.6679C125.659 27.6617 126.643 27.4581 127.558 27.0687C128.473 26.6794 129.302 26.1121 129.996 25.3998C130.691 24.6875 131.237 23.8444 131.602 22.9195C131.968 21.9945 132.146 21.0061 132.127 20.0116C132.138 19.0159 131.951 18.0278 131.576 17.1053C131.201 16.1828 130.646 15.3443 129.943 14.6389C129.24 13.9334 128.404 13.3752 127.483 12.9969C126.562 12.6185 125.574 12.4276 124.578 12.4354ZM161.777 27.189H163.416C164.513 27.189 165.611 27.1665 166.703 27.0704C167.382 27.0295 168.053 26.9135 168.706 26.7244C170.026 26.2759 171.158 25.3988 171.922 24.2326C172.686 23.0664 173.038 21.6782 172.922 20.2888C173.036 18.7891 172.639 17.2951 171.795 16.05C170.952 14.8049 169.712 13.8821 168.277 13.4319C167.834 13.3025 167.383 13.2055 166.926 13.1419C166.418 13.0666 165.909 13.0185 165.398 12.9817C164.453 12.9208 163.506 12.9096 162.561 12.9096H161.774L161.777 27.189Z" fill="#40444D"/>
<path fill-rule="evenodd" clip-rule="evenodd" d="M17.2704 0.652949C17.4377 0.362885 17.8563 0.362838 18.0236 0.652865L33.5384 27.5436C33.7057 27.8335 33.4965 28.1957 33.1618 28.1957H31.4221C31.189 28.1957 30.9737 28.0713 30.8572 27.8695L17.836 5.30496C17.7524 5.15996 17.5431 5.16 17.4594 5.30502L16.3394 7.24734C16.2619 7.38178 16.2619 7.54734 16.3394 7.68176L30.6658 32.5191C30.833 32.809 30.6238 33.1711 30.2892 33.1711H22.8089C22.5762 33.1711 22.3611 33.0471 22.2445 32.8457L12.0683 15.2708C11.9844 15.1259 11.7752 15.1262 11.6917 15.2713L10.5848 17.1955C10.5075 17.33 10.5076 17.4954 10.5852 17.6298L22.0597 37.4943C22.2272 37.7841 22.018 38.1465 21.6833 38.1465H14.1461C13.9118 38.1465 13.6955 38.0208 13.5795 37.8172L6.3787 25.1797C6.29531 25.0334 6.08438 25.0333 6.00097 25.1797L4.46081 27.8814C4.34938 28.0769 4.34658 28.316 4.45339 28.514L5.27771 30.0422C5.43395 30.3319 5.22418 30.6834 4.89506 30.6834H0.748286C0.414664 30.6834 0.205359 30.3231 0.370583 30.0333L5.80705 20.4966C5.97383 20.204 6.39559 20.204 6.56242 20.4965L15.084 35.4394C15.1614 35.5751 15.3055 35.6588 15.4617 35.6588H17.7394C17.9068 35.6588 18.0114 35.4777 17.9277 35.3328L7.77454 17.7438C7.65825 17.5424 7.65807 17.2943 7.77405 17.0926L11.4965 10.6216C11.6634 10.3314 12.0819 10.3308 12.2496 10.6205L23.8041 30.5749C23.843 30.6421 23.9146 30.6834 23.9922 30.6834H26.3582C26.5255 30.6834 26.6301 30.5023 26.5465 30.3574L13.5301 7.79067C13.4138 7.58903 13.4138 7.34069 13.5301 7.13904L17.2704 0.652949Z" fill="#40444D"/>
</svg>
