<svg width="166" height="96" viewBox="0 0 166 96" fill="none" xmlns="http://www.w3.org/2000/svg">
<rect width="166" height="96" fill="white"/>
<path d="M31.9766 70.375H35.3216V57.052L40.5456 68.668C41.1376 70.064 41.9856 70.582 43.6336 70.582C45.2816 70.582 46.0786 70.064 46.6956 68.668L51.8936 57.052V70.375H55.2636V57.052C55.2636 55.759 54.7486 55.137 53.6676 54.8C51.1206 54.024 49.4216 54.697 48.6496 56.43L43.5296 67.917L38.6006 56.43C37.8546 54.697 36.1306 54.025 33.5566 54.8C32.5016 55.136 31.9866 55.758 31.9866 57.052L31.9856 70.375H31.9766ZM58.0436 59.535H61.4136V66.857C61.3886 67.27 61.5436 68.202 63.3696 68.227H70.6776V59.483H74.0476V71.46C74.0476 74.41 70.4196 75.056 68.7206 75.082H58.1206V72.832H68.7476C70.9096 72.599 70.6516 71.512 70.6516 71.15V70.27H63.5236C60.2036 70.244 58.0686 68.77 58.0436 67.088V59.534V59.535ZM130.351 51.049C128.293 50.997 126.697 51.204 125.359 51.774C124.974 51.93 124.355 51.93 124.305 52.421C124.511 52.627 124.535 52.964 124.705 53.249C125.005 53.767 125.555 54.464 126.043 54.827L127.69 56.027C128.694 56.647 129.826 57.01 130.803 57.631C131.369 57.993 131.935 58.459 132.501 58.848C132.784 59.055 132.964 59.392 133.325 59.521V59.443C133.145 59.211 133.093 58.875 132.925 58.615L132.152 57.865C131.399 56.8612 130.496 55.9798 129.475 55.252C128.651 54.682 126.85 53.907 126.515 52.949L126.465 52.897C127.03 52.845 127.7 52.637 128.24 52.482C129.115 52.25 129.913 52.302 130.813 52.069L132.049 51.707V51.474C131.586 51.008 131.251 50.387 130.763 49.948C129.451 48.81 128.009 47.698 126.517 46.766C125.719 46.249 124.69 45.912 123.842 45.473C123.542 45.318 123.018 45.24 122.838 44.981C122.374 44.411 122.118 43.661 121.783 42.989L119.683 38.489C119.22 37.489 118.936 36.471 118.371 35.539C115.721 31.141 112.838 28.476 108.411 25.863C107.459 25.32 106.327 25.087 105.117 24.803L103.187 24.699C102.775 24.519 102.363 24.026 102.003 23.793C100.536 22.863 96.7526 20.843 95.6726 23.508C94.9776 25.19 96.7026 26.845 97.2926 27.708C97.7306 28.303 98.2966 28.976 98.6056 29.648C98.7856 30.088 98.8356 30.554 99.0056 31.018C99.4056 32.156 99.8036 33.424 100.344 34.485C100.627 35.028 100.944 35.598 101.296 36.089C101.502 36.374 101.862 36.503 101.939 36.969C101.579 37.487 101.554 38.263 101.339 38.909C100.412 41.833 100.773 45.454 102.085 47.601C102.497 48.248 103.485 49.671 104.788 49.127C105.946 48.661 105.688 47.187 106.023 45.893C106.101 45.593 106.049 45.376 106.203 45.169V45.221L107.258 47.368C108.056 48.636 109.446 49.955 110.604 50.835C111.221 51.301 111.71 52.103 112.482 52.387V52.3H112.432C112.277 52.068 112.046 51.964 111.84 51.783C111.377 51.317 110.862 50.748 110.502 50.231C109.422 48.783 108.47 47.178 107.622 45.523C107.21 44.721 106.849 43.841 106.516 43.04C106.36 42.74 106.36 42.264 106.104 42.11C105.718 42.68 105.152 43.17 104.868 43.87C104.368 44.982 104.328 46.353 104.148 47.776C104.044 47.802 104.096 47.776 104.044 47.828C103.222 47.622 102.938 46.768 102.629 46.043C101.857 44.206 101.729 41.257 102.397 39.135C102.577 38.592 103.35 36.885 103.041 36.367C102.885 35.875 102.371 35.591 102.088 35.203C101.753 34.711 101.394 34.091 101.162 33.548C100.545 32.098 100.236 30.495 99.5666 29.046C99.2666 28.373 98.7166 27.676 98.2796 27.054C97.7796 26.354 97.2516 25.854 96.8646 25.036C96.7346 24.751 96.5646 24.286 96.7616 23.976C96.8116 23.769 96.9166 23.691 97.1216 23.64C97.4566 23.355 98.4086 23.718 98.7436 23.873C99.6956 24.261 100.494 24.623 101.291 25.166C101.651 25.426 102.038 25.916 102.491 26.046H103.031C103.855 26.226 104.781 26.098 105.551 26.33C106.915 26.77 108.151 27.417 109.257 28.115C112.627 30.262 115.407 33.315 117.285 36.963C117.585 37.558 117.722 38.101 118.005 38.723C118.545 39.991 119.205 41.283 119.755 42.526C120.295 43.742 120.81 44.984 121.582 45.993C121.968 46.536 123.512 46.82 124.207 47.105C124.722 47.338 125.519 47.545 125.983 47.829C126.857 48.372 127.733 48.993 128.556 49.589C128.956 49.889 130.254 50.545 130.331 51.062L130.351 51.049ZM104.104 28.569C103.667 28.569 103.358 28.621 103.05 28.699V28.751H103.1C103.306 29.165 103.666 29.451 103.924 29.811L104.516 31.053L104.566 31.001C104.926 30.741 105.106 30.328 105.106 29.707C104.951 29.527 104.926 29.345 104.806 29.164C104.651 28.904 104.306 28.776 104.11 28.569H104.104Z" fill="#00678C"/>
<path d="M76.6221 70.375H86.2971C87.4291 70.375 88.5111 70.143 89.3851 69.728C90.8521 69.055 91.5471 68.15 91.5471 66.96V64.477C91.5471 63.52 90.7491 62.614 89.1551 61.994C88.3311 61.694 87.3021 61.502 86.2981 61.502H82.2331C80.8691 61.502 80.2261 61.087 80.0451 60.182C80.0201 60.079 80.0201 59.975 80.0201 59.882V58.355C80.0201 58.277 80.0201 58.175 80.0451 58.071C80.2251 57.371 80.5851 57.1911 81.7691 57.0611H91.6761V54.809H82.2561C80.8921 54.809 80.1721 54.8871 79.5291 55.0941C77.5471 55.7141 76.6721 56.698 76.6721 58.43V60.397C76.6721 61.923 78.3701 63.217 81.2521 63.5271C81.5621 63.5531 81.8951 63.5531 82.2301 63.5531H85.7041C85.8341 63.5531 85.9611 63.553 86.0641 63.579C87.1191 63.682 87.5841 63.8631 87.8911 64.2491C88.0971 64.456 88.1491 64.6371 88.1491 64.8711V66.837C88.1491 67.069 87.9941 67.381 87.6861 67.639C87.3781 67.897 86.8861 68.0791 86.2441 68.1051C86.1141 68.1051 86.0391 68.131 85.9091 68.131H76.6211V70.381L76.6221 70.375ZM112.492 66.4691C112.492 68.7721 114.216 70.065 117.665 70.324L118.643 70.3741H127.393V68.1241H118.567C116.61 68.1241 115.864 67.6321 115.864 66.4421V54.8H112.492L112.493 66.4681L112.492 66.4691ZM93.6921 66.572V58.552C93.6921 56.508 95.1321 55.265 97.9381 54.878L98.8381 54.826H105.218C105.553 54.826 105.836 54.852 106.171 54.878C108.976 55.265 110.391 56.508 110.391 58.552V66.572C110.391 68.227 109.801 69.1081 108.409 69.7021L111.703 72.7021H107.818L105.141 70.2721L102.438 70.4271H98.8361C98.2461 70.4271 97.5761 70.35 96.8801 70.169C94.7461 69.573 93.6801 68.435 93.6801 66.572H93.6921ZM97.3201 66.392C97.3201 66.495 97.3721 66.598 97.3981 66.728C97.5781 67.658 98.4521 68.1761 99.7901 68.1761H102.827L100.047 65.64H103.932L106.376 67.865C106.84 67.605 107.123 67.243 107.226 66.778C107.252 66.675 107.252 66.5461 107.252 66.4421V58.76C107.252 58.657 107.252 58.554 107.226 58.46C107.046 57.58 106.172 57.09 104.859 57.09H99.7891C98.2961 57.09 97.3191 57.7371 97.3191 58.7701V66.403L97.3201 66.392ZM128.946 70.4021H129.436V68.514H130.079V68.126H128.279V68.514H128.949V70.4021H128.946ZM132.676 70.4021H133.139V68.126H132.445L131.879 69.6791L131.262 68.126H130.592V70.4021H131.029V68.67H131.055L131.698 70.403H132.033L132.676 68.67V70.403V70.4021Z" fill="#CE8B2C"/>
</svg>
