<svg width="166" height="96" viewBox="0 0 166 96" fill="none" xmlns="http://www.w3.org/2000/svg">
<rect width="166" height="96" fill="white"/>
<path d="M59.7409 56.0549C54.6749 56.0549 52.1289 52.4129 52.1289 48.3719C52.1289 44.3559 54.7739 40.7389 59.7909 40.7389C61.7129 40.7389 63.0849 41.1629 64.2579 41.9109L62.8109 44.2809C61.9869 43.7569 61.0889 43.4329 59.7409 43.4329C57.0209 43.4329 55.5729 45.6029 55.5729 48.2969C55.5729 51.0669 56.9709 53.3609 59.7909 53.3609C61.3879 53.3609 62.3369 52.8109 63.1109 52.2379L64.4339 54.5079C63.6839 55.1809 61.9139 56.0539 59.7419 56.0539L59.7409 56.0549ZM70.4969 46.9749C68.8749 46.9749 68.3509 48.3469 68.3509 50.3429C68.3509 52.3389 69.0009 53.7609 70.6209 53.7609C72.2679 53.7609 72.8169 52.4139 72.8169 50.4179C72.7919 48.4219 72.1429 46.9749 70.4969 46.9749ZM70.5469 56.0549C66.7539 56.0549 65.1069 53.2109 65.1069 50.4169C65.1069 47.6229 66.7539 44.7039 70.5469 44.7039C74.3399 44.7039 76.0619 47.5239 76.0619 50.3169C76.0369 53.0869 74.3649 56.0549 70.5469 56.0549ZM80.8279 44.9799V51.9149C80.8279 52.9879 81.2019 53.5119 82.2259 53.5119C83.3239 53.5119 84.1459 52.4639 84.3719 52.2149V44.9799H87.4169V52.6129C87.4169 54.0349 87.5669 55.1329 87.7169 55.7809H84.6969C84.5969 55.4809 84.4969 54.7829 84.4729 54.3339C83.8989 55.0819 82.7759 56.0299 80.9789 56.0299C78.5829 56.0299 77.7349 54.5079 77.7349 52.5129V44.9529H80.8299V44.9779L80.8279 44.9799ZM94.9279 56.0559C91.4339 56.0559 89.2879 53.7859 89.2879 50.3929C89.2879 46.7509 91.7079 44.7049 95.0279 44.7049C96.7749 44.7049 97.8229 45.2289 98.3479 45.5529L97.3749 47.6479C96.9009 47.3479 96.2019 47.0239 95.1289 47.0239C93.4319 47.0239 92.5339 48.3459 92.5339 50.3169C92.5339 52.2879 93.3819 53.7099 95.2039 53.7099C96.4519 53.7099 97.1739 53.2599 97.4999 53.0599L98.4229 55.1049C97.9229 55.4299 96.9259 56.0529 94.9289 56.0529L94.9279 56.0559ZM106.608 55.8059V48.8459C106.608 47.7729 106.234 47.2489 105.21 47.2489C104.112 47.2489 103.263 48.2719 103.04 48.5459V55.7799H99.9949V39.8149H103.04V46.2509C103.59 45.6509 104.637 44.7039 106.41 44.7039C108.806 44.7039 109.654 46.2259 109.654 48.2209V55.7809H106.609V55.8059H106.608ZM115.193 53.4359C115.393 53.5109 115.843 53.6599 116.64 53.6599C118.212 53.6599 119.186 52.5119 119.186 50.2919C119.186 48.2959 118.512 47.0989 116.966 47.0989C116.068 47.0989 115.369 47.6729 115.194 47.8969V53.4349L115.193 53.4359ZM115.193 39.8409V45.8279C115.693 45.3279 116.64 44.7049 117.838 44.7049C120.534 44.7049 122.43 46.5509 122.43 50.2929C122.43 54.0099 119.934 56.0559 116.63 56.0559C114.16 56.0559 112.662 55.4319 112.113 55.1829V39.8149H115.183V39.8399L115.193 39.8409ZM129.693 51.0409H129.319C127.647 51.0409 126.474 51.5409 126.474 52.7609C126.474 53.5339 127.098 53.8579 127.772 53.8579C128.795 53.8579 129.394 53.2599 129.692 52.9599V51.0399L129.693 51.0409ZM130.017 55.8059C129.917 55.5309 129.867 54.9829 129.842 54.6579C129.368 55.2319 128.345 56.0799 126.822 56.0799C124.975 56.0799 123.552 54.9829 123.552 53.0369C123.552 50.2169 126.447 49.1969 129.317 49.1969H129.691V48.5969C129.691 47.6989 129.317 47.1499 127.969 47.1499C126.571 47.1499 125.623 47.8729 125.224 48.1479L123.901 46.3019C124.551 45.7019 125.997 44.7299 128.318 44.7299C131.313 44.7299 132.735 45.8779 132.735 48.7699V52.5619C132.735 54.0589 132.885 55.1059 133.035 55.8049H130.015L130.017 55.8059ZM138.227 56.0559C136.28 56.0559 135.033 55.4819 134.359 55.0329L135.382 52.9129C135.806 53.2129 136.854 53.8109 138.052 53.8109C139.175 53.8109 139.799 53.4859 139.799 52.8879C139.799 52.1899 138.576 51.9899 137.029 51.2409C135.532 50.5179 134.659 49.6949 134.659 48.0479C134.659 46.0019 136.281 44.7049 138.752 44.7049C140.599 44.7049 141.747 45.2789 142.246 45.5529L141.198 47.6229C140.774 47.3729 139.925 46.9489 138.902 46.9489C137.879 46.9489 137.43 47.2989 137.43 47.8719C137.43 48.5699 138.428 48.7449 139.676 49.2439C141.373 49.9439 142.596 50.7409 142.596 52.5369C142.546 54.8569 140.899 56.0549 138.229 56.0549L138.227 56.0559ZM150.78 49.0709C150.755 47.8739 150.28 46.9009 148.983 46.9009C147.785 46.9009 147.086 47.6739 146.887 49.0709H150.78ZM149.632 53.8109C151.104 53.8109 151.902 53.3369 152.452 53.0629L153.425 55.0089C152.701 55.4089 151.603 56.0569 149.357 56.0569C145.713 56.0569 143.642 53.7869 143.642 50.3189C143.642 46.8759 146.012 44.7059 149.032 44.7059C152.452 44.7059 154.098 47.0759 153.724 51.1159H146.911C147.036 52.7359 147.884 53.8099 149.631 53.8099L149.632 53.8109Z" fill="black"/>
<path d="M26.6704 31.907C17.5604 31.907 10.1504 39.291 10.1504 48.421C10.1504 57.526 17.5374 64.935 26.6704 64.935C35.7804 64.935 43.1904 57.551 43.1904 48.421C43.1904 39.291 35.7804 31.907 26.6704 31.907ZM37.8264 51.315C37.8264 52.313 37.2524 53.185 36.1294 53.385C34.1824 53.735 30.0894 53.935 26.6694 53.935C23.2494 53.935 19.1574 53.735 17.2094 53.385C16.0864 53.185 15.5124 52.312 15.5124 51.315V44.88C15.5124 43.882 16.2864 42.96 17.2094 42.81C17.7834 42.71 19.1314 42.61 20.1794 42.61C20.5794 42.61 20.9034 42.91 20.9034 43.383V47.898L26.7034 47.773L32.5034 47.898V43.383C32.5034 42.909 32.8274 42.61 33.2274 42.61C34.2754 42.61 35.6234 42.71 36.1974 42.81C37.1454 42.96 37.8944 43.883 37.8944 44.88C37.8444 47 37.8444 49.17 37.8444 51.316L37.8264 51.315Z" fill="#ED2226"/>
</svg>
