<svg width="166" height="96" viewBox="0 0 166 96" fill="none" xmlns="http://www.w3.org/2000/svg">
<rect width="166" height="96" fill="white"/>
<path d="M50.4567 39.813L42.6637 42.44L35.8837 45.53L33.9867 46.047L32.4497 47.487L30.8497 48.861C30.288 49.3397 29.7715 49.8689 29.3067 50.442C28.7707 51.135 28.3467 51.872 28.1637 52.437C27.8397 53.459 27.9987 54.493 28.6237 55.437C29.4237 56.653 31.0207 57.894 32.8837 58.739C33.8317 59.171 35.4287 59.724 36.6297 60.034C38.6267 60.557 42.4897 61.124 44.6167 61.208H45.6467C45.6937 61.178 46.0237 60.528 46.4067 59.708C47.7147 56.953 48.6567 54.368 49.1697 52.161C49.4757 50.823 49.7177 49.041 49.8767 46.931C49.9233 45.8533 49.9313 44.7743 49.9007 43.696C49.8477 42.601 49.7537 41.713 49.6067 40.844C49.5827 40.716 49.5767 40.601 49.5887 40.594C49.6117 40.576 49.6827 40.551 50.6427 40.266L50.4487 39.792L50.4567 39.813ZM48.6767 40.89C48.7467 40.89 48.9367 42.757 48.9827 43.937C48.9947 44.187 48.9887 44.351 48.9767 44.351C48.9297 44.351 47.9817 43.773 47.3037 43.335L45.4197 42.04C45.3597 41.997 45.3667 41.99 45.8497 41.82L48.6767 40.89ZM44.7067 42.24C44.7597 42.24 44.8947 42.32 45.2187 42.526C46.4317 43.311 48.0817 44.259 48.7887 44.576C49.0067 44.673 49.0287 44.636 48.5287 44.99C47.4567 45.744 46.1187 46.486 44.4817 47.234L43.9457 47.471C43.9337 47.471 43.9687 47.319 44.0157 47.137C44.4107 45.623 44.6357 44.09 44.6457 42.862C44.6517 42.254 44.6517 42.254 44.7057 42.236V42.242L44.7067 42.24ZM43.8867 42.562C43.9217 42.598 43.8987 43.962 43.8517 44.332C43.7457 45.22 43.5817 46.047 43.3097 46.978L43.1747 47.404C43.1507 47.434 42.3447 46.619 42.0787 46.304C41.6187 45.757 41.2587 45.209 40.9947 44.674C40.8597 44.4 40.6477 43.864 40.6647 43.847C40.7587 43.78 43.8627 42.54 43.8867 42.564V42.562ZM40.0347 44.125C40.0647 44.143 40.1047 44.241 40.1407 44.35C40.3906 44.9902 40.7191 45.5968 41.1187 46.156C41.5187 46.703 42.0437 47.286 42.4787 47.67L42.7687 47.925C42.8037 47.962 42.8157 47.955 41.8557 48.332L38.1397 49.67L37.1447 50.005C37.0917 50.023 37.1097 49.993 37.2627 49.745C37.9527 48.632 39.0007 46.449 39.5897 44.905L39.8077 44.309C39.8317 44.224 39.8607 44.193 39.9377 44.151L40.0377 44.127L40.0347 44.125ZM38.8567 44.63C38.8747 44.642 38.5737 45.293 38.2797 45.89L36.2477 49.545L35.9537 50.025C35.9237 50.068 35.9137 50.055 35.8187 49.867C35.6187 49.46 35.4537 48.937 35.3647 48.457C35.2767 47.983 35.2947 47.157 35.3947 46.645C35.4707 46.268 35.4647 46.275 35.6417 46.183L38.8577 44.633L38.8567 44.63ZM49.0167 45.056V45.311C49.0033 46.8414 48.887 48.3692 48.6687 49.884L48.5987 50.322L48.2287 50.222C47.2879 49.9134 46.3801 49.5121 45.5187 49.024C44.9487 48.702 44.1167 48.172 44.1407 48.148C44.1467 48.142 44.3937 48.008 44.6827 47.85C45.8377 47.23 46.9447 46.56 47.9047 45.898L48.9247 45.138L49.0187 45.065L49.0167 45.056ZM34.4087 46.856C34.4327 46.856 34.4267 46.906 34.3907 47.124L34.3257 47.774C34.2787 48.662 34.4197 49.319 34.8437 50.219L35.0497 50.681C35.0097 50.718 31.1097 51.897 29.8837 52.244L29.1767 52.444C29.1367 52.456 29.1297 52.45 29.1467 52.347C29.2817 51.453 29.9417 50.285 30.8607 49.3C31.4193 48.6873 32.0738 48.1696 32.7987 47.767L34.4067 46.855L34.4087 46.856ZM43.5987 48.553C43.6047 48.547 43.7457 48.626 43.9167 48.729C45.1767 49.483 46.9327 50.183 48.4287 50.541L48.5647 50.571L48.3747 50.681C47.5917 51.131 45.0177 52.238 42.3747 53.254L41.5447 53.576C41.4747 53.606 41.4097 53.626 41.4097 53.619C41.4866 53.4573 41.567 53.2973 41.6507 53.139C42.3867 51.716 43.1307 49.983 43.5067 48.779L43.5897 48.554L43.5987 48.553ZM42.6617 48.869C42.6677 48.875 42.6217 49.003 42.5617 49.149C42.0497 50.432 41.3777 51.831 40.5177 53.399L40.1107 54.123C40.1047 54.123 39.9277 54.023 39.7157 53.88C38.4657 53.09 37.3597 52.116 36.6357 51.174L36.5297 51.04L37.0657 50.888C38.9857 50.348 40.6177 49.763 42.2377 49.045L42.6617 48.869ZM48.4817 50.967C48.4877 51.107 48.1867 52.36 47.9397 53.267L47.2327 55.675L46.9627 56.52C46.9364 56.5167 46.9106 56.5107 46.8857 56.502C45.1357 56.172 43.5697 55.717 42.0957 55.109L41.0587 54.635C41.0467 54.623 41.4007 54.453 41.8487 54.252L48.2637 51.077C48.3757 51.004 48.4637 50.967 48.4817 50.967ZM35.0457 51.441C35.0577 51.453 34.3097 52.566 33.2607 54.081L32.3127 55.461L31.7767 56.276L31.5287 56.671L31.2637 56.441C30.8681 56.0854 30.5016 55.6989 30.1677 55.285C29.6607 54.635 29.3197 53.947 29.1837 53.321C29.1187 53.029 29.1187 52.883 29.1777 52.865L35.0447 51.442L35.0457 51.441ZM35.7997 51.739L35.9877 51.959C36.7753 52.8827 37.7086 53.6714 38.7507 54.294C38.9407 54.394 39.0807 54.501 39.0687 54.507C39.0287 54.537 35.4287 55.857 33.7617 56.453L32.0477 57.067C32.0065 57.0435 31.9671 57.0171 31.9297 56.988L31.8237 56.908L31.9937 56.653C32.5477 55.826 33.2437 54.92 34.7567 53.033L35.7997 51.738V51.739ZM40.4997 55.212C40.5057 55.206 40.7647 55.302 41.0827 55.425C41.7958 55.7032 42.5255 55.9366 43.2677 56.124C44.3538 56.3992 45.4583 56.5964 46.5727 56.714C46.7027 56.726 46.7727 56.738 46.7497 56.757C46.7097 56.781 45.8427 57.079 45.2067 57.287L38.5797 59.307L37.6897 59.567C37.6297 59.579 37.4367 59.524 37.4367 59.5C37.4367 59.488 37.5767 59.3 37.7487 59.093C38.5967 58.047 39.4387 56.879 40.1407 55.773L40.5007 55.213L40.4997 55.212ZM39.4627 55.242C39.4687 55.248 39.0507 55.942 38.3197 57.132L37.5357 58.409L37.1407 59.079L36.9707 59.379L36.8827 59.355C36.1778 59.1159 35.4786 58.8605 34.7857 58.589C34.2957 58.389 33.7907 58.145 33.4127 57.939C32.9427 57.677 32.3527 57.289 32.3997 57.276C32.4117 57.27 33.2197 57.046 34.1897 56.771L39.1377 55.324L39.4617 55.234L39.4627 55.242ZM46.7957 57.018H46.8017C46.8257 57.078 45.8717 59.816 45.5237 60.678C45.4477 60.873 45.4177 60.921 45.3767 60.915C45.2767 60.909 43.8927 60.708 43.0497 60.581L38.5027 59.761L38.3627 59.731L39.2407 59.524L42.9507 58.557C44.1389 58.1816 45.2983 57.7204 46.4197 57.177L46.7967 57.019L46.7957 57.018Z" fill="url(#paint0_linear)"/>
<path d="M42.422 21.0579C42.292 21.0399 40.202 21.8179 38.852 22.3839C37.032 23.1499 35.618 23.8799 34.746 24.5139C34.422 24.7509 34.016 25.1709 33.951 25.3339C33.927 25.3939 33.916 25.4679 33.916 25.5409L34.706 26.3129L36.586 26.9329L41.056 27.7599L46.169 28.6659L46.222 28.2099C46.204 28.2099 46.192 28.2039 46.175 28.2039L45.503 28.1039L45.368 27.8539L43.46 23.9619C43.113 23.1419 42.783 22.1919 42.6 21.5119C42.5 21.0979 42.488 21.0739 42.423 21.0679L42.422 21.0579ZM42.328 21.3579H42.334C42.34 21.3639 42.364 21.5339 42.387 21.7349C42.487 22.5869 42.67 23.4069 42.957 24.2949C43.175 24.9649 43.175 24.9279 42.922 24.8479C42.322 24.6779 39.629 24.1979 37.68 23.9179L37.103 23.8279C37.079 23.8039 38.511 23.0309 39.141 22.7279L42.328 21.3599V21.3579ZM36.65 24.0829L36.88 24.1629C38.13 24.6009 41.268 25.2209 43 25.3669L43.365 25.4039C43.371 25.4099 43.205 25.5009 42.995 25.6039L40.605 26.9719C40.417 27.0939 40.245 27.1919 40.222 27.1919C40.199 27.1919 40.075 27.1679 39.945 27.1489L39.709 27.1119L39.119 26.5159L36.957 24.3689L36.651 24.0829H36.65ZM36.414 24.2709L37.244 25.3409L38.257 26.6359L38.434 26.8729C38.41 26.8909 37.232 26.6529 36.608 26.5079L35.306 26.1549L34.982 26.0549V25.9699C34.988 25.5629 35.489 24.9539 36.337 24.3339L36.414 24.2789V24.2709ZM43.471 25.7309C43.495 25.7309 43.524 25.7859 43.595 25.9509C43.795 26.4069 44.42 27.6359 44.573 27.8729C44.62 27.9529 44.703 27.9579 43.873 27.8179L41.233 27.3619C41.2737 27.3257 41.3192 27.2951 41.368 27.2709C41.988 26.9179 42.611 26.4679 43.165 25.9879L43.448 25.7449C43.454 25.7329 43.466 25.7269 43.472 25.7329L43.471 25.7309Z" fill="url(#paint1_linear)"/>
<path d="M33.9946 25.2478C33.9946 25.2478 33.8646 25.4608 33.9886 25.7778C34.0656 25.9728 34.2886 26.2098 34.5426 26.4528L37.4826 29.4688C38.9326 31.1958 39.5626 32.8988 39.6206 35.2458C39.6556 36.7538 39.3786 38.0798 38.6906 39.6188C37.4656 42.3788 34.8806 45.4268 30.8906 48.8088L31.4736 48.6088C31.8506 48.3168 32.3636 48.0068 33.5636 47.3258C36.3376 45.7558 39.4596 44.3258 43.2886 42.8318C48.8016 40.6918 57.8686 38.1858 63.0266 37.3718L63.5626 37.2868L63.4796 37.1528C63.0096 36.3988 62.6846 35.9308 62.2956 35.4328C61.1656 33.9858 59.7926 32.8128 58.1136 31.8388C55.8036 30.5068 52.8176 29.4668 49.0366 28.6948C48.3236 28.5488 46.7566 28.2688 45.4846 28.0688L39.1226 26.9988L36.7196 26.5428C36.3666 26.4628 35.6896 26.2998 35.1596 26.1108C34.7356 25.9408 34.1226 25.7708 33.9936 25.2528L33.9946 25.2478ZM35.5146 26.7678C35.5206 26.7618 35.6146 26.7978 35.7386 26.8408C35.9626 26.9208 36.2506 27.0108 36.5926 27.1088L37.3706 27.3218L38.0246 27.4978C38.0646 27.5408 38.6606 29.5048 38.8616 30.2578C38.9376 30.5438 38.9966 30.7878 38.9916 30.7878C38.9856 30.7938 38.9216 30.6908 38.8446 30.5508C38.1546 29.2978 37.0646 28.0268 35.8046 27.0048C35.6396 26.8828 35.5146 26.7748 35.5146 26.7678ZM38.4126 27.5948C38.4426 27.5948 38.5726 27.6128 38.7306 27.6498C39.7306 27.8798 41.5286 28.2338 42.6776 28.4348C42.8716 28.4648 43.0256 28.5018 43.0256 28.5148C43.0256 28.5278 42.9556 28.5698 42.8656 28.6178C42.6716 28.7208 41.8876 29.2018 41.6286 29.3838C40.9746 29.8338 40.3856 30.3208 39.9616 30.7578L39.6436 31.0798C39.6436 31.0798 39.6086 30.9768 39.5786 30.8498C39.3666 30.0048 38.9246 28.7518 38.5246 27.8698C38.4596 27.7298 38.4066 27.6018 38.4066 27.5898L38.4126 27.5958V27.5948ZM43.5126 28.5978C43.5476 28.6098 43.6066 28.8178 43.7246 29.2728C43.9426 30.1548 44.0426 31.1398 44.0076 32.0578C43.9956 32.3128 43.9836 32.5508 43.9726 32.5808L43.9546 32.6408L43.6486 32.5378C42.8081 32.2681 41.9637 32.0108 41.1156 31.7658C40.6156 31.6258 40.2086 31.4978 40.2086 31.4858C40.2086 31.4488 40.9386 30.6958 41.2516 30.4098C41.8466 29.8698 43.4616 28.5798 43.5136 28.5978H43.5126ZM43.9186 28.6578C43.9366 28.6398 46.3586 29.0718 47.4586 29.2908L49.5386 29.7408C49.5736 29.7528 49.4506 29.8258 49.0556 30.0088C47.5006 30.7328 46.3556 31.3828 45.1976 32.1738L44.6376 32.5508C44.6316 32.5508 44.6256 32.3748 44.6256 32.1608C44.6256 31.0058 44.4016 29.8378 43.9896 28.8528C43.9496 28.7558 43.9126 28.6628 43.9196 28.6578H43.9186ZM50.1786 29.9348C50.1966 29.9528 50.1186 30.4448 50.0486 30.7378C49.8366 31.6438 49.2656 32.9878 48.5646 34.2528C48.4406 34.4778 48.3286 34.6598 48.3166 34.6668C48.3046 34.6738 48.1466 34.5818 47.9636 34.4718C47.2806 34.0578 46.5036 33.6688 45.6536 33.3038C45.4176 33.2008 45.2116 33.1138 45.2056 33.1038C45.1656 33.0668 47.0606 31.7718 48.0626 31.1518C48.8576 30.6518 50.1526 29.9118 50.1776 29.9358L50.1786 29.9348ZM50.6266 30.0078C50.6796 30.0078 51.7516 30.3118 52.3116 30.4818C53.6956 30.9078 55.2866 31.5098 56.3216 31.9958L56.7516 32.1958L56.4516 32.2688C53.9186 32.8708 51.7516 33.5638 49.6596 34.4388C49.4896 34.5118 49.3356 34.5728 49.3236 34.5728C49.3116 34.5728 49.3706 34.4328 49.4476 34.2728C50.0776 32.8928 50.4846 31.4508 50.5846 30.2228C50.5906 30.1068 50.6086 30.0158 50.6246 30.0158L50.6266 30.0078ZM39.9536 32.5378C39.9716 32.5198 40.7896 32.7198 41.2316 32.8378C41.9016 33.0328 43.3286 33.5248 43.3286 33.5618C43.3286 33.5678 43.1686 33.7078 42.9816 33.8778C42.2096 34.5408 41.4676 35.2398 40.5786 36.1278C40.3136 36.3898 40.0886 36.6018 40.0786 36.6018C40.0686 36.6018 40.0606 36.5648 40.0666 36.5168C40.2016 35.4948 40.1726 34.1818 39.9846 32.8498C39.9666 32.6798 39.9496 32.5338 39.9546 32.5278L39.9536 32.5378ZM57.1596 32.5558C57.1716 32.5678 56.7826 33.2008 56.5356 33.5588C56.1826 34.0818 55.6636 34.7748 54.4916 36.2958L52.9506 38.3098L52.5146 38.8698C52.5086 38.8698 52.4326 38.7598 52.3496 38.6268C51.6896 37.6048 50.8996 36.7108 49.9636 35.9088L49.5276 35.5438C49.4626 35.4938 49.4096 35.4468 49.4096 35.4408C49.4096 35.4228 50.4096 34.9788 51.1696 34.6628C52.6485 34.0487 54.1518 33.4949 55.6756 33.0028C56.3886 32.7728 57.1486 32.5468 57.1596 32.5588V32.5558ZM57.6136 32.6778C57.6366 32.6718 57.7786 32.7448 57.9496 32.8478C59.3796 33.6928 60.7826 34.7818 61.8896 35.9008C62.2016 36.2168 62.9736 37.0438 62.9616 37.0508L62.3716 37.1008C59.8916 37.2958 56.7166 37.8368 53.6656 38.5968L53.2656 38.6868C53.2536 38.6868 53.4836 38.4498 53.7726 38.1638C55.5626 36.3818 56.3826 35.2568 57.3476 33.2498L57.6126 32.6778H57.6136ZM44.4956 34.0648C44.5786 34.0828 45.3436 34.4548 45.9206 34.7518C46.4506 35.0258 47.2456 35.4638 47.2876 35.4998C47.2936 35.5058 47.0106 35.6578 46.6636 35.8348C45.5566 36.4068 44.6076 36.9478 43.6186 37.5678L43.0946 37.8898C43.0706 37.8898 43.0766 37.8658 43.2346 37.5678C43.7646 36.5708 44.1886 35.3778 44.4306 34.2178C44.4536 34.1278 44.4776 34.0658 44.4956 34.0658V34.0648ZM43.7296 34.2108C43.7476 34.2288 43.5466 34.9768 43.4236 35.3848C43.1492 36.2369 42.8002 37.0631 42.3806 37.8538L42.0686 38.4138L41.9216 38.6568L41.5916 38.3288C41.2086 37.9458 40.8966 37.7088 40.4956 37.4958C40.3356 37.4108 40.2126 37.3378 40.2126 37.3258C40.2126 37.2758 41.2196 36.3358 41.9926 35.6538C42.5466 35.1608 43.7126 34.1938 43.7306 34.2138L43.7296 34.2108ZM48.4126 36.2008L48.7026 36.3958C49.3626 36.8398 50.1396 37.4298 50.7346 37.9458C51.0706 38.2318 51.7186 38.8338 51.8476 38.9798L51.9176 39.0598L51.4406 39.1998C48.7426 39.9718 46.6576 40.6598 44.2246 41.5838C43.9546 41.6868 43.7246 41.7718 43.7066 41.7718C43.6716 41.7718 43.6416 41.8018 44.2486 41.2248C45.8036 39.7468 47.1816 38.1168 48.2066 36.5298L48.4126 36.2018V36.2008ZM47.1826 36.5168C47.1946 36.5288 46.3876 37.7028 45.9046 38.3668C45.3276 39.1568 44.3026 40.4828 43.5946 41.3468L43.0346 42.0098C43.0166 42.0158 43.0106 41.9248 43.0106 41.7848C43.0106 41.0488 42.8276 40.2648 42.5106 39.5948C42.3756 39.3148 42.3506 39.2478 42.3806 39.2178C42.4926 39.1148 44.2066 38.1048 45.2806 37.5028C46.0106 37.1028 47.1536 36.5058 47.1706 36.5178L47.1826 36.5168ZM39.7376 38.4018C39.7556 38.4018 39.8906 38.4748 40.0436 38.5598C40.403 38.7619 40.7422 38.998 41.0566 39.2648C41.0686 39.2768 40.9166 39.4048 40.7146 39.5568C40.1546 39.9708 39.3066 40.6328 38.8126 41.0408C38.2946 41.4668 38.2766 41.4788 38.3356 41.3878C38.7256 40.7738 38.9186 40.4278 39.1256 39.9828C39.3086 39.5878 39.4906 39.1188 39.6206 38.7128C39.6676 38.5368 39.7266 38.4128 39.7386 38.4128L39.7376 38.4018ZM41.7226 40.0068C41.7526 40.0008 41.7876 40.0568 41.9466 40.2988C42.2826 40.8158 42.5416 41.4988 42.6066 42.0688L42.6186 42.1908L41.8116 42.5128C40.3686 43.0908 39.0376 43.6628 38.1356 44.0878L37.1516 44.5748C36.8616 44.7268 36.6276 44.8428 36.6276 44.8348C36.6276 44.8268 36.8106 44.6888 37.0336 44.5188C38.7936 43.1988 40.3206 41.7518 41.4636 40.3048L41.7106 40.0068H41.7226ZM40.8096 40.2368C40.8336 40.2608 40.1616 41.0468 39.7026 41.5268C38.5656 42.7248 37.4406 43.6618 36.0446 44.5738L35.6916 44.8038C35.6516 44.8278 35.7036 44.7668 36.3156 44.0798C36.7056 43.6478 36.9986 43.2828 37.3356 42.8328C37.5596 42.5348 37.6006 42.4928 37.9256 42.2548C38.7916 41.6098 40.7886 40.2118 40.8116 40.2348L40.8096 40.2368Z" fill="url(#paint2_radial)"/>
<path d="M84.4401 45.182L84.0701 45.194C81.5721 45.328 79.8871 46.43 78.9001 48.594C78.0571 50.542 78.1501 53.088 78.9101 55.048C79.7941 56.963 81.2221 57.973 83.6061 58.355C84.1101 58.438 84.4491 58.715 85.4261 59.86L86.6281 61.273H88.8081L87.3581 59.807L85.9081 58.242C85.9081 58.182 86.2151 58.046 86.5861 57.942C87.8091 57.572 88.8261 56.622 89.5361 55.17C90.1111 54.003 90.1941 53.643 90.2761 52.19C90.4921 47.87 88.2211 45.17 84.4391 45.19V45.191L84.4401 45.182ZM86.3501 56.48C85.2901 56.995 83.7501 57.098 82.7441 56.728C81.7041 56.345 80.6981 55.262 80.2461 54.038C79.7431 52.698 79.8161 50.225 80.3901 49.111C81.3151 47.338 82.5381 46.521 84.3261 46.521C86.9761 46.521 88.4861 48.151 88.6831 51.221C88.8391 53.777 87.9851 55.694 86.3531 56.488L86.3521 56.489L86.3501 56.48ZM124.01 48.873C123.096 48.873 122.396 49.243 121.924 49.976L121.554 50.556V49.05H119.971V58.08H121.553V55.194C121.553 52.554 121.586 52.246 121.953 51.524C122.46 50.524 123.333 50.04 124.173 50.276L124.739 50.441V48.876H124.009V48.874L124.01 48.873ZM114.712 48.79C114.412 48.79 114.072 48.83 113.746 48.904C111.628 49.459 110.436 51.492 110.508 53.584C110.508 55.336 110.848 56.212 111.69 57.13C113.416 58.55 114.978 58.664 117.085 57.902L117.835 57.572V56.152L117.085 56.552C115.38 57.297 114.085 57.297 113.065 56.42C112.409 55.75 112.12 54.946 111.987 54.03H118.367V52.8C118.367 50.318 116.867 48.75 114.709 48.79H114.71H114.712ZM112.132 52.75C112.132 52.75 112.368 51.202 113.232 50.594C113.634 50.3076 114.115 50.1532 114.608 50.152C115.082 50.152 115.554 50.306 115.944 50.605C116.744 51.223 116.88 52.739 116.88 52.739H112.12V52.751L112.132 52.75ZM73.9801 51.12C72.2641 50.077 71.5031 49.326 71.5961 48.44C71.8621 45.987 74.8841 46.327 76.5561 47.255L76.5681 45.605C76.5681 45.605 75.6431 45.203 74.3181 45.182C72.2841 45.152 70.9681 45.82 70.3531 47.182C69.4481 49.192 70.2491 50.707 73.1461 52.397C74.7721 53.347 75.4911 54.17 75.4911 55.067C75.4911 56.923 73.2611 57.571 70.9591 56.407L70.0631 55.973C69.9801 56.499 70.0231 57.758 70.0231 57.758C70.0231 57.758 70.7301 58.056 71.7911 58.261C74.4211 58.787 76.8151 57.549 77.0411 55.541C77.2381 53.655 76.5581 52.665 73.9811 51.121L73.9801 51.12ZM138.02 48.768C137.71 48.768 137.384 48.811 137.042 48.883C134.927 49.439 133.735 51.473 133.817 53.563C133.817 55.313 134.155 56.18 134.997 57.097C136.723 58.519 138.285 58.634 140.403 57.87L141.151 57.542V56.12L140.401 56.512C138.691 57.254 137.408 57.254 136.383 56.377C135.723 55.707 135.437 54.914 135.303 53.987H141.673V52.77C141.673 50.3 140.173 48.73 138.015 48.773L138.019 48.77L138.02 48.768ZM135.44 52.728C135.44 52.728 135.678 51.182 136.55 50.563C136.951 50.2758 137.432 50.121 137.925 50.12C138.395 50.12 138.871 50.274 139.261 50.574C140.061 51.192 140.197 52.718 140.197 52.718H135.44V52.728ZM106.43 51.14C104.714 50.1 103.955 49.346 104.047 48.46C104.313 46.006 107.335 46.347 109.007 47.275L109.019 45.625C109.019 45.625 108.094 45.223 106.769 45.205C104.735 45.175 103.419 45.843 102.803 47.205C101.899 49.215 102.711 50.73 105.598 52.42C107.222 53.368 107.941 54.18 107.941 55.08C107.941 56.936 105.711 57.594 103.411 56.42L102.515 55.99C102.432 56.516 102.475 57.775 102.475 57.775C103.045 57.9922 103.633 58.1605 104.231 58.278C106.864 58.805 109.258 57.568 109.483 55.558C109.679 53.681 109 52.692 106.431 51.146V51.144L106.43 51.14ZM147.318 48.84C146.404 48.84 145.695 49.212 145.232 49.944L144.862 50.521V49.018H143.279V58.046H144.859V55.17C144.859 52.532 144.891 52.222 145.259 51.5C145.766 50.51 146.639 50.016 147.479 50.253L148.045 50.418V48.85H147.315L147.318 48.84ZM93.8441 51.078V45.326H92.2501V58.066H98.9501V56.561H93.8361V51.078H93.8441ZM130.744 52.871L129.429 56.304L128.164 52.854L126.88 49.029H125.247L128.617 58.069H130.127L133.712 49.031H132.152L130.745 52.874L130.744 52.871ZM97.5221 41.865C97.7791 41.865 97.9921 41.782 98.1701 41.605C98.3481 41.428 98.4361 41.225 98.4361 40.967C98.4361 40.709 98.3441 40.494 98.1701 40.329C97.9961 40.164 97.7901 40.081 97.5341 40.081C97.2781 40.081 97.0601 40.164 96.8861 40.339C96.8017 40.4219 96.7353 40.5214 96.691 40.6312C96.6468 40.741 96.6257 40.8587 96.6291 40.977C96.6291 41.237 96.7121 41.452 96.8861 41.615C97.0511 41.78 97.2661 41.863 97.5221 41.863V41.865ZM96.9561 40.399C97.1091 40.245 97.2961 40.174 97.5331 40.174C97.7571 40.174 97.9331 40.244 98.0991 40.399C98.2651 40.554 98.3351 40.739 98.3351 40.966C98.3351 41.193 98.2531 41.389 98.0991 41.543C98.0252 41.6174 97.9369 41.6759 97.8395 41.7149C97.7422 41.754 97.6379 41.7727 97.5331 41.77C97.4281 41.7739 97.3235 41.7557 97.226 41.7166C97.1285 41.6775 97.0403 41.6184 96.9671 41.543C96.8141 41.389 96.7311 41.193 96.7311 40.966C96.7311 40.739 96.8011 40.552 96.9551 40.399H96.9561ZM97.3361 41.049H97.4401C97.5131 41.049 97.5851 41.119 97.6461 41.255L97.7701 41.535H97.9641L97.8111 41.235C97.7491 41.111 97.6871 41.039 97.6151 41.019C97.7051 40.999 97.7781 40.967 97.8291 40.906C97.8811 40.853 97.8991 40.781 97.8991 40.699C97.8991 40.604 97.8691 40.534 97.8071 40.482C97.7371 40.422 97.6231 40.392 97.4771 40.392H97.1501V41.547H97.3151V41.062H97.3351L97.3361 41.049ZM97.3361 40.512H97.4801C97.5841 40.512 97.6571 40.532 97.6971 40.564C97.7371 40.596 97.7471 40.634 97.7471 40.708C97.7471 40.842 97.6641 40.904 97.5111 40.904H97.3341V40.512H97.3361ZM70.9791 40.946L70.9591 40.069H70.9691C70.9991 40.2281 71.0436 40.3841 71.1021 40.535L72.6341 43.968H72.8911L74.4231 40.505C74.4779 40.3638 74.5223 40.2187 74.5561 40.071H74.5681L74.5281 40.949V43.979H75.0521V39.476H74.3941L72.9861 42.608L72.7701 43.164H72.7501C72.7201 43.042 72.6481 42.857 72.5451 42.63L71.1691 39.466H70.4691V43.969H70.9731V40.949L70.9811 40.947L70.9791 40.946ZM76.1991 40.954H76.6521V43.759H76.2001V40.954H76.1991ZM76.4251 39.926C76.5191 39.926 76.5991 39.894 76.6611 39.831C76.7231 39.768 76.7651 39.689 76.7651 39.595C76.7651 39.501 76.7351 39.42 76.6621 39.359C76.6308 39.3281 76.5936 39.3038 76.5527 39.2875C76.5118 39.2711 76.4681 39.2632 76.4241 39.264C76.3321 39.264 76.2501 39.296 76.1881 39.359C76.1261 39.422 76.0841 39.503 76.0841 39.595C76.0841 39.698 76.1161 39.77 76.1881 39.831C76.2601 39.892 76.3321 39.926 76.4241 39.926H76.4251ZM79.8781 43.821V43.327C79.6526 43.5043 79.3749 43.602 79.0881 43.605C78.7581 43.605 78.4911 43.492 78.2951 43.275C78.0991 43.058 77.9971 42.761 77.9971 42.388C77.9971 41.988 78.1011 41.688 78.3151 41.452C78.5211 41.225 78.7891 41.112 79.1151 41.112C79.3821 41.112 79.6391 41.195 79.8751 41.36V40.834C79.6591 40.721 79.4131 40.668 79.1351 40.668C78.6211 40.668 78.2211 40.834 77.9211 41.153C77.6211 41.472 77.4711 41.906 77.4711 42.43C77.4711 42.896 77.6041 43.287 77.8711 43.586C78.1611 43.893 78.5291 44.049 78.9711 44.049C79.3211 44.039 79.6071 43.966 79.8551 43.822L79.8781 43.821ZM81.1731 42.326C81.1731 41.956 81.2551 41.656 81.4091 41.451C81.5531 41.266 81.7271 41.171 81.9331 41.171C82.1071 41.171 82.2311 41.203 82.3231 41.275V40.738C82.2531 40.708 82.1501 40.698 82.0171 40.698C81.8366 40.698 81.6617 40.7605 81.5221 40.875C81.3691 40.997 81.2461 41.182 81.1741 41.419H81.1621V40.761H80.6491V43.976H81.1631V42.326H81.1731ZM84.1231 44.04C84.6061 44.04 84.9951 43.884 85.2831 43.574C85.5711 43.264 85.7131 42.854 85.7131 42.337C85.7131 41.811 85.5811 41.409 85.3131 41.11C85.0451 40.811 84.6771 40.667 84.1931 40.667C83.7091 40.667 83.3211 40.811 83.0331 41.09C82.7231 41.397 82.5631 41.83 82.5631 42.388C82.5631 42.873 82.6951 43.275 82.9631 43.574C83.2501 43.874 83.6311 44.038 84.1131 44.038L84.1231 44.04ZM83.3931 41.42C83.5891 41.213 83.8461 41.12 84.1631 41.12C84.4931 41.12 84.7401 41.223 84.9231 41.42C85.1081 41.636 85.2001 41.945 85.2001 42.357C85.2001 42.749 85.1171 43.057 84.9431 43.265C84.7691 43.481 84.5131 43.595 84.1731 43.595C84.0266 43.6004 83.8807 43.5736 83.7458 43.5164C83.6108 43.4592 83.4901 43.373 83.3921 43.264C83.1981 43.047 83.1041 42.749 83.1041 42.356C83.0841 41.956 83.1871 41.646 83.3921 41.419L83.3931 41.42ZM87.9651 43.76C88.1611 43.585 88.2651 43.36 88.2651 43.1C88.2651 42.864 88.1821 42.667 88.0291 42.513C87.9041 42.389 87.7111 42.277 87.4321 42.163C87.1841 42.059 87.0321 41.967 86.9491 41.895C86.905 41.8522 86.8705 41.8006 86.8476 41.7436C86.8246 41.6866 86.8139 41.6254 86.8161 41.564C86.8147 41.5025 86.8278 41.4416 86.8543 41.3862C86.8809 41.3307 86.9203 41.2824 86.9691 41.245C87.0731 41.162 87.2051 41.122 87.3811 41.122C87.6581 41.122 87.8951 41.195 88.1111 41.35V40.835C87.9041 40.731 87.6791 40.681 87.4211 40.681C87.0911 40.681 86.8131 40.771 86.6081 40.948C86.3921 41.123 86.2901 41.35 86.2901 41.618C86.2901 41.854 86.3601 42.051 86.4951 42.195C86.6081 42.318 86.8021 42.443 87.0701 42.555C87.3271 42.669 87.5001 42.771 87.5941 42.855C87.6881 42.939 87.7271 43.041 87.7271 43.162C87.7271 43.462 87.5221 43.617 87.1211 43.617C86.8111 43.617 86.5351 43.515 86.2881 43.31V43.865C86.5121 44 86.7811 44.061 87.0881 44.061C87.4681 44.041 87.7681 43.948 87.9721 43.761H87.9751L87.9651 43.76ZM90.4111 40.668C89.9281 40.668 89.5391 40.812 89.2511 41.091C88.9451 41.398 88.7811 41.831 88.7811 42.389C88.7811 42.874 88.9141 43.276 89.1811 43.575C89.4711 43.875 89.8491 44.039 90.3311 44.039C90.8261 44.039 91.2031 43.883 91.4911 43.573C91.7791 43.263 91.9231 42.853 91.9231 42.337C91.9231 41.811 91.7891 41.409 91.5231 41.11C91.2451 40.81 90.8751 40.667 90.4031 40.667L90.4011 40.668H90.4111ZM91.4081 42.368C91.4081 42.76 91.3261 43.068 91.1511 43.276C90.9771 43.492 90.7211 43.606 90.3811 43.606C90.2346 43.6114 90.0887 43.5846 89.9538 43.5274C89.8188 43.4702 89.6981 43.3841 89.6001 43.275C89.4061 43.058 89.3131 42.76 89.3131 42.367C89.3131 41.953 89.4161 41.634 89.6231 41.419C89.8171 41.213 90.0731 41.119 90.3931 41.119C90.7131 41.119 90.9671 41.223 91.1531 41.419C91.3181 41.646 91.4101 41.954 91.4101 42.367H91.4111L91.4081 42.368ZM92.7961 43.978H93.3091V41.194H94.0591V40.761H93.3091V40.265C93.3091 39.815 93.4831 39.587 93.8441 39.587C93.9641 39.587 94.0891 39.617 94.1811 39.67V39.206C94.0891 39.166 93.9651 39.156 93.8111 39.156C93.5341 39.156 93.3081 39.239 93.1231 39.414C92.9071 39.62 92.7931 39.887 92.7931 40.249V40.776H92.2511V41.209H92.7931V43.982L92.7971 43.98L92.7961 43.978ZM94.9021 43.101C94.9021 43.731 95.1791 44.051 95.7451 44.051C95.9501 44.051 96.1051 44.018 96.2281 43.945V43.5C96.1341 43.57 96.0221 43.604 95.8981 43.604C95.7241 43.604 95.6011 43.562 95.5281 43.469C95.4551 43.376 95.4141 43.221 95.4141 43.006V41.192H96.2271V40.759H95.4141V39.8L94.9001 39.965V40.747H94.3461V41.18H94.9001V43.087L94.9011 43.088L94.9021 43.101ZM150.052 49.028C149.968 48.9464 149.868 48.8824 149.759 48.8398C149.65 48.7972 149.533 48.7769 149.416 48.78C149.156 48.78 148.942 48.863 148.768 49.04C148.594 49.217 148.511 49.44 148.511 49.678C148.511 49.936 148.594 50.151 148.767 50.316C148.94 50.481 149.157 50.564 149.415 50.564C149.535 50.5674 149.654 50.5463 149.766 50.5019C149.877 50.4576 149.978 50.3909 150.063 50.306C150.148 50.2234 150.216 50.1242 150.262 50.0144C150.307 49.9047 150.33 49.7868 150.328 49.668C150.318 49.408 150.225 49.193 150.051 49.028H150.052ZM149.97 50.246C149.896 50.3205 149.808 50.379 149.711 50.4177C149.613 50.4564 149.509 50.4746 149.404 50.471C149.18 50.471 149.004 50.401 148.838 50.246C148.672 50.091 148.602 49.896 148.602 49.666C148.602 49.436 148.672 49.256 148.828 49.099C148.984 48.942 149.166 48.874 149.403 48.874C149.627 48.874 149.803 48.944 149.969 49.099C150.045 49.1726 150.105 49.2608 150.145 49.3583C150.186 49.4558 150.206 49.5604 150.205 49.666C150.205 49.906 150.135 50.089 149.969 50.246H149.97ZM149.508 49.72C149.6 49.7 149.673 49.657 149.724 49.607C149.775 49.557 149.794 49.482 149.794 49.399C149.794 49.307 149.764 49.233 149.702 49.183C149.632 49.123 149.517 49.093 149.372 49.093H149.044V50.247H149.209V49.762H149.311C149.381 49.762 149.453 49.832 149.516 49.968L149.638 50.246H149.834L149.681 49.946C149.628 49.811 149.567 49.75 149.504 49.73L149.506 49.733L149.508 49.72ZM149.395 49.616H149.218V49.216H149.363C149.466 49.216 149.537 49.236 149.579 49.266C149.621 49.296 149.629 49.336 149.629 49.41C149.629 49.544 149.547 49.605 149.393 49.605H149.394L149.395 49.616ZM120.725 40.629H120.869V39.474H121.249V39.33H120.344V39.474H120.724V40.629H120.725ZM121.597 39.761L121.589 39.505C121.599 39.565 121.619 39.608 121.629 39.639L122.071 40.639H122.141L122.584 39.639L122.624 39.515C122.614 39.618 122.614 39.7 122.614 39.763V40.638H122.767V39.34H122.582L122.182 40.236C122.172 40.268 122.142 40.331 122.122 40.402H122.11C122.102 40.362 122.08 40.319 122.05 40.248L121.65 39.34H121.443V40.64H121.588V39.772H121.596L121.597 39.761Z" fill="#231F1F"/>
<defs>
<linearGradient id="paint0_linear" x1="33.8633" y1="56.5283" x2="36.6008" y2="54.8578" gradientUnits="userSpaceOnUse">
<stop stop-color="#909CA9"/>
<stop offset="1" stop-color="#EDEDEE"/>
</linearGradient>
<linearGradient id="paint1_linear" x1="33.9367" y1="24.85" x2="36.2043" y2="24.85" gradientUnits="userSpaceOnUse">
<stop stop-color="#939FAB"/>
<stop offset="1" stop-color="#DCDEE1"/>
</linearGradient>
<radialGradient id="paint2_radial" cx="0" cy="0" r="1" gradientUnits="userSpaceOnUse" gradientTransform="translate(-27.6906 -41.1807) rotate(-167.862) scale(2.95679 2.89429)">
<stop stop-color="#EE352C"/>
<stop offset="1" stop-color="#A91D22"/>
</radialGradient>
</defs>
</svg>
