<svg width="166" height="96" viewBox="0 0 166 96" fill="none" xmlns="http://www.w3.org/2000/svg">
<rect width="166" height="96" fill="white"/>
<path d="M139.04 44.5301C138.923 44.5531 138.806 44.8131 138.806 44.9541L138.759 50.0921C138.759 50.1391 138.829 50.2321 138.899 50.2321L140.819 50.2791C141.827 50.2791 142.412 50.1391 142.741 49.9971C143.584 49.5731 143.983 48.6531 143.983 47.6401C143.983 45.3541 142.39 44.4821 140.023 44.4821C139.859 44.4591 139.391 44.4591 139.039 44.5291L139.04 44.5301ZM145.086 55.0651C145.086 52.7321 143.376 51.4351 140.283 51.4351C140.143 51.4351 139.158 51.4121 138.923 51.4581C138.853 51.4821 138.759 51.5281 138.759 51.6001L138.806 56.9731C138.853 57.4211 139.181 58.0571 139.579 58.2461C139.999 58.4821 140.961 58.5291 141.617 58.5291C143.467 58.5291 145.085 57.4921 145.085 55.0651H145.086ZM134.261 43.2351L137.001 43.3051L141.734 43.2581C143.772 43.2581 146.584 43.9881 146.584 47.0521C146.584 48.5601 145.53 49.7521 144.147 50.3521C144.077 50.3751 144.077 50.4221 144.147 50.4461C146.115 50.9411 147.849 52.1661 147.849 54.4761C147.849 56.7391 146.443 58.1761 144.405 59.0721C143.163 59.6141 141.617 59.8021 140.047 59.8021C138.852 59.8021 135.642 59.6621 133.861 59.7081C133.674 59.6381 134.025 58.7881 134.189 58.6481C134.611 58.6241 134.939 58.6011 135.384 58.4581C136.017 58.2931 136.087 58.1051 136.181 57.1381L136.228 51.3181V45.5901C136.205 44.8601 135.948 44.6241 135.431 44.4821L133.837 44.2471C133.72 44.1291 134.117 43.3271 134.259 43.2341L134.261 43.2351ZM120.741 57.8951C121.304 58.3421 122.405 58.5311 123.389 58.5311C124.654 58.5311 125.919 58.2961 127.139 57.1881C128.381 56.0581 129.249 54.3131 129.249 51.5321C129.249 48.8691 128.242 46.7001 126.179 45.4281C125.007 44.6981 123.509 44.3911 121.774 44.3911C121.259 44.3911 120.767 44.4141 120.462 44.5561C120.392 44.6031 120.228 44.8161 120.228 44.9331C120.181 45.4031 120.181 49.0331 120.181 51.1551L120.228 56.7651C120.228 57.1191 120.392 57.6611 120.743 57.8951H120.741ZM115.421 43.2351L118.397 43.3051L123.717 43.2351C126.06 43.2351 128.027 43.8711 129.434 45.0731C131.134 46.5581 132.034 48.6081 132.034 51.1061C132.034 54.6661 130.417 56.7161 128.8 57.8941C127.184 59.0961 125.075 59.8041 122.076 59.8041C120.483 59.8041 117.741 59.7571 115.468 59.7341H115.445C115.328 59.5221 115.632 58.6971 115.82 58.6741C116.43 58.6041 116.593 58.5801 116.898 58.4621C117.39 58.2721 117.484 58.0141 117.554 57.1421L117.601 51.3441L117.577 45.6881C117.507 44.8631 117.157 44.6511 116.452 44.5101L114.976 44.2751C114.882 44.1101 115.304 43.3791 115.421 43.2381V43.2351Z" fill="#8E714E"/>
<path d="M87.0705 58.8131C86.4846 58.7431 86.0635 58.6481 85.5475 58.4131C85.4775 58.3661 85.3596 58.1301 85.3596 58.0361L85.3125 53.2761C85.3125 52.0031 85.1025 50.8961 84.5625 50.1181C84.2646 49.6732 83.8594 49.3105 83.3844 49.0634C82.9094 48.8163 82.3799 48.6927 81.8446 48.7041C80.8146 48.7041 79.4315 49.4111 78.2825 50.4011C78.2595 50.4241 78.0726 50.5911 78.0956 50.3311C78.0956 50.0711 78.1426 49.5531 78.1656 49.2011C78.1895 48.8711 78.0015 48.7061 78.0015 48.7061C77.2515 49.0831 75.1436 49.5781 74.3696 49.6481C73.8076 49.7661 73.6665 50.3081 74.2525 50.4981H74.2756C74.9076 50.6861 75.3295 50.8981 75.6575 51.1111C75.8915 51.2991 75.8675 51.5591 75.8675 51.7711L75.8205 57.7341C75.7976 58.3241 75.6335 58.5341 75.2105 58.6291L75.2576 58.6061L74.2736 58.7941C74.1336 58.9341 74.1336 59.6901 74.2736 59.8541L77.0155 59.7841L79.7555 59.8541C79.9195 59.6661 79.9655 58.9581 79.8726 58.7941C79.4276 58.7711 79.0995 58.7241 78.7945 58.6291C78.3725 58.5351 78.2546 58.3231 78.2316 57.8291L78.1855 52.1491C78.1855 51.6541 78.3255 51.4191 78.4655 51.2771C79.0055 50.8071 79.8715 50.4771 80.6455 50.4771C81.3955 50.4771 81.8876 50.7131 82.2626 51.0191C82.7775 51.4431 82.9426 52.0561 83.0126 52.5041C83.1296 53.5171 83.0826 55.5211 83.0826 57.2641C83.0826 58.2071 83.0126 58.4421 82.6626 58.5601C82.4986 58.6301 82.0765 58.7251 81.5845 58.7721C81.4205 58.9371 81.4675 59.6681 81.5845 59.8321L84.2326 59.7621L86.9976 59.8321C87.1146 59.6921 87.1616 59.0071 87.0676 58.8181L87.0705 58.8131ZM93.5705 49.8101C92.3285 49.8101 91.5555 50.7761 91.5555 52.2841C91.5555 53.8161 92.2355 55.5841 94.1555 55.5841C94.4835 55.5841 95.0926 55.4441 95.3736 55.1141C95.8186 54.6901 96.1236 53.8411 96.1236 52.9461C96.1236 50.9901 95.1636 49.8121 93.5695 49.8121L93.5705 49.8101ZM93.4065 60.2271C92.9385 60.2271 92.6096 60.3671 92.3996 60.4871C91.4156 61.1231 90.9696 61.7371 90.9696 62.4671C90.9696 63.1501 91.2276 63.6921 91.7896 64.1641C92.4696 64.7541 93.4065 65.0361 94.6015 65.0361C97.0015 65.0361 98.0455 63.7401 98.0455 62.4661C98.0455 61.5701 97.6005 60.9811 96.6855 60.6511C96.0295 60.3681 94.8355 60.2271 93.4055 60.2271H93.4065ZM93.5705 66.3551C92.1405 66.3551 91.1105 66.0491 90.2206 65.3551C89.3535 64.6951 88.9785 63.7051 88.9785 63.0221C88.9785 62.8341 89.0255 62.3151 89.4485 61.8441C89.7055 61.5611 90.2685 61.0191 91.6045 60.1001C91.6515 60.0771 91.6746 60.0531 91.6746 60.0061C91.6746 59.9591 91.6276 59.9121 91.5806 59.8891C90.4806 59.4651 90.1505 58.7811 90.0575 58.4041V58.3571C90.0345 58.2171 89.9875 58.0741 90.1975 57.9331L90.8535 57.5091L91.9315 56.8021C91.9785 56.7551 91.9785 56.7081 91.9785 56.6621C91.9785 56.6161 91.9316 56.5681 91.8846 56.5441C90.2446 56.0021 89.4246 54.7761 89.4246 52.9381C89.4246 51.7361 89.9646 50.6521 90.9246 49.9681C91.5806 49.4501 93.2205 48.8131 94.2985 48.8131H94.3685C95.4685 48.8361 96.0686 49.0731 96.9455 49.3791C97.4156 49.5441 97.8596 49.6141 98.4686 49.6141C99.3826 49.6141 99.7806 49.3311 100.109 49.0021C100.133 49.0491 100.179 49.1671 100.203 49.4721C100.22 49.8568 100.113 50.237 99.8976 50.5561C99.7106 50.8161 99.2875 51.0041 98.8675 51.0041H98.7505L98.1405 50.9101L98.0475 50.9571C98.0245 51.0041 98.0476 51.0511 98.0705 51.1221L98.0946 51.1691C98.1416 51.3811 98.2346 52.0171 98.2346 52.1821C98.2346 54.1151 97.4615 54.9621 96.6415 55.5991C95.8445 56.1891 94.9416 56.5651 93.9016 56.6591C93.8786 56.6591 93.7845 56.6591 93.5735 56.6821C93.4565 56.6821 93.2935 56.7061 93.2685 56.7061H93.2456C93.0586 56.7531 92.5895 56.9891 92.5895 57.3891C92.5895 57.7421 92.7995 58.1671 93.8075 58.2391L94.4635 58.2861C95.7995 58.3801 97.4636 58.4981 98.2355 58.7561C98.7551 58.9404 99.2038 59.2827 99.5189 59.735C99.834 60.1873 99.9996 60.7269 99.9925 61.2781C99.9925 63.0221 98.7506 64.6481 96.6886 65.6621C95.711 66.1109 94.6482 66.3442 93.5725 66.3461L93.5705 66.3551ZM106.926 49.9281C106.434 49.9281 105.989 50.0451 105.661 50.2811C104.747 50.8471 104.279 51.9781 104.279 53.6281C104.279 56.7161 105.825 58.8841 108.029 58.8841C108.685 58.8841 109.201 58.6941 109.646 58.3181C110.326 57.7521 110.676 56.6211 110.676 55.0421C110.676 51.9781 109.153 49.9281 106.926 49.9281ZM107.348 60.0151C103.365 60.0151 101.935 57.0691 101.935 54.3121C101.935 52.3791 102.708 50.8951 104.255 49.8341C105.355 49.1511 106.669 48.7741 107.84 48.7741C110.886 48.7741 113.018 50.9661 113.018 54.1241C113.018 56.2691 112.175 57.9641 110.558 59.0021C109.785 59.5201 108.448 60.0151 107.358 60.0151H107.348ZM65.5855 49.9281C65.0935 49.9281 64.6485 50.0461 64.3205 50.2811C63.4065 50.8471 62.9385 51.9781 62.9385 53.6281C62.9385 56.7161 64.4846 58.8841 66.6886 58.8841C67.3446 58.8841 67.8605 58.6941 68.3055 58.3181C68.9855 57.7521 69.3355 56.6211 69.3355 55.0421C69.3355 51.9781 67.8355 49.9281 65.5855 49.9281ZM66.0076 60.0151C62.0246 60.0151 60.5946 57.0691 60.5946 54.3121C60.5946 52.3791 61.3675 50.8951 62.9146 49.8341C64.0146 49.1511 65.3286 48.7741 66.4995 48.7741C69.5455 48.7741 71.6776 50.9661 71.6776 54.1241C71.6776 56.2691 70.8346 57.9641 69.2176 59.0021C68.4676 59.5201 67.1325 60.0151 66.0175 60.0151H66.0076ZM39.2255 59.7791C39.1785 59.7091 39.1315 59.4961 39.1555 59.2371C39.1518 59.1156 39.1757 58.9949 39.2255 58.8841C39.7175 58.8141 39.9756 58.7421 40.2556 58.6721C40.7256 58.5541 40.9116 58.2951 40.9356 57.7061L40.9825 51.7061C40.9825 51.4941 40.9825 51.2361 40.7245 51.0461C40.3495 50.8111 39.9046 50.5991 39.3186 50.4331C39.1086 50.3631 38.9686 50.2451 38.9906 50.1031C38.9906 49.9631 39.1306 49.7971 39.4356 49.7491C40.2086 49.6791 42.2236 49.1841 43.0206 48.8291C43.0676 48.8761 43.1376 49.0191 43.1376 49.2061L43.1145 49.4661L43.0676 50.3381C43.0676 50.4321 43.1616 50.5031 43.2546 50.5031C43.3016 50.5031 43.3486 50.4801 43.3946 50.4561C44.8946 49.2781 46.2525 48.8531 46.9545 48.8531C48.1025 48.8531 48.9946 49.3951 49.6726 50.5261C49.7196 50.5961 49.7665 50.6201 49.8365 50.6201C49.8835 50.6201 49.9536 50.5971 49.9766 50.5501C51.3596 49.4901 52.7415 48.8531 53.6565 48.8531C55.8365 48.8531 57.1245 50.4791 57.1245 53.2371L57.1016 55.9371L57.0785 58.0571C57.0785 58.1741 57.2425 58.5521 57.4986 58.6221C57.8265 58.7871 58.2716 58.8581 58.8586 58.9521H58.8815C58.9286 59.1171 58.8346 59.7301 58.7416 59.8481C58.6016 59.8481 58.3895 59.8481 58.1555 59.8251L56.3755 59.7781L53.4455 59.8481C53.3996 59.6601 53.3756 59.0941 53.4455 58.9521C53.8675 58.8821 54.0785 58.8121 54.3355 58.7401C54.8055 58.6001 54.9215 58.3861 54.9455 57.7741L54.9006 52.5901C54.7606 51.6471 54.0576 50.5401 52.5006 50.5401C51.9145 50.5401 51.0005 50.7761 50.1005 51.4601C50.0535 51.5071 50.0066 51.6251 50.0066 51.6961V51.7201C50.1006 52.2151 50.1005 52.7801 50.1005 53.6531V57.9891C50.1005 58.5091 50.4055 58.6251 50.6625 58.7191L51.0126 58.7891L51.7626 58.9541C51.8096 59.0481 51.8095 59.3541 51.7395 59.6141C51.7155 59.7541 51.6696 59.8261 51.6456 59.8501L48.8336 59.8031L47.3575 59.8271L46.3036 59.8501C46.2796 59.8031 46.2336 59.6381 46.2336 59.3801C46.2336 59.1681 46.2805 59.0031 46.3275 58.9561C46.4445 58.9331 46.5375 58.9091 46.6555 58.9091L47.4055 58.7691C47.8055 58.6511 47.9455 58.4391 47.9675 57.9211C48.0375 56.7431 48.1076 53.3711 47.9446 52.5241C47.6646 51.1571 46.8905 50.4741 45.6485 50.4741C44.9225 50.4741 44.0086 50.8271 43.2486 51.3941C43.1316 51.4881 43.0385 51.7241 43.0385 51.9361V53.3261L43.0616 58.0631C43.0856 58.3451 43.1785 58.6761 43.7175 58.7931C43.8345 58.8161 44.0225 58.8631 44.2575 58.8871L44.6775 58.9571C44.7245 59.0971 44.7015 59.6641 44.6075 59.8531C44.3735 59.8531 44.0926 59.8301 43.7636 59.8301L41.9366 59.7831L40.0616 59.8301C39.7336 59.7831 39.4756 59.7831 39.1946 59.7831L39.2255 59.7791Z" fill="#442D22"/>
<path d="M26.9005 65.435L25.9405 65.105C25.9405 65.105 26.0575 60.18 24.3005 59.825C23.1305 58.458 24.4885 1.84798 28.7055 59.635C28.7055 59.635 27.2525 60.365 26.9955 61.615C26.7155 62.841 26.9015 65.433 26.9015 65.433L26.9005 65.435Z" fill="white"/>
<path d="M26.9005 65.435L25.9405 65.105C25.9405 65.105 26.0575 60.18 24.3005 59.825C23.1305 58.458 24.4885 1.84798 28.7055 59.635C28.7055 59.635 27.2525 60.365 26.9955 61.615C26.7155 62.841 26.9015 65.433 26.9015 65.433L26.9005 65.435Z" fill="#A6A385"/>
<path d="M27.4155 60.6751C27.4155 60.6751 35.8275 55.1131 33.8585 43.5411C31.9605 35.1281 27.4855 32.3711 26.9935 31.3111C26.4535 30.5571 25.9395 29.2371 25.9395 29.2371L26.2915 52.6391C26.2915 52.6631 25.5655 59.8041 27.4165 60.6761" fill="white"/>
<path d="M27.4155 60.6751C27.4155 60.6751 35.8275 55.1131 33.8585 43.5411C31.9605 35.1281 27.4855 32.3711 26.9935 31.3111C26.4535 30.5571 25.9395 29.2371 25.9395 29.2371L26.2915 52.6391C26.2915 52.6631 25.5655 59.8041 27.4165 60.6761" fill="#499D4A"/>
<path d="M25.448 60.9801C25.448 60.9801 17.552 55.5601 18.02 46.0151C18.465 36.4701 24.042 31.7801 25.12 30.9321C25.823 30.1781 25.846 29.8951 25.893 29.1421C26.385 30.2021 26.291 45.0021 26.361 46.7471C26.571 53.4641 25.986 59.7101 25.447 60.9821L25.448 60.9801Z" fill="white"/>
<path d="M25.448 60.9801C25.448 60.9801 17.552 55.5601 18.02 46.0151C18.465 36.4701 24.042 31.7801 25.12 30.9321C25.823 30.1781 25.846 29.8951 25.893 29.1421C26.385 30.2021 26.291 45.0021 26.361 46.7471C26.571 53.4641 25.986 59.7101 25.447 60.9821L25.448 60.9801Z" fill="#58AA50"/>
</svg>
