<svg width="166" height="96" viewBox="0 0 166 96" fill="none" xmlns="http://www.w3.org/2000/svg">
<rect width="166" height="96" fill="white"/>
<path d="M115.257 64.1301C111.521 66.0831 92.17 74.0601 88.05 76.2151C83.93 78.3701 81.64 78.3481 78.387 76.7881C75.134 75.2281 54.54 66.8871 50.83 65.1101C48.975 64.2201 48 63.4701 48 62.7621V55.6671C48 55.6671 74.81 49.8141 79.14 48.2671C83.47 46.7201 84.97 46.6541 88.653 48.0071C92.336 49.3601 114.36 53.3351 118 54.6721L117.998 61.6671C117.999 62.3671 117.158 63.1371 115.258 64.1311" fill="#912626"/>
<path d="M115.255 57.078C111.519 59.03 92.1695 67.01 88.0495 69.162C83.9295 71.314 81.6415 71.295 78.3865 69.735C75.1315 68.175 54.5385 59.833 50.8295 58.055C47.1205 56.277 47.0425 55.053 50.6865 53.622L79.1395 42.577C83.4675 41.02 84.9695 40.964 88.6525 42.317C92.3355 43.67 111.572 51.347 115.212 52.684C118.852 54.021 118.993 55.124 115.257 57.077" fill="#C6302B"/>
<path d="M115.257 52.6499C111.521 54.6029 92.17 62.5799 88.05 64.7359C83.93 66.8919 81.64 66.8679 78.387 65.3079C75.134 63.7479 54.54 55.4069 50.83 53.6299C48.975 52.7399 48 51.9899 48 51.2819V44.1859C48 44.1859 74.81 38.3339 79.14 36.7859C83.47 35.2379 84.97 35.1719 88.653 36.5259C92.336 37.8799 114.36 41.8529 118 43.1899L117.998 50.1859C117.999 50.8859 117.158 51.6559 115.258 52.6499" fill="#912626"/>
<path d="M115.255 45.597C111.52 47.549 92.1685 55.527 88.0495 57.682C83.9305 59.837 81.6415 59.814 78.3865 58.254C75.1315 56.694 54.5385 48.352 50.8295 46.574C47.1205 44.796 47.0425 43.572 50.6865 42.141L79.1395 31.097C83.4675 29.54 84.9695 29.484 88.6525 30.837C92.3355 32.19 111.572 39.867 115.212 41.204C118.852 42.541 118.993 43.644 115.257 45.597" fill="#C6302B"/>
<path d="M115.257 40.7441C111.521 42.6961 92.17 50.6741 88.05 52.8301C83.93 54.9861 81.64 54.9621 78.387 53.4021C75.134 51.8421 54.54 43.5001 50.83 41.7231C48.976 40.8331 48 40.0831 48 39.3761V32.2801C48 32.2801 74.81 26.4281 79.14 24.8701C83.47 23.3121 84.97 23.2571 88.653 24.6101C92.336 25.9631 114.36 29.9481 118 31.2851L117.998 38.2801C117.999 38.9801 117.158 39.7501 115.258 40.7441" fill="#912626"/>
<path d="M115.256 33.69C111.521 35.642 92.169 43.62 88.05 45.775C83.931 47.93 81.642 47.907 78.387 46.348C75.132 44.789 54.54 36.447 50.83 34.67C47.12 32.893 47.043 31.668 50.686 30.237L79.14 19.192C83.468 17.635 84.97 17.579 88.653 18.932C92.336 20.285 111.573 27.962 115.213 29.3C118.853 30.638 118.993 31.74 115.258 33.692" fill="#C6302B"/>
<path d="M91.5533 26.79L85.5353 27.417L84.1883 30.667L82.0123 27.039L75.0623 26.413L80.2473 24.538L78.6913 21.658L83.5463 23.562L88.1233 22.059L86.8863 25.035L91.5533 26.787V26.79ZM83.8293 42.56L72.5963 37.89L88.6913 35.413L83.8283 42.563L83.8293 42.56ZM68.2563 28.596C73.0063 28.596 76.8583 30.093 76.8583 31.94C76.8583 33.787 73.0083 35.284 68.2563 35.284C63.5043 35.284 59.6543 33.787 59.6543 31.94C59.6543 30.093 63.5043 28.596 68.2563 28.596Z" fill="white"/>
<path d="M98.668 27.678L108.193 31.453L98.676 35.223L98.668 27.677" fill="#621B1C"/>
<path d="M88.1289 31.858L98.6669 27.678L98.6749 35.224L97.6419 35.629L88.1289 31.859" fill="#9A2928"/>
</svg>
