<svg width="166" height="96" viewBox="0 0 166 96" fill="none" xmlns="http://www.w3.org/2000/svg">
<rect width="166" height="96" fill="white"/>
<path d="M116 49.6251C116.008 46.9443 115.19 44.3261 113.658 42.1264C112.125 39.9268 109.953 38.2524 107.435 37.3311C107.652 36.1511 107.76 34.9551 107.758 33.7561C107.758 23.4111 99.408 15.0161 89.118 15.0161C83.138 15.0161 77.536 17.8861 74.035 22.8161C72.311 21.4621 70.21 20.7581 68.002 20.7581C62.562 20.7581 58.09 25.1981 58.09 30.7231C58.09 31.9151 58.306 33.1061 58.682 34.1891C53.502 35.9771 50 40.9601 50 46.4841C50 52.0641 53.448 56.9371 58.62 58.8321C58.405 59.9691 58.297 61.1621 58.297 62.4061C58.297 72.7061 66.647 81.0911 76.882 81.0911C82.915 81.0911 88.464 78.1661 91.965 73.2911C93.689 74.6451 95.845 75.4031 98.052 75.4031C103.492 75.4031 107.964 70.9631 107.964 65.4381C107.964 64.2461 107.748 63.0551 107.372 61.9721C112.435 60.1321 115.992 55.1481 115.992 49.6241L116 49.6251Z" fill="white"/>
<path d="M75.8033 43.3969L90.5093 50.1669L105.377 37.0599C105.594 35.972 105.702 34.8652 105.7 33.7559C105.7 24.5489 98.2663 17.0759 89.1083 17.0759C83.6133 17.0759 78.4963 19.7839 75.4253 24.3329L72.9473 37.2329L75.8023 43.4069L75.8033 43.3969Z" fill="#F4BD19"/>
<path d="M60.5574 59.0499C60.3424 60.1329 60.2344 61.2699 60.2344 62.4079C60.2344 71.6149 67.7224 79.1429 76.8794 79.1429C82.4294 79.1429 87.5454 76.3809 90.6794 71.8309L93.1034 58.9309L89.8174 52.6479L75.0574 45.8779L60.5674 59.0379L60.5574 59.0499Z" fill="#3CBEB1"/>
<path d="M60.4498 33.4301L70.5238 35.8131L72.7858 24.2771C71.3858 23.1941 69.7158 22.6521 67.9378 22.6521C63.5748 22.6521 59.9648 26.2261 59.9648 30.6681C59.9648 31.5881 60.1268 32.5641 60.4498 33.4301Z" fill="#E9478C"/>
<path d="M59.5895 35.8679C55.0645 37.3299 51.9395 41.7179 51.9395 46.4829C51.9395 51.1409 54.7945 55.3109 59.1045 56.9359L73.2725 44.0359L70.6865 38.4579L59.5895 35.8579V35.8679Z" fill="#2C458F"/>
<path d="M93.2579 71.7759C94.6579 72.8589 96.3279 73.4559 98.0519 73.4559C102.415 73.4559 106.025 69.8819 106.025 65.4399C106.025 64.4649 105.863 63.5439 105.54 62.6779L95.4659 60.2949L93.2559 71.7769L93.2579 71.7759Z" fill="#95C63D"/>
<path d="M95.3038 57.6401L106.401 60.2401C110.926 58.7241 114.051 54.3901 114.051 49.6251C114.051 44.9671 111.196 40.8511 106.886 39.1721L92.3398 51.9541L95.3028 57.6411L95.3038 57.6401Z" fill="#176655"/>
</svg>
