<svg width="166" height="96" viewBox="0 0 166 96" fill="none" xmlns="http://www.w3.org/2000/svg">
<rect width="166" height="96" fill="white"/>
<path d="M48.7806 67.7179C49.5476 67.7179 50.2456 67.893 50.6306 68.2439C50.7006 68.8059 50.1776 69.7179 49.8636 69.7179C49.485 69.5741 49.0827 69.5025 48.6776 69.507C46.8636 69.507 45.9576 71.4019 45.9576 73.2629C45.9576 74.4209 46.3416 75.1229 47.2836 75.1229C48.2606 75.1229 49.2366 74.4559 49.7956 73.9649C49.9356 74.0699 50.1096 74.3849 50.1096 74.7369C50.1096 75.1229 50.0046 75.5089 49.6216 75.8949C48.9936 76.5269 47.9116 77.0879 46.3416 77.0879C44.5616 77.0879 43.3066 76.0699 43.3066 73.6829C43.3766 70.5229 45.3996 67.716 48.7836 67.716L48.7806 67.7179ZM54.6406 75.0179C55.6176 75.0179 57.3966 73.2979 57.8846 69.9979L57.9546 69.5419C57.7446 69.4719 57.4316 69.4019 57.1526 69.4019C56.4196 69.4019 55.6526 69.6119 54.9896 70.5599C54.3422 71.5003 53.9898 72.6123 53.9776 73.7539C53.9776 74.5609 54.2216 75.0179 54.6406 75.0179ZM51.4306 74.1049C51.4306 72.912 51.8146 70.8749 53.3146 69.3669C54.6046 68.0329 56.1406 67.7169 57.5706 67.7169C58.5126 67.7169 59.7686 68.0329 60.5706 68.1729C60.3606 69.0499 59.9076 72.3849 59.6636 74.3149C59.5586 75.1219 59.5236 76.281 59.5586 76.702C58.8956 76.9819 57.6746 77.0519 57.3256 77.0519C57.1516 77.0519 57.1156 76.2449 57.1516 75.4369C57.1866 75.1909 57.2216 74.8049 57.2216 74.6299C56.4546 75.9299 54.9196 77.0169 53.3146 77.0169C52.1646 77.0519 51.4306 76.0689 51.4306 74.1039V74.1049ZM65.5236 67.7169C66.3256 67.7169 67.1286 68.0329 67.4766 68.3839C67.4416 68.9459 67.0236 69.8939 66.3266 69.6119C66.0024 69.4939 65.6597 69.4346 65.3146 69.4369C64.7916 69.4369 64.3026 69.683 64.3026 70.174C64.3026 70.56 64.5826 70.8409 65.9076 71.7889C66.8496 72.4909 67.2336 73.1229 67.2336 73.9989C67.2336 75.4729 65.8736 77.0529 63.4666 77.0529C62.4896 77.0529 61.6166 76.6669 61.3736 76.2809C61.0236 75.6839 61.3036 74.4809 61.6876 74.7009C62.2106 74.9469 63.0476 75.2269 63.7456 75.2269C64.4086 75.2269 64.8256 74.9109 64.8256 74.5249C64.8256 74.1749 64.5116 73.8929 63.3256 73.0149C62.3146 72.2459 62.0006 71.544 62.0006 70.7719C62.0006 69.0869 63.4306 67.7179 65.5236 67.7179V67.7169ZM72.3956 67.7169C73.1976 67.7169 74.0006 68.0329 74.3486 68.3839C74.3136 68.9459 73.8956 69.8939 73.1986 69.6119C72.8744 69.4939 72.5317 69.4346 72.1866 69.4369C71.6636 69.4369 71.1746 69.683 71.1746 70.174C71.1746 70.56 71.4546 70.8409 72.7796 71.7889C73.7216 72.4909 74.1056 73.1229 74.1056 73.9989C74.1056 75.4729 72.7456 77.0529 70.3386 77.0529C69.3616 77.0529 68.5246 76.6669 68.2456 76.2809C67.8956 75.6839 68.1756 74.4809 68.5596 74.7009C69.0826 74.9469 69.9196 75.2269 70.6176 75.2269C71.2806 75.2269 71.6976 74.9109 71.6976 74.5249C71.6976 74.1749 71.3836 73.8929 70.1976 73.0149C69.1856 72.2429 68.8716 71.5409 68.8716 70.7689C68.8716 69.0839 70.3016 67.7149 72.3946 67.7149L72.3956 67.7169ZM78.6396 75.0169C79.6166 75.0169 81.3956 73.2969 81.8836 69.9969L81.9536 69.5409C81.7436 69.4709 81.4306 69.4009 81.1516 69.4009C80.4186 69.4009 79.6516 69.6109 78.9886 70.5589C78.3412 71.4993 77.9888 72.6113 77.9766 73.7529C78.0116 74.5599 78.2206 75.0169 78.6396 75.0169ZM75.4296 74.1039C75.4296 72.9109 75.8136 70.8739 77.3136 69.3659C78.6036 68.0319 80.1396 67.716 81.5696 67.716C82.5116 67.716 83.7676 68.0319 84.5696 68.1719C84.3596 69.0489 83.9066 72.3839 83.6626 74.3139C83.5576 75.1209 83.5226 76.2799 83.5576 76.7009C82.8946 76.9809 81.6736 77.0509 81.3246 77.0509C81.1506 77.0509 81.1146 76.2439 81.1506 75.4359C81.1856 75.1899 81.2206 74.8039 81.2206 74.6289C80.4536 75.9289 78.9186 77.0159 77.3136 77.0159C76.1976 77.0509 75.4296 76.0679 75.4296 74.1029V74.1039ZM89.0696 70.3139C89.9766 68.8399 91.1626 67.7169 92.8366 67.7169C94.2666 67.7169 94.7206 69.0509 94.4416 70.9109L93.9186 74.2109C93.7786 75.1939 93.6746 76.0709 93.7086 76.6679C93.1856 76.9139 91.6856 77.0179 91.3366 77.0179C91.1966 77.0179 91.1626 75.9299 91.3716 74.7719L92.0346 71.0519C92.1396 70.4549 92.1046 69.7519 91.5466 69.7519C90.8136 69.7519 89.0696 70.9449 88.1966 75.7889C88.1266 76.1749 87.9866 76.4209 87.7436 76.5609C87.4296 76.7359 86.8016 76.9109 85.5106 76.9109L86.4176 71.3309L86.7316 68.1369C87.0816 68.0319 88.8596 67.6469 89.0336 67.6469C89.2436 67.6469 89.2776 68.2789 89.1036 69.7529C89.0686 69.8929 89.0686 70.1029 89.0336 70.2429H89.0686V70.313L89.0696 70.3139ZM99.1856 74.9819C100.058 74.9819 101.836 73.3319 102.326 70.4189L102.431 69.7869C102.187 69.5409 101.838 69.4009 101.281 69.4009C99.2576 69.4009 98.3856 71.8229 98.3856 73.5779C98.4206 74.4909 98.7356 74.9819 99.1876 74.9819H99.1856ZM97.8956 77.0519C96.6056 77.0519 95.8376 75.8939 95.8376 73.9619C95.8376 70.7319 97.8606 67.7489 101.245 67.7489C101.838 67.7489 102.395 67.9239 102.71 68.0989C102.884 67.1859 103.303 64.3429 103.338 63.5009C103.896 63.3959 105.082 63.2209 105.64 63.2209C105.85 63.2209 105.92 63.4309 105.85 63.9579L104.351 73.9999C104.246 75.0879 104.211 76.1399 104.246 76.7379C103.618 77.0179 102.326 77.0879 101.979 77.0879C101.839 77.0879 101.769 76.1749 101.805 75.3329C101.837 75.0999 101.86 74.8658 101.875 74.6309C100.795 76.2459 99.4326 77.0529 97.8976 77.0529L97.8956 77.0519ZM109.546 70.5939C110.593 68.2419 111.848 67.716 112.686 67.716C112.93 67.716 113.349 67.8909 113.523 68.0659C113.593 68.7329 113.07 70.0319 112.616 70.5579C112.372 70.4529 112.093 70.3119 111.744 70.3119C111.081 70.3119 109.721 71.3649 108.884 75.9279C108.814 76.3139 108.71 76.4539 108.5 76.5599C108.15 76.7699 106.826 76.9099 106.198 76.9459L107.201 69.9999C107.263 69.4054 107.275 68.8065 107.236 68.2099C107.62 68.0349 109.12 67.6839 109.434 67.6839C109.608 67.6839 109.748 68.7719 109.469 70.5619H109.539V70.5969L109.546 70.5939ZM116.558 75.0169C117.535 75.0169 119.314 73.2969 119.802 69.9969L119.872 69.5409C119.662 69.4709 119.349 69.4009 119.07 69.4009C118.337 69.4009 117.57 69.6109 116.907 70.5589C116.259 71.4993 115.907 72.6113 115.895 73.7529C115.93 74.5599 116.139 75.0169 116.558 75.0169ZM113.348 74.1039C113.348 72.9109 113.732 70.8739 115.232 69.3659C116.522 68.0319 118.058 67.716 119.488 67.716C120.43 67.716 121.686 68.0319 122.488 68.1719C122.278 69.0489 121.825 72.3839 121.581 74.3139C121.476 75.1209 121.441 76.2799 121.476 76.7009C120.813 76.9809 119.592 77.0509 119.243 77.0509C119.069 77.0509 119.033 76.2439 119.069 75.4359C119.104 75.1899 119.139 74.8039 119.139 74.6289C118.372 75.9289 116.837 77.0159 115.232 77.0159C114.116 77.0509 113.348 76.0679 113.348 74.1029V74.1039Z" fill="#373535"/>
<path d="M109.685 33.7771C110.348 41.4641 98.3132 48.8001 82.7902 50.1331C67.2672 51.4661 54.1852 46.3081 53.5222 38.6201C52.8592 30.9321 64.8942 23.5981 80.4192 22.2651C95.9072 20.9311 109.024 26.0551 109.686 33.7781" fill="#BBE6FB"/>
<path d="M80.837 23.142C74.907 23.037 68 25.422 62.837 27.635C62.314 29.18 62 30.83 62 32.55C62 41.676 70.198 49.082 80.314 49.082C90.43 49.082 98.664 41.712 98.664 32.55C98.664 29.672 97.827 26.934 96.397 24.582C92.281 23.95 86.595 23.248 80.839 23.142" fill="white"/>
<path d="M80.3497 23.142C77.0697 22.932 71.4197 24.652 66.7097 26.372C65.9767 28.057 65.5938 29.917 65.5938 31.882C65.5938 39.885 72.8137 46.378 80.4197 46.378C87.9897 46.378 94.6868 39.885 95.2458 31.882C95.4198 29.285 94.5477 26.828 93.2927 24.722C89.0052 23.9974 84.6867 23.4706 80.3507 23.143" fill="white"/>
<path d="M71.9418 30.8641C72.3618 29.9511 72.9538 29.5301 73.5468 28.7941C73.4768 28.6191 73.3468 28.0221 73.3468 27.8461C73.3468 26.9331 74.0798 26.2311 74.9518 26.2311C75.1543 26.2287 75.3554 26.2643 75.5448 26.3361C78.2308 24.2661 81.7448 23.3881 85.3118 24.1961L86.2538 24.4421C82.7658 23.9421 78.7888 25.2141 76.1038 27.3901C76.1738 27.5901 76.4178 28.1271 76.4178 28.3731C76.4178 29.2861 75.8248 29.4961 74.9528 29.4961C74.7528 29.4961 74.5688 29.4611 74.3598 29.3911C73.7668 30.1981 72.9998 31.7781 72.6598 32.7611C74.1598 34.0951 75.4858 34.5861 77.2298 35.2531C77.2298 35.1831 77.2998 35.0781 77.2998 35.0071C77.2998 32.3041 79.6718 30.0931 82.3578 30.0931C84.7648 30.0931 86.7878 31.8481 87.1718 34.1651C88.3918 33.3931 89.5438 32.7951 90.4158 31.6731C90.2158 31.4271 89.9958 30.6901 89.9958 30.3391C89.9974 29.9502 90.1519 29.5775 90.4261 29.3017C90.7002 29.0259 91.0719 28.869 91.4608 28.8651C91.5782 28.8609 91.6956 28.8727 91.8098 28.9001C92.2628 27.9521 92.6118 26.9701 92.8218 25.9521C88.6018 22.7921 80.4378 23.2491 80.4378 23.2491C80.4378 23.2491 73.9498 22.8991 69.5538 25.0741C69.8678 27.1101 70.7038 29.1461 71.9608 30.8741L71.9418 30.8641ZM92.1248 29.6461C92.3657 29.8536 92.5667 30.1033 92.7178 30.3831C93.1018 31.0851 92.3338 31.7531 91.4978 31.7531C91.4278 31.7531 91.3238 31.7531 91.2538 31.7181C90.3468 33.1581 88.7418 34.9821 87.3118 35.9301C89.5098 36.2801 91.5678 37.1581 93.1718 38.5271C94.3578 36.3871 95.2648 33.2621 95.2648 30.6301C95.2648 28.6301 94.3928 27.1551 93.0668 26.0671C93.0318 27.1551 92.4388 28.6641 92.1248 29.6471V29.6461ZM74.4048 43.2671C75.1378 41.2311 76.9168 39.6871 78.6248 38.3171C78.3808 37.9671 77.9968 37.1241 77.8578 36.7371C75.7998 36.1051 73.9858 34.9121 72.5558 33.3671C72.5558 33.4021 72.5208 33.4721 72.5208 33.5071C72.2408 34.7001 72.2068 35.9291 72.3468 37.0871C73.3238 37.2621 74.0908 38.1401 74.0908 39.1931C74.0908 39.8251 73.5328 40.6931 73.1138 41.1231C73.5338 42.0361 73.8468 42.5271 74.4138 43.2631L74.4048 43.2671ZM74.2738 44.9501C73.4018 44.0731 72.8088 42.3531 72.2508 41.2651C72.1458 41.2651 72.0508 41.3001 71.9368 41.3001C70.7508 41.3001 69.5298 40.3171 69.8088 39.1601C69.9488 38.5281 70.4018 38.1071 71.1088 37.7561C70.9348 36.4221 70.9088 34.5621 71.2138 33.1931C71.2838 32.8071 71.4938 32.6311 71.5978 32.2451C70.2304 30.1964 69.4908 27.7931 69.4698 25.3301V25.0501C67.2718 26.1731 65.6328 27.8931 65.6328 30.6301C65.6328 36.7021 69.1208 42.6701 74.2828 44.9861V44.9511L74.2738 44.9501ZM87.0158 36.5511C86.3528 38.4461 84.5388 39.8511 82.4108 39.8511C81.2608 39.8511 80.2128 39.4651 79.4108 38.7981C77.7108 40.1321 76.1308 42.4831 75.3638 44.5541C75.7138 44.9401 75.9568 45.2561 76.3758 45.6071C77.5618 45.9231 79.2358 45.6071 80.5258 45.6071C85.7238 45.6071 90.3628 43.2901 93.0138 39.1841C91.1998 37.9201 89.1068 36.7271 87.0138 36.5521" fill="#373535"/>
<path d="M71.8024 31.566C72.2224 30.653 72.7094 29.846 73.3024 29.074C73.2339 28.8945 73.1983 28.7041 73.1974 28.512C73.1974 27.599 73.9304 26.897 74.8024 26.897C75.0049 26.8946 75.206 26.9302 75.3954 27.002C78.0814 24.932 81.5954 24.054 85.1624 24.862L86.1044 25.108C82.6164 24.608 78.9884 25.705 76.3024 27.881C76.3724 28.081 76.4424 28.301 76.4424 28.513C76.4424 29.426 75.7094 30.128 74.8374 30.128C74.6374 30.128 74.4534 30.093 74.2444 30.023C73.6514 30.83 73.1284 31.743 72.7794 32.726C74.0794 34.096 75.6394 35.218 77.3844 35.85V35.604C77.3844 32.901 79.5824 30.69 82.2684 30.69C84.6754 30.69 86.6984 32.445 87.0824 34.762C88.3024 33.99 89.3494 33.007 90.2564 31.849C90.0564 31.603 89.9064 31.287 89.9064 30.936C89.9079 30.5471 90.0625 30.1744 90.3366 29.8986C90.6108 29.6228 90.9825 29.4659 91.3714 29.462C91.4764 29.462 91.5714 29.462 91.7214 29.497C92.1744 28.549 92.5234 27.567 92.7334 26.549C88.5134 23.389 80.3494 23.846 80.3494 23.846C80.3494 23.846 73.8614 23.496 69.4654 25.671C69.7094 27.811 70.5454 29.848 71.8024 31.568V31.566ZM92.3144 29.88C92.4687 30.016 92.5921 30.1834 92.6763 30.3711C92.7604 30.5588 92.8034 30.7623 92.8024 30.968C92.8008 31.3569 92.6462 31.7295 92.3721 32.0054C92.0979 32.2812 91.7262 32.4381 91.3374 32.442C91.2674 32.442 91.1634 32.442 91.0934 32.407C90.185 33.8474 88.9702 35.0698 87.5354 35.987C89.6284 36.303 91.6154 37.215 93.2554 38.584C94.489 36.3608 95.1373 33.8605 95.1394 31.318C95.1394 29.318 94.2674 27.843 92.9414 26.755C92.8774 27.8203 92.666 28.8717 92.3134 29.879L92.3144 29.88ZM74.5934 43.7C75.3264 41.664 76.5814 39.874 78.2914 38.505C78.0474 38.155 77.8384 37.803 77.6984 37.382C75.6404 36.75 73.8264 35.557 72.3964 34.012C72.3964 34.047 72.3614 34.117 72.3614 34.152C72.0814 35.345 72.0474 36.574 72.1874 37.732C73.1644 37.907 73.9314 38.785 73.9314 39.838C73.9304 40.1351 73.8679 40.4289 73.7478 40.7006C73.6277 40.9724 73.4525 41.2163 73.2334 41.417C73.5834 42.224 74.0704 42.997 74.5934 43.697V43.7ZM74.2434 44.904C73.3744 44.0389 72.6448 43.0445 72.0804 41.956C71.9754 41.956 71.8804 41.991 71.7664 41.991C71.4855 41.9921 71.2072 41.9373 70.9477 41.83C70.6882 41.7226 70.4526 41.5647 70.2546 41.3655C70.0566 41.1663 69.9002 40.9298 69.7944 40.6696C69.6886 40.4094 69.6356 40.1308 69.6384 39.85C69.6391 39.4503 69.7503 39.0585 69.9595 38.718C70.1688 38.3774 70.4681 38.1013 70.8244 37.92C70.6504 36.586 70.7194 35.252 71.0244 33.884C71.0944 33.498 71.2244 33.112 71.3384 32.726C69.9945 30.7488 69.2774 28.4127 69.2804 26.022V25.742C67.0824 26.865 65.4434 28.585 65.4434 31.322C65.4434 37.394 69.0364 42.624 74.1994 44.942C74.2344 44.942 74.2344 44.942 74.2344 44.907L74.2434 44.904ZM86.8274 37.255C86.1644 39.15 84.3504 40.555 82.2224 40.555C81.0724 40.555 80.0244 40.169 79.2224 39.502C77.5224 40.836 76.2224 42.662 75.4204 44.732C75.7704 45.118 76.1534 45.469 76.5364 45.82C77.7541 46.1448 79.009 46.3095 80.2694 46.31C85.4674 46.31 90.0714 43.607 92.7224 39.51C90.9784 38.246 88.9204 37.44 86.8274 37.264" fill="#1287B1"/>
<path d="M87.0117 35.9899L91.5117 34.9019L86.9767 34.6559L90.6747 31.8479L86.4887 33.3579L89.3147 29.3919L85.3727 32.0239L86.7327 27.3909L84.0467 31.2169L83.9767 26.3729L82.1967 30.6899L80.7317 26.3379L80.8017 31.4629L78.2547 26.8649L79.6497 31.7449L75.4997 28.7249L78.7437 32.8319L73.5807 30.9369L77.6277 33.9569L72.4297 34.1319L77.7667 35.5019L72.4297 36.6599L77.6967 37.0459L73.2667 39.8889L77.8367 38.2389L74.6627 42.2749L78.6747 39.0109L77.2447 44.4159L80.3497 39.9999L79.9297 45.1949L81.6737 40.4569L83.1737 45.4069L83.5237 40.4229L85.7567 44.6699L84.4307 39.8259L88.4777 42.9859L85.8617 38.9499L90.3267 40.7049L86.9067 37.3349L91.4767 37.6849L87.0117 35.9999V35.9899Z" fill="white"/>
<path d="M38.9766 44.6579C52.9646 30.5829 64.1276 26.2299 74.2796 24.2649C75.6056 24.0189 75.8846 21.0349 75.8846 21.0349C75.8846 21.0349 76.0586 23.2109 77.0006 23.4919C77.9426 23.7729 79.1636 20.0869 79.1636 20.0869C79.1636 20.0869 78.0476 23.3869 79.1636 23.5869C80.2796 23.7619 82.3736 20.3569 82.3736 20.3569C82.3736 20.3569 81.5366 23.2699 82.0936 23.4809C82.6516 23.6559 85.4776 19.2339 85.4776 19.2339C85.4776 19.2339 83.8036 22.1469 85.3726 22.4639C86.9776 22.7439 89.3146 20.4639 89.3146 20.4639C89.3146 20.4639 87.5006 22.5339 88.3026 22.8509C91.7906 24.0789 94.5826 19.5509 94.5826 19.5509C94.5826 19.5509 93.9196 21.5509 92.2456 23.7279C95.9086 24.6759 98.6296 19.1299 98.6296 19.1299L95.9096 24.6759C97.3046 25.3779 102.922 18.8489 102.922 18.8489C102.922 18.8489 100.027 23.9389 98.3166 24.9909C99.2586 25.7629 102.643 22.7109 102.643 22.7109C102.643 22.7109 99.9226 26.1159 100.969 26.2909C102.469 27.5189 108.016 19.9729 108.016 19.9729C108.016 19.9729 105.853 24.4309 102.679 27.9049C105.329 29.2749 111.959 20.6749 111.959 20.6749C111.959 20.6749 111.785 23.4129 106.971 27.7749C110.529 27.3189 115.134 20.5089 115.134 20.5089C115.134 20.5089 113.46 25.5989 109.414 29.2139C112.902 28.8639 118.519 20.1579 118.519 20.1579C118.519 20.1579 116.356 26.1949 111.961 29.7049C116.845 30.7929 123.891 23.4569 123.891 23.4569C123.891 23.4569 121.135 28.6519 117.507 30.7929C121.554 32.3369 127.1 25.9129 127.1 25.9129C127.1 25.9129 121.553 34.5129 112.728 34.1259C109.833 33.9859 101.078 25.2809 82.3076 25.9829C57.4706 26.8959 52.2376 37.4959 38.9816 44.6559" fill="#373535" fill-opacity="0.35"/>
<path d="M39.5352 43.6049C53.5232 29.5299 64.6852 25.1779 74.8372 23.2119C76.1632 22.9659 76.4422 19.9819 76.4422 19.9819C76.4422 19.9819 76.6162 22.1579 77.5582 22.4389C78.5002 22.7199 79.7212 19.0339 79.7212 19.0339C79.7212 19.0339 78.6052 22.3339 79.7212 22.5339C80.8372 22.7089 82.9312 19.3039 82.9312 19.3039C82.9312 19.3039 82.0942 22.2169 82.6512 22.4279C83.2092 22.6029 86.0352 18.1809 86.0352 18.1809C86.0352 18.1809 84.3612 21.0939 85.9302 21.4109C87.5352 21.6909 89.8722 19.4109 89.8722 19.4109C89.8722 19.4109 88.0582 21.4809 88.8602 21.7979C92.3482 23.0259 95.1402 18.4979 95.1402 18.4979C95.1402 18.4979 94.4772 20.4979 92.8032 22.6749C96.4662 23.6229 99.1872 18.0769 99.1872 18.0769L96.4672 23.6229C97.8622 24.3949 103.514 17.8669 103.514 17.8669C103.514 17.8669 100.619 22.9569 98.9092 24.0089C99.8512 24.6759 103.235 21.6569 103.235 21.6569C103.235 21.6569 100.515 25.0619 101.561 25.2369C103.061 26.4649 108.608 18.9189 108.608 18.9189C108.608 18.9189 106.41 23.3769 103.236 26.8509C105.886 28.1849 112.55 19.5849 112.55 19.5849C112.55 19.5849 112.376 22.3229 107.562 26.6849C111.12 26.2289 115.725 19.4189 115.725 19.4189C115.725 19.4189 114.051 24.5089 110.005 28.1239C113.493 27.7739 119.11 19.0679 119.11 19.0679C119.11 19.0679 116.947 25.1049 112.552 28.6149C117.436 29.7029 124.482 22.3669 124.482 22.3669C124.482 22.3669 121.726 27.5619 118.098 29.7029C122.145 31.2469 127.691 24.8229 127.691 24.8229C127.691 24.8229 122.144 33.4229 113.319 33.0359C110.424 32.8959 101.669 24.1909 82.8992 24.8929C58.0622 25.8409 52.7942 36.4059 39.5392 43.6009" fill="#373535"/>
<path d="M38.629 46.2019C46.024 49.9219 52.792 45.6399 61.303 48.0619C67.791 49.8869 75.675 52.1689 86.383 50.5889C97.093 49.0449 106.233 44.3409 110.627 35.9889C111.987 32.2689 117.534 36.8309 117.534 36.8309C117.534 36.8309 113.487 35.1459 113.592 35.9179C113.697 36.7249 119.662 39.4979 119.662 39.4979C119.662 39.4979 114.255 37.8129 114.604 39.0779C114.918 40.3419 121.371 45.4659 121.371 45.4659C121.371 45.4659 114.011 39.9199 113.418 40.6919C112.79 41.4639 116.523 44.5179 116.523 44.5179C116.523 44.5179 110.383 40.6919 108.221 41.8149C106.651 42.6219 114.605 47.8519 114.605 47.8519C114.605 47.8519 109.442 43.8859 108.221 44.9389C107 45.9919 114.047 54.4859 114.047 54.4859C114.047 54.4859 106.024 45.7809 105.221 46.2029C104.418 46.6249 107.419 50.8009 107.419 50.8009C107.419 50.8009 103.512 46.4489 102.431 47.1859C101.351 47.9579 108.081 59.2259 108.081 59.2259C108.081 59.2259 100.791 47.6779 97.755 49.6089C102.465 60.0339 100.72 61.5089 100.72 61.5089C100.72 61.5089 100.127 50.8739 94.232 51.1549C91.267 51.2949 95.627 59.0869 95.627 59.0869C95.627 59.0869 91.617 51.9599 88.931 52.0999C93.851 61.5069 92.1049 65.2969 92.1049 65.2969C92.1049 65.2969 92.907 57.2589 86.245 52.8019C88.792 55.0819 84.64 65.2969 84.64 65.2969C84.64 65.2969 88.268 50.2389 81.954 53.1169C80.942 53.5729 81.884 60.6269 81.884 60.6269C81.884 60.6269 80.628 52.5539 78.71 52.9749C77.594 53.2209 71.663 64.1719 71.663 64.1719C71.663 64.1719 76.513 52.3419 75.047 52.8349C73.9669 53.1849 71.942 58.0649 71.942 58.0649C71.942 58.0649 72.919 53.2549 71.942 52.9749C70.965 52.6949 65.454 58.0649 65.454 58.0649C65.454 58.0649 69.534 53.2549 68.838 52.2379C67.758 50.7279 66.536 50.6579 65.036 51.2549C62.873 52.0969 59.978 56.0649 59.978 56.0649C59.978 56.0649 62.873 52.0289 62.385 50.5549C61.583 48.1329 53.245 55.2229 53.245 55.2229C53.245 55.2229 58.165 50.5549 57.047 49.5369C55.931 48.5539 49.791 48.8349 47.907 48.8349C42.291 48.9049 40.337 47.5709 38.627 46.2029" fill="#373535" fill-opacity="0.35"/>
<path d="M38.3145 45.3599C45.7095 49.0799 52.4775 44.7979 60.9885 47.2199C67.4765 49.0449 75.3605 51.3269 86.0685 49.7469C96.7785 48.2029 105.919 43.4989 110.312 35.1469C111.673 31.4269 117.219 35.9889 117.219 35.9889C117.219 35.9889 113.172 34.3039 113.277 35.0759C113.382 35.8829 119.348 38.6559 119.348 38.6559C119.348 38.6559 113.941 36.9709 114.29 38.2359C114.604 39.4999 121.057 44.6239 121.057 44.6239C121.057 44.6239 113.767 39.0439 113.173 39.8139C112.578 40.5839 116.277 43.6399 116.277 43.6399C116.277 43.6399 110.137 39.8139 107.975 40.9369C106.405 41.7439 114.359 46.9739 114.359 46.9739C114.359 46.9739 109.196 43.0079 107.975 44.0609C106.754 45.1139 113.801 53.6079 113.801 53.6079C113.801 53.6079 105.814 44.9029 105.012 45.3249C104.21 45.7469 107.21 49.9229 107.21 49.9229C107.21 49.9229 103.232 45.6059 102.152 46.3429C101.071 47.1149 107.768 58.3829 107.768 58.3829C107.768 58.3829 100.477 46.7999 97.4775 48.7309C102.221 59.1909 100.443 60.6649 100.443 60.6649C100.443 60.6649 99.8495 50.0299 93.9545 50.3109C90.9895 50.4509 95.3495 58.2429 95.3495 58.2429C95.3495 58.2429 91.3725 51.1429 88.6865 51.2929C93.6055 60.6999 91.8605 64.4899 91.8605 64.4899C91.8605 64.4899 92.6625 56.4519 86.0005 51.9949C88.5475 54.2749 84.3955 64.4899 84.3955 64.4899C84.3955 64.4899 88.0235 49.4319 81.7095 52.3099C80.6975 52.7659 81.6395 59.8199 81.6395 59.8199C81.6395 59.8199 80.3835 51.7469 78.4655 52.1679C77.3495 52.4139 71.4185 63.3649 71.4185 63.3649C71.4185 63.3649 76.2685 51.5349 74.8025 52.0279C73.7225 52.3779 71.6975 57.2579 71.6975 57.2579C71.6975 57.2579 72.6745 52.4479 71.6975 52.1679C70.7205 51.8879 65.2095 57.2579 65.2095 57.2579C65.2095 57.2579 69.2895 52.4479 68.5935 51.4309C67.5135 49.9209 66.2915 49.8509 64.7915 50.4479C62.6285 51.2899 59.7335 55.2579 59.7335 55.2579C59.7335 55.2579 62.6285 51.2219 62.1405 49.7479C61.3385 47.3259 53.0005 54.4159 53.0005 54.4159C53.0005 54.4159 57.9205 49.7479 56.8025 48.7299C55.6865 47.7469 49.5465 48.0279 47.6625 48.0279C41.9765 48.0629 40.0225 46.7279 38.3125 45.3599" fill="#373535"/>
</svg>
