<svg width="166" height="94" viewBox="0 0 166 94" fill="none" xmlns="http://www.w3.org/2000/svg">
<rect width="166" height="94" fill="white"/>
<g clip-path="url(#clip0)">
<path d="M113 46.1412V48.1165C112.981 48.2237 112.958 48.3289 112.945 48.4355C112.843 49.2948 112.777 50.1595 112.636 51.0123C112.174 53.7842 111.177 56.3605 109.696 58.7427C107.446 62.3595 104.404 65.1175 100.582 67.001C98.3762 68.0932 95.9977 68.7951 93.5521 69.0755C93.0089 69.1383 92.4662 69.1945 91.923 69.2543H70.8444C70.7383 69.2346 70.6326 69.2029 70.5254 69.1965C68.4 69.0627 66.3551 68.5783 64.4059 67.7254C60.1625 65.8686 56.9985 62.8592 54.9274 58.717C54.0122 56.8899 53.4199 54.9183 53.1768 52.8894C53.117 52.396 53.0588 51.9032 53 51.4104V49.4938C53.0202 49.3876 53.0514 49.2815 53.0578 49.1748C53.1679 47.3333 53.5457 45.5452 54.2109 43.8266C56.001 39.2025 59.1215 35.7728 63.556 33.5531C65.8568 32.401 68.3091 31.7955 70.8741 31.6612C72.1299 31.596 73.3847 31.6662 74.6331 31.8336C74.7462 31.8489 74.9091 31.7985 74.9877 31.718C76.7827 29.8844 78.8267 28.395 81.1314 27.2662C83.3669 26.1713 85.7195 25.4657 88.1961 25.1832C88.7788 25.1165 89.363 25.0617 89.9467 25.0015H91.7437C91.8612 25.0197 91.9793 25.0405 92.0968 25.0543C92.9872 25.158 93.8825 25.2232 94.7644 25.3708C97.516 25.8326 100.078 26.8202 102.448 28.2874C106.082 30.5373 108.852 33.5827 110.745 37.4168C111.839 39.6238 112.542 42.0042 112.821 44.4518C112.885 45.0153 112.94 45.5787 113 46.1412ZM79.4519 33.3595C79.4879 33.4069 79.4968 33.4291 79.5121 33.4365C80.7462 34.0448 81.9256 34.7581 83.0375 35.5684C83.1077 35.6192 83.2815 35.598 83.3664 35.5447C86.4222 33.6084 89.7348 32.9402 93.2933 33.5713C96.7802 34.1896 99.6178 35.9318 101.786 38.7146C104.24 41.8637 105.176 45.4247 104.499 49.3866C104.044 52.042 102.981 54.4242 101.173 56.4197C97.8741 60.0578 93.7432 61.5625 88.8805 60.9254C85.8869 60.5333 83.3027 59.242 81.164 57.0805C78.4188 54.3076 75.6558 51.5531 72.9027 48.7876C72.5358 48.4192 72.1274 48.1229 71.599 48.0583C70.676 47.9452 69.8385 48.4059 69.44 49.235C69.0844 49.9753 69.1304 50.8099 69.9017 51.5684C72.9709 54.5812 76.0128 57.6217 79.0785 60.6375C79.6032 61.1563 80.1659 61.6352 80.762 62.0701C83.0015 63.6963 85.5264 64.5955 88.2607 64.9575C90.4069 65.241 92.5363 65.1802 94.6494 64.7052C98.68 63.8 102.019 61.7427 104.648 58.5684C106.82 55.9452 108.133 52.9308 108.591 49.5466C108.856 47.6168 108.8 45.6564 108.427 43.7447C107.817 40.6187 106.494 37.8217 104.375 35.441C100.332 30.9012 95.2459 28.8746 89.1931 29.3269C86.8647 29.5007 84.6622 30.1847 82.5896 31.2696C81.4712 31.8507 80.4191 32.5514 79.4519 33.3595ZM77.9709 65.0513C77.8876 64.9742 77.8046 64.8966 77.722 64.8187C76.4672 63.6341 75.2054 62.4568 73.9654 61.2568C73.7254 61.0247 73.5047 60.9116 73.1649 60.9195C71.9091 60.9501 70.6523 60.9555 69.4148 60.676C63.2617 59.2844 59.6889 52.5945 61.9565 46.7081C63.7452 42.0666 68.6968 39.24 73.5798 40.1116C75.7684 40.5022 77.6894 41.4286 79.2662 43.0548C81.1891 45.04 83.1694 46.9684 85.1131 48.9333C85.5556 49.3807 86.0637 49.5847 86.6765 49.4973C87.4686 49.3842 88.0993 49.0069 88.3857 48.2301C88.6662 47.4657 88.5304 46.7417 87.9516 46.1555C85.9116 44.0889 83.92 41.9704 81.7975 39.9916C77.681 36.1521 72.8267 35.0104 67.4578 36.6429C60.2365 38.837 56.0104 46.2938 57.6602 53.6518C59.164 60.356 65.0272 65.0612 71.8879 65.0671C73.8035 65.0691 75.7195 65.0681 77.6351 65.0671C77.7299 65.0671 77.8247 65.0587 77.9709 65.0513Z" fill="#DA1F26"/>
</g>
<defs>
<clipPath id="clip0">
<rect width="60" height="44.256" fill="white" transform="translate(53 25)"/>
</clipPath>
</defs>
</svg>
