<svg width="150" height="40" viewBox="0 0 150 40" fill="none" xmlns="http://www.w3.org/2000/svg">
<path fill-rule="evenodd" clip-rule="evenodd" d="M32.2816 7.80493H7.82617V32.1952H32.2816V7.80493ZM11.739 16.9759V11.7074H16.5323L28.3688 23.5123V28.2927H23.0862L11.739 16.9759ZM11.739 22.4947V28.2927H17.5526L11.739 22.4947ZM28.3688 17.9934V11.7074H22.0659L28.3688 17.9934Z" fill="black"/>
<path d="M45.4982 26.9343C48.7753 26.9343 50.6989 25.3712 50.6989 23.1922C50.6989 18.5027 44.0495 19.8053 44.0495 18.5501C44.0495 18.1001 44.6195 17.7685 45.4744 17.7685C46.8518 17.7685 48.1579 18.3606 48.8466 19.0238L50.2477 16.4422C49.0128 15.5421 47.398 14.9264 45.4507 14.9264C42.2922 14.9264 40.5349 16.679 40.5349 18.6922C40.5349 23.3343 47.208 21.8659 47.208 23.2869C47.208 23.7843 46.7568 24.0922 45.6644 24.0922C44.3108 24.0922 42.4822 23.3106 41.6273 22.5527L40.1074 25.158C41.3186 26.2475 43.4321 26.9343 45.4982 26.9343Z" fill="black"/>
<path d="M64.3628 26.6501L59.9219 20.4211L64.149 15.2106H59.732L56.241 19.7817V10.8526H52.5839V26.6501H56.241V23.9027L57.3334 22.6001L59.8507 26.6501H64.3628Z" fill="black"/>
<path d="M70.8717 26.9343C72.629 26.9343 74.5288 26.437 75.6687 25.4185L74.0776 23.0264C73.4127 23.6422 72.0828 23.9975 71.2754 23.9975C69.613 23.9975 68.6631 23.1448 68.4019 22.1264H76.5711V21.2975C76.5711 17.4132 74.1014 14.9264 70.7054 14.9264C67.1195 14.9264 64.626 17.6027 64.626 20.9185C64.626 24.637 67.3333 26.9343 70.8717 26.9343ZM73.0802 19.6396H68.3544C68.4969 18.8106 69.1143 17.8632 70.7054 17.8632C72.3915 17.8632 72.9852 18.8343 73.0802 19.6396Z" fill="black"/>
<path d="M82.7183 26.9343C84.0719 26.9343 84.9743 26.6028 85.4255 26.1764L84.7131 23.4291C84.5943 23.5712 84.1906 23.7133 83.7869 23.7133C83.1695 23.7133 82.7895 23.2159 82.7895 22.5527V18.3606H85.1168V15.2106H82.7895V12.0842H79.1324V15.2106H77.2325V18.3606H79.1324V23.5712C79.1324 25.7738 80.391 26.9343 82.7183 26.9343Z" fill="black"/>
<path d="M92.4394 26.9343C94.9329 26.9343 96.4528 25.8212 97.1415 24.8264L94.7667 22.6001C94.3155 23.2396 93.5793 23.7133 92.6057 23.7133C91.0858 23.7133 89.9222 22.6475 89.9222 20.9185C89.9222 19.1895 91.0858 18.1474 92.6057 18.1474C93.5793 18.1474 94.3155 18.5738 94.7667 19.2369L97.1415 17.0343C96.4528 16.0158 94.9329 14.9264 92.4394 14.9264C88.8535 14.9264 86.1938 17.3422 86.1938 20.9185C86.1938 24.4949 88.8535 26.9343 92.4394 26.9343Z" fill="black"/>
<path d="M110.25 26.6501V18.5027C110.25 16.3948 109.063 14.9264 106.451 14.9264C104.527 14.9264 103.173 15.8027 102.485 16.6079V10.8526H98.8276V26.6501H102.485V19.2606C102.912 18.7395 103.625 18.1474 104.693 18.1474C105.857 18.1474 106.593 18.5974 106.593 19.9948V26.6501H110.25Z" fill="black"/>
<path d="M114.733 14.1921C115.896 14.1921 116.846 13.2448 116.846 12.0842C116.846 10.9237 115.896 10 114.733 10C113.569 10 112.643 10.9237 112.643 12.0842C112.643 13.2448 113.569 14.1921 114.733 14.1921ZM116.561 26.6501V15.2106H112.904V26.6501H116.561Z" fill="black"/>
<path d="M123.629 26.9343C126.906 26.9343 128.83 25.3712 128.83 23.1922C128.83 18.5027 122.18 19.8053 122.18 18.5501C122.18 18.1001 122.75 17.7685 123.605 17.7685C124.983 17.7685 126.289 18.3606 126.978 19.0238L128.379 16.4422C127.144 15.5421 125.529 14.9264 123.582 14.9264C120.423 14.9264 118.666 16.679 118.666 18.6922C118.666 23.3343 125.339 21.8659 125.339 23.2869C125.339 23.7843 124.888 24.0922 123.795 24.0922C122.442 24.0922 120.613 23.3106 119.758 22.5527L118.238 25.158C119.45 26.2475 121.563 26.9343 123.629 26.9343Z" fill="black"/>
<path d="M142.161 26.6501V18.5027C142.161 16.3948 140.974 14.9264 138.362 14.9264C136.438 14.9264 135.084 15.8027 134.396 16.6079V10.8526H130.739V26.6501H134.396V19.2606C134.823 18.7395 135.536 18.1474 136.604 18.1474C137.768 18.1474 138.504 18.5974 138.504 19.9948V26.6501H142.161Z" fill="black"/>
</svg>
