<svg width="166" height="94" viewBox="0 0 166 94" fill="none" xmlns="http://www.w3.org/2000/svg">
<rect width="166" height="94" fill="white"/>
<path d="M48.7793 55.053V40.715H50.6343L59.4083 52.265V40.715H61.1623V55.053H59.2993L50.5263 43.403V55.053H48.7793ZM75.3993 54.5C74.2433 54.942 72.9963 55.162 71.6593 55.162C66.4663 55.162 63.8593 52.662 63.8593 47.692C63.8593 42.98 66.3663 40.622 71.3793 40.622C72.8173 40.622 74.1543 40.822 75.3793 41.225V42.829C74.1433 42.361 72.8723 42.127 71.5793 42.127C67.6793 42.127 65.7153 43.982 65.7153 47.691C65.7153 51.668 67.6393 53.657 71.4903 53.657C72.1043 53.657 72.7863 53.577 73.5353 53.415V48.543H75.3993V54.498V54.5ZM78.3593 49.528V40.726H80.2133V49.528C80.2133 52.282 81.5833 53.661 84.3253 53.661C87.0673 53.661 88.4253 52.281 88.4253 49.528V40.726H90.2993V49.528C90.2993 53.286 88.3113 55.164 84.3343 55.164C80.3573 55.164 78.3683 53.286 78.3683 49.528H78.3593ZM95.4523 40.725V53.55H102.952V55.054H93.5993V40.716H95.4533L95.4523 40.725ZM105.629 55.063H103.704L110.832 38.833L117.962 55.063H115.907L114.051 50.551H109.311L109.811 49.049H113.411L110.734 42.551L105.629 55.063ZM119.916 55.063V40.715H126.032C128.759 40.715 130.132 41.862 130.132 44.155C130.132 46.021 128.8 47.4 126.132 48.295L131.055 55.053H128.599L124.039 48.607V47.395C126.779 46.96 128.139 45.907 128.139 44.237C128.139 42.914 127.377 42.251 125.854 42.251H121.762V55.055H119.907L119.916 55.063ZM137.994 40.725V50.932C137.994 53.686 136.374 55.062 133.13 55.062V53.55C135.135 53.55 136.138 52.674 136.138 50.923V40.715H137.993L137.994 40.725ZM141.304 54.56V52.855C142.809 53.39 144.432 53.658 146.177 53.658C148.643 53.658 149.877 52.755 149.877 50.958C149.877 49.423 148.977 48.653 147.149 48.653H145.304C142.304 48.653 140.802 47.35 140.802 44.753C140.802 42.013 142.725 40.641 146.569 40.641C148.239 40.641 149.794 40.843 151.231 41.244V42.948C149.793 42.413 148.239 42.145 146.569 42.145C143.962 42.145 142.669 43.015 142.669 44.752C142.669 46.288 143.551 47.057 145.314 47.057H147.159C150.213 47.057 151.741 48.361 151.741 50.957C151.741 53.765 149.891 55.169 146.186 55.169C144.442 55.169 142.818 54.967 141.314 54.566L141.304 54.56Z" fill="#CCCCCC"/>
<path d="M49.25 54.584V40.247H51.104L59.877 51.797V40.247H61.632V54.584H59.777L51.003 42.934V54.584H49.25ZM75.87 54.024C74.714 54.466 73.467 54.686 72.13 54.686C66.937 54.686 64.33 52.186 64.33 47.216C64.33 42.504 66.837 40.146 71.85 40.146C73.287 40.146 74.624 40.346 75.85 40.749V42.353C74.614 41.885 73.343 41.651 72.05 41.651C68.15 41.651 66.185 43.506 66.185 47.215C66.185 51.192 68.11 53.181 71.96 53.181C72.574 53.181 73.257 53.101 74.006 52.941V48.069H75.86V54.025L75.87 54.024ZM78.828 49.051V40.248H80.682V49.051C80.682 51.805 82.052 53.181 84.782 53.181C87.512 53.181 88.882 51.804 88.882 49.051V40.248H90.737V49.051C90.737 52.808 88.749 54.686 84.772 54.686C80.795 54.686 78.807 52.809 78.807 49.051H78.828ZM95.922 40.247V53.08H103.422V54.584H94.068V40.246H95.922V40.247ZM106.1 54.584H104.175L111.305 38.354L118.433 54.584H116.377L114.523 50.072H109.781L110.293 48.568H113.893L111.217 42.07L106.1 54.584ZM120.386 54.584V40.247H126.501C129.229 40.247 130.601 41.393 130.601 43.687C130.601 45.552 129.269 46.933 126.601 47.827L131.524 54.585H129.077L124.517 48.139V46.925C127.257 46.489 128.617 45.438 128.617 43.765C128.617 42.442 127.854 41.78 126.33 41.78H122.23V54.583H120.375L120.386 54.584Z" fill="black"/>
<path d="M138.465 40.246V50.453C138.465 53.207 136.845 54.583 133.602 54.583V53.08C135.607 53.08 136.61 52.203 136.61 50.453V40.246H138.465ZM141.773 54.082V52.378C143.278 52.912 144.901 53.181 146.646 53.181C149.112 53.181 150.346 52.278 150.346 50.473C150.346 48.937 149.446 48.168 147.619 48.168H145.773C142.773 48.168 141.271 46.865 141.271 44.268C141.271 41.528 143.193 40.168 147.037 40.168C148.707 40.168 150.262 40.37 151.699 40.771V42.476C150.261 41.941 148.707 41.673 147.037 41.673C144.43 41.673 143.137 42.543 143.137 44.28C143.137 45.817 144.017 46.585 145.782 46.585H147.628C150.681 46.585 152.21 47.889 152.21 50.485C152.21 53.293 150.36 54.697 146.655 54.697C144.911 54.697 143.287 54.495 141.782 54.095L141.773 54.082Z" fill="#A6120D"/>
<path d="M29.745 29.2051L13 35.0981L15.646 57.0361L29.763 64.7961L43.953 56.9321L46.598 34.9941L29.745 29.2051Z" fill="#B3B3B3"/>
<path d="M44.927 36.2601L29.707 31.0701V62.9401L42.463 55.8801L44.927 36.2601Z" fill="#A6120D"/>
<path d="M14.8809 36.3551L17.1489 55.9751L29.7089 62.9401V31.0701L14.8809 36.3551Z" fill="#DD1B16"/>
<path d="M33.8953 48.037L29.6953 49.997H25.2993L23.2233 55.189L19.3633 55.261L29.7163 32.229L33.9163 48.039L33.8953 48.037ZM33.4903 47.051L29.7333 39.613L26.6513 46.913H29.7053L33.4903 47.041V47.051Z" fill="#F2F2F2"/>
<path d="M29.7051 32.228L29.7331 39.613L33.2301 46.928H29.7131L29.7051 49.991L34.5681 49.996L36.8411 55.26L40.5361 55.328L29.7051 32.228Z" fill="#B3B3B3"/>
</svg>
