<svg width="166" height="94" viewBox="0 0 166 94" fill="none" xmlns="http://www.w3.org/2000/svg">
<rect width="166" height="94" fill="white"/>
<path d="M53 47V17H113V77H53" fill="#007ACC"/>
<path d="M66.1553 47.105V49.55H73.9553V71.75H79.5003V49.55H87.3003V47.15L87.2403 44.675C87.2403 44.63 82.4853 44.615 76.7103 44.615L66.2103 44.66V47.12L66.1653 47.105H66.1553ZM101.2 44.6C102.639 44.9179 103.947 45.666 104.95 46.745C105.505 47.345 106.33 48.395 106.39 48.665C106.39 48.765 103.795 50.51 102.22 51.485C102.16 51.53 101.92 51.285 101.68 50.885C100.9 49.785 100.105 49.285 98.8603 49.205C97.0603 49.085 95.8603 50.03 95.8603 51.605C95.8603 52.085 95.9603 52.355 96.1303 52.745C96.5353 53.57 97.2853 54.065 99.6103 55.085C103.91 56.93 105.76 58.145 106.885 59.885C108.16 61.835 108.445 64.885 107.59 67.19C106.63 69.695 104.29 71.39 100.945 71.945C99.8953 72.125 97.4953 72.095 96.3703 71.9C93.9703 71.45 91.6753 70.25 90.2653 68.705C89.7103 68.105 88.6453 66.5 88.7053 66.405L89.2753 66.045L91.5253 64.74L93.2203 63.74L93.6203 64.265C94.1153 65.045 95.2253 66.095 95.8703 66.465C97.8203 67.47 100.43 67.335 101.72 66.165C102.275 65.665 102.515 65.115 102.515 64.365C102.552 63.8178 102.392 63.2754 102.065 62.835C101.585 62.175 100.625 61.635 97.9253 60.435C94.8203 59.115 93.5003 58.275 92.2703 56.985C91.5653 56.205 90.9203 54.99 90.6203 53.985C90.3953 53.115 90.3203 50.985 90.5203 50.13C91.1653 47.13 93.4203 45.03 96.6703 44.43C97.7203 44.23 100.195 44.31 101.23 44.58L101.2 44.61V44.6Z" fill="white"/>
</svg>
