<svg width="166" height="94" viewBox="0 0 166 94" fill="none" xmlns="http://www.w3.org/2000/svg">
<rect width="166" height="94" fill="white"/>
<path d="M98.0739 28.6701L96.5559 28.1941L96.7909 27.1641C97.9409 21.6181 97.1889 17.1501 94.6229 15.6791C92.1629 14.2691 88.1399 15.7391 84.0769 19.2551C83.6769 19.6021 83.2849 19.9591 82.9029 20.3251C82.647 20.081 82.3866 19.8416 82.1219 19.6071C77.8639 15.8471 73.5949 14.2631 71.0219 15.7371C68.5639 17.1521 67.8359 21.3521 68.8719 26.6071C68.9749 27.1271 69.0919 27.6451 69.2219 28.1601C68.635 28.3251 68.0531 28.5072 67.4769 28.7061C62.4849 30.4361 59.2969 33.1491 59.2969 35.9631C59.2969 38.8691 62.7199 41.7831 67.9199 43.5511C68.3419 43.6941 68.7669 43.8261 69.1949 43.9471C69.0549 44.5011 68.9319 45.0601 68.8249 45.6211C67.8389 50.7861 68.6089 54.8871 71.0599 56.2931C73.5919 57.7451 77.8399 56.2531 81.9779 52.6561C82.3049 52.3721 82.6329 52.0701 82.9619 51.7541C83.3759 52.1511 83.8019 52.5371 84.2369 52.9101C88.2449 56.3401 92.2029 57.7241 94.6519 56.3141C97.1819 54.8581 98.0019 50.4521 96.9359 45.0921C96.8517 44.6722 96.7573 44.2544 96.6529 43.8391C96.9467 43.7533 97.2391 43.6626 97.5299 43.5671C102.936 41.7871 106.453 38.9071 106.453 35.9621C106.453 33.1381 103.163 30.4081 98.0689 28.6641L98.0739 28.6701Z" fill="#53C1DE"/>
<path d="M96.9004 41.67L96.1084 41.916C95.5114 40.036 94.7064 38.04 93.7204 35.976C94.6604 33.961 95.4354 31.989 96.0154 30.123L97.4174 30.563C101.781 32.056 104.443 34.265 104.443 35.967C104.443 37.78 101.568 40.133 96.9014 41.671L96.9004 41.67ZM94.9634 45.486C95.4354 47.856 95.5034 49.999 95.1904 51.674C94.9104 53.179 94.3444 54.184 93.6464 54.584C92.1604 55.439 88.9824 54.328 85.5544 51.394L84.3684 50.319C85.6984 48.874 87.0254 47.194 88.3214 45.329C90.6014 45.129 92.7554 44.799 94.7084 44.349L94.9634 45.483V45.486ZM75.3774 54.436C73.9254 54.936 72.7694 54.96 72.0704 54.56C70.5824 53.707 69.9644 50.414 70.8084 45.997L71.1524 44.44C73.0824 44.865 75.2224 45.17 77.5074 45.355C78.8124 47.18 80.1774 48.858 81.5554 50.328L80.6574 51.151C78.8274 52.751 76.9944 53.869 75.3774 54.437V54.436ZM68.5764 41.66C66.2764 40.88 64.3784 39.863 63.0764 38.755C61.9064 37.759 61.3164 36.77 61.3164 35.968C61.3164 34.261 63.8764 32.083 68.1464 30.603L69.7694 30.095C70.3694 32.003 71.1334 33.999 72.0674 36.017C71.1214 38.065 70.3374 40.092 69.7404 42.023L68.5764 41.661V41.66ZM70.8564 26.227C69.9704 21.723 70.5584 18.327 72.0394 17.474C73.6174 16.566 77.1054 17.861 80.7824 21.107L81.4894 21.757C80.1194 23.22 78.7654 24.885 77.4724 26.7C75.2544 26.904 73.1324 27.233 71.1794 27.672L70.8554 26.227H70.8564ZM91.1964 31.221L89.7624 28.876L94.0624 29.623C93.6564 30.918 93.1494 32.273 92.5524 33.661L91.1954 31.221H91.1964ZM82.9014 23.187C83.8314 24.187 84.7614 25.305 85.6764 26.517L80.1034 26.516L82.9014 23.186V23.187ZM74.5534 31.234L73.2234 33.659L71.7254 29.602L76.0004 28.872L74.5544 31.234H74.5534ZM76.0434 43.204L71.6974 42.509C72.1384 41.105 72.6483 39.7237 73.2254 38.37L74.5624 40.796L76.0424 43.204H76.0434ZM82.9584 48.887C82.0034 47.863 81.0514 46.73 80.1214 45.511L82.8814 45.564L85.7284 45.501L82.9604 48.887H82.9584ZM92.5734 38.287L94.1574 42.412C92.7904 42.712 91.3144 42.972 89.7574 43.158L91.2054 40.772L92.5734 38.288V38.287ZM89.4604 39.771L87.1984 43.401L82.8804 43.551C81.4134 43.551 79.9854 43.506 78.6104 43.417L76.3054 39.782L74.2934 36.004L76.2994 32.224L78.5854 28.604L82.8794 28.444L87.1814 28.606L89.4534 32.213L91.4864 35.975L89.4604 39.77V39.771ZM93.6164 17.403C95.1964 18.309 95.8094 21.96 94.8164 26.749L94.6044 27.681C92.6484 27.231 90.5244 26.898 88.2994 26.681C87.0034 24.846 85.6614 23.178 84.3134 21.734L85.3974 20.744C88.8774 17.731 92.1324 16.542 93.6154 17.392L93.6164 17.403Z" fill="white"/>
<path d="M82.8809 31.78C83.9945 31.7771 85.0636 32.2165 85.8533 33.0017C86.643 33.7869 87.0885 34.8535 87.0919 35.967C87.0919 37.0839 86.6483 38.155 85.8586 38.9447C85.0688 39.7344 83.9977 40.178 82.8809 40.178C81.7641 40.178 80.693 39.7344 79.9033 38.9447C79.1136 38.155 78.6699 37.0839 78.6699 35.967C78.6734 34.8535 79.1189 33.7869 79.9086 33.0017C80.6982 32.2165 81.7674 31.7771 82.8809 31.78Z" fill="#53C1DE"/>
<path d="M85.71 68.906L85.722 79.066C85.725 79.579 85.612 79.762 85.064 79.741C83.998 79.699 83.997 79.731 83.997 78.669L83.984 67.164C83.981 66.65 84.156 66.594 84.624 66.524C85.951 66.332 86.644 66.848 87.234 68.056C88.709 71.08 90.362 74.019 91.944 76.991C92.01 77.114 92.094 77.227 92.274 77.509V76.729L92.264 67.259C92.26 66.736 92.34 66.501 92.948 66.531C93.981 66.584 93.983 66.541 93.983 67.586L94 79.1C94.004 79.644 93.823 79.694 93.33 79.764C92 79.951 91.324 79.431 90.74 78.224C89.298 75.254 87.67 72.374 86.112 69.46C86.017 69.282 85.977 69.06 85.712 68.916L85.71 68.906ZM103.507 78.426C102.337 79.914 100.835 80.192 99.157 79.856C97.969 79.619 97.093 78.676 96.92 77.529C96.692 76.012 97.176 74.791 98.273 74.152C99.085 73.678 99.988 73.538 100.909 73.509C101.675 73.485 102.442 73.489 103.209 73.505C103.509 73.511 103.606 73.403 103.597 73.099C103.567 72.109 102.832 71.299 101.713 71.085C100.481 70.848 99.295 71.05 98.165 71.545C97.695 71.751 97.597 71.719 97.558 71.173C97.506 70.458 97.788 70.183 98.442 70.007C99.608 69.695 100.775 69.547 101.975 69.691C103.839 69.915 105.089 71.196 105.187 73.211C105.287 75.261 105.222 77.318 105.239 79.373C105.241 79.653 105.137 79.756 104.866 79.73C104.469 79.692 103.982 79.892 103.693 79.64C103.404 79.388 103.703 78.88 103.508 78.426H103.507ZM100.57 78.606C102.38 78.712 103.694 77.156 103.6 75.074C103.59 74.868 103.523 74.764 103.302 74.766C102.112 74.783 100.916 74.686 99.749 75.016C99.129 75.193 98.707 75.558 98.561 76.209C98.246 77.607 99.061 78.572 100.571 78.604L100.57 78.606ZM139.562 77.726C139.615 79.55 139.862 79.172 138.26 79.676C137.24 79.996 136.17 80.076 135.1 79.94C131.952 79.54 130.553 77.13 130.82 74.225C130.99 72.383 131.706 70.823 133.505 70.069C136.51 68.811 140.215 70.049 139.988 74.827C139.968 75.247 139.708 75.167 139.468 75.167C137.36 75.17 135.252 75.192 133.145 75.154C132.549 75.144 132.481 75.359 132.567 75.854C132.852 77.494 134.007 78.508 135.677 78.594C137.029 78.664 138.287 78.344 139.559 77.726H139.562ZM135.425 73.91V73.9H137.591C138.399 73.899 138.458 73.822 138.261 73.035C137.924 71.689 136.797 70.872 135.441 70.991C133.841 71.131 132.715 72.157 132.583 73.564C132.553 73.876 132.69 73.914 132.943 73.912L135.427 73.909L135.425 73.91ZM124.442 78.104L127.216 70.627C127.436 70.004 127.733 69.725 128.396 69.837C128.643 69.879 128.904 69.844 129.256 69.844L128.106 72.899L125.723 79.251C125.595 79.598 125.448 79.741 125.051 79.743C123.326 79.744 123.329 79.758 122.726 78.155L119.83 70.505C119.643 70.02 119.63 69.8 120.267 69.835C121.565 69.903 121.225 69.628 121.682 70.815L124.198 77.515C124.256 77.671 124.328 77.823 124.443 78.097L124.442 78.104ZM110.218 74.404C110.265 75.239 110.128 76.259 110.288 77.269C110.418 78.091 110.668 78.307 111.511 78.349C112.063 78.377 112.617 78.367 113.171 78.369C113.831 78.373 113.517 78.872 113.571 79.164C113.613 79.44 113.671 79.771 113.171 79.744C112.323 79.698 111.471 79.792 110.625 79.624C109.403 79.384 108.812 78.776 108.678 77.524C108.475 75.644 108.598 73.758 108.596 71.874C108.596 71.29 108.492 70.987 107.844 71.104C107.304 71.201 107.394 70.808 107.404 70.504C107.414 70.2 107.254 69.744 107.848 69.844C108.504 69.952 108.644 69.651 108.59 69.069C108.542 68.544 108.592 68.011 108.576 67.482C108.566 67.164 108.668 67.042 109.009 67.026C110.229 66.969 110.227 66.956 110.227 68.146C110.227 68.548 110.252 68.953 110.22 69.353C110.188 69.753 110.357 69.858 110.735 69.847C111.522 69.824 112.311 69.869 113.097 69.831C113.657 69.804 113.574 70.149 113.585 70.488C113.595 70.851 113.612 71.148 113.077 71.118C112.292 71.075 111.502 71.128 110.715 71.098C110.31 71.083 110.209 71.228 110.219 71.598C110.243 72.466 110.227 73.334 110.227 74.381L110.218 74.404ZM117.363 74.778L117.375 79.155C117.385 79.627 117.265 79.767 116.78 79.752C115.726 79.72 115.725 79.748 115.724 78.664L115.708 70.547C115.702 69.997 115.841 69.752 116.413 69.849C116.537 69.869 116.67 69.867 116.795 69.849C117.232 69.786 117.382 69.944 117.373 70.399C117.343 71.859 117.363 73.317 117.363 74.776V74.778ZM117.363 67.016C117.364 68.063 116.979 68.413 115.983 68.032C115.383 67.802 115.821 67.102 115.739 66.624C115.705 66.424 115.567 66.064 115.982 66.028C116.362 65.996 116.747 66.022 117.129 66.02C117.337 66.019 117.365 66.156 117.364 66.317V67.015L117.363 67.016ZM33.446 73.549C35.503 75.119 36.004 77.602 37.366 79.739C36.672 79.739 36.131 79.736 35.591 79.74C35.301 79.742 35.275 79.497 35.185 79.32L33.555 76.09C32.912 74.734 31.898 74.092 30.362 74.157C28.802 74.223 28.802 74.171 28.802 75.7V79.257C28.812 79.659 28.679 79.747 28.296 79.75C27.003 79.756 27.003 79.77 27.003 78.463L27 67.143C26.998 66.673 27.1 66.523 27.598 66.537C29.108 66.583 30.62 66.494 32.128 66.633C34.758 66.875 36.216 69.133 35.361 71.61C35.045 72.528 34.611 72.966 33.445 73.537L33.446 73.549ZM28.8 70.36L28.797 72.33C28.793 72.587 28.862 72.727 29.152 72.714C30.042 72.674 30.939 72.794 31.827 72.629C32.997 72.412 33.631 71.664 33.657 70.466C33.687 69.169 33.151 68.411 31.961 68.136C30.996 67.913 30.011 68.072 29.035 68.036C28.771 68.026 28.801 68.226 28.8 68.392V70.362V70.36ZM55.995 78.318C54.851 79.858 53.365 80.196 51.683 79.876C50.223 79.598 49.385 78.58 49.273 77.076C49.161 75.572 49.901 74.381 51.267 73.876C51.8866 73.6486 52.5393 73.5247 53.199 73.509C53.837 73.491 54.476 73.499 55.114 73.499C56.111 73.498 56.244 73.306 55.849 72.379C55.531 71.629 54.914 71.249 54.145 71.091C52.935 70.841 51.78 71.068 50.648 71.496C50.455 71.569 50.288 71.728 50.058 71.688C50.043 71.643 50.018 71.605 50.018 71.566C50.048 70.056 49.716 70.386 51.225 69.926C52.235 69.618 53.273 69.579 54.319 69.686C56.039 69.86 57.276 70.96 57.526 72.709C57.846 74.939 57.609 77.191 57.669 79.433C57.675 79.653 57.579 79.733 57.366 79.73C57.3447 79.7288 57.3233 79.7291 57.302 79.731C56.075 79.836 56.075 79.836 55.995 78.321V78.318ZM54.537 74.764C53.771 74.759 53.007 74.781 52.263 74.986C51.256 75.264 50.823 75.918 50.92 76.978C51 77.86 51.66 78.49 52.605 78.588C54.411 78.773 55.657 77.781 55.977 75.905C56.171 74.769 56.177 74.765 55.047 74.765H54.547L54.537 74.764ZM46.789 77.792C46.864 79.574 47.061 79.174 45.556 79.652C44.513 79.982 43.426 80.072 42.336 79.935C39.146 79.535 37.791 77.078 38.053 74.235C38.227 72.341 38.985 70.765 40.849 70.025C42.464 69.383 44.121 69.369 45.574 70.485C47.016 71.592 47.264 73.185 47.216 74.885C47.206 75.281 46.919 75.171 46.713 75.172C44.606 75.178 42.498 75.196 40.393 75.162C39.823 75.152 39.71 75.335 39.799 75.852C40.079 77.485 41.239 78.517 42.903 78.6C44.0324 78.6568 45.1598 78.4532 46.198 78.005C46.388 77.925 46.56 77.775 46.788 77.801L46.789 77.792ZM42.632 73.909V73.9H44.862C45.618 73.899 45.666 73.84 45.515 73.12C45.228 71.756 44.069 70.88 42.697 70.99C41.085 71.117 39.863 72.233 39.797 73.603C39.783 73.95 39.992 73.909 40.202 73.909H42.622H42.632ZM70.982 74.424C70.982 73.374 70.962 72.504 70.992 71.638C71.007 71.223 70.886 71.068 70.46 71.098C70.253 71.113 69.916 71.244 69.845 70.96C69.765 70.644 69.785 70.28 69.861 69.958C69.911 69.75 70.201 69.826 70.374 69.85C70.902 69.924 71.024 69.69 70.992 69.21C70.954 68.61 70.995 68.025 70.978 67.433C70.968 67.129 71.085 67.045 71.383 67.029C72.633 66.961 72.62 66.949 72.639 68.172C72.647 68.714 72.394 69.434 72.761 69.747C73.073 70.013 73.774 69.83 74.303 69.841C74.601 69.847 74.899 69.842 75.196 69.842C75.954 69.843 76.16 70.136 75.976 70.885C75.904 71.175 75.703 71.103 75.531 71.105C74.723 71.113 73.914 71.123 73.106 71.102C72.756 71.092 72.623 71.188 72.626 71.56L72.649 76.893C72.667 78.011 72.994 78.31 74.115 78.348C74.5828 78.366 75.0511 78.3683 75.519 78.355C75.829 78.345 75.971 78.415 75.984 78.769C76.019 79.729 76.038 79.731 75.064 79.727C74.364 79.724 73.664 79.751 72.967 79.607C71.859 79.38 71.311 78.84 71.102 77.723C70.886 76.567 71.032 75.4 70.984 74.423L70.982 74.424ZM68.164 71.73C67.337 71.332 66.564 71.096 65.764 71.003C63.984 70.797 62.571 71.77 62.17 73.509C61.967 74.389 61.972 75.275 62.18 76.153C62.617 77.996 64.22 78.925 66.27 78.536C66.774 78.44 67.266 78.302 67.72 78.064C68.11 77.86 68.167 77.999 68.17 78.372C68.182 79.422 68.194 79.432 67.19 79.712C66.29 79.966 65.35 80.072 64.412 79.932C62.147 79.595 60.66 78.084 60.388 75.818C60.261 74.763 60.285 73.706 60.638 72.68C61.313 70.71 63.044 69.584 65.356 69.623C66.082 69.635 66.79 69.756 67.49 69.958C67.98 70.098 68.272 70.318 68.17 70.883C68.126 71.128 68.162 71.388 68.162 71.729L68.164 71.73Z" fill="#4DB4CF"/>
</svg>
