<svg width="166" height="94" viewBox="0 0 166 94" fill="none" xmlns="http://www.w3.org/2000/svg">
<rect width="166" height="94" fill="white"/>
<path d="M102.876 37.9001L100.899 37.2771L101.204 35.929C102.7 28.666 101.722 22.815 98.3806 20.889C95.1776 19.042 89.9386 20.969 84.6486 25.572C84.1272 26.0268 83.6173 26.4946 83.1196 26.975C82.7866 26.655 82.4476 26.342 82.1026 26.035C76.5596 21.112 70.9996 19.038 67.6636 20.97C64.4636 22.822 63.5156 28.323 64.8636 35.206C64.9977 35.8878 65.149 36.566 65.3176 37.2401C64.5316 37.4631 63.7716 37.7001 63.0446 37.9551C56.5446 40.2211 52.3926 43.7731 52.3926 47.458C52.3926 51.2631 56.8496 55.0801 63.6206 57.3941C64.1695 57.5808 64.723 57.7539 65.2806 57.913C65.1006 58.639 64.9386 59.37 64.7986 60.105C63.5146 66.869 64.5186 72.2391 67.6986 74.0801C70.9946 75.9801 76.5286 74.0271 81.9156 69.3181C82.3416 68.946 82.7686 68.551 83.1956 68.1381C83.7347 68.658 84.2883 69.1629 84.8556 69.6521C90.0736 74.1521 95.2276 75.9561 98.4156 74.1101C101.709 72.203 102.78 66.4341 101.39 59.4151C101.28 58.8652 101.157 58.318 101.022 57.774C101.412 57.659 101.792 57.541 102.164 57.417C109.204 55.085 113.784 51.3151 113.784 47.4571C113.784 43.7591 109.499 40.1831 102.867 37.9001H102.876Z" fill="#53C1DE"/>
<path d="M101.35 54.9259L100.32 55.2489C99.5426 52.7889 98.4936 50.1729 97.2096 47.4689C98.4346 44.8289 99.4426 42.2489 100.198 39.8039L102.023 40.3799C107.705 42.3359 111.171 45.2279 111.171 47.4559C111.171 49.8299 107.428 52.9109 101.351 54.9259H101.35ZM98.8276 59.9229C99.4416 63.0269 99.5296 65.8229 99.1226 68.0269C98.7566 69.9969 98.0226 71.3119 97.1226 71.8389C95.1876 72.9589 91.0496 71.5029 86.5866 67.6629C86.0746 67.2229 85.5596 66.7629 85.0426 66.2549C86.7726 64.3629 88.5026 62.1629 90.1896 59.7199C93.1576 59.4569 95.9626 59.0259 98.5056 58.4379C98.6306 58.9429 98.7416 59.4379 98.8376 59.9229H98.8276ZM73.3246 71.6449C71.4246 72.3129 69.9286 72.3319 69.0186 71.8069C67.0816 70.6899 66.2766 66.3769 67.3746 60.5939C67.5051 59.9103 67.6545 59.2303 67.8226 58.5549C70.3376 59.1109 73.1226 59.5119 76.0966 59.7529C77.7966 62.1529 79.5746 64.3409 81.3666 66.2649C80.9855 66.6335 80.5954 66.9926 80.1966 67.3419C77.8146 69.4249 75.4266 70.9019 73.3236 71.6449H73.3246ZM64.4676 54.9099C61.4736 53.8869 59.0006 52.5569 57.3076 51.1059C55.7846 49.8019 55.0156 48.5059 55.0156 47.4559C55.0156 45.2199 58.3486 42.3679 63.9086 40.4299C64.6066 40.1879 65.3116 39.9659 66.0216 39.7649C66.7896 42.2649 67.7976 44.8769 69.0146 47.5199C67.7826 50.2019 66.7606 52.8559 65.9846 55.3849C65.4755 55.2394 64.97 55.0813 64.4686 54.9109L64.4676 54.9099ZM67.4376 34.6999C66.2836 28.8019 67.0496 24.3539 68.9776 23.2379C71.0316 22.0479 75.5736 23.7449 80.3616 27.9949C80.6738 28.273 80.9808 28.5567 81.2826 28.8459C79.4986 30.7609 77.7366 32.9419 76.0526 35.3189C73.1646 35.5869 70.4006 36.0169 67.8596 36.5919C67.7031 35.9649 67.5624 35.3341 67.4376 34.6999ZM93.9236 41.2399C93.3234 40.203 92.7009 39.1791 92.0566 38.1689C94.0166 38.4159 95.8926 38.7449 97.6566 39.1489C97.1266 40.8449 96.4666 42.6189 95.6916 44.4359C95.1243 43.3593 94.5355 42.2941 93.9256 41.2409L93.9236 41.2399ZM83.1236 30.7199C84.3236 32.0299 85.5436 33.4939 86.7366 35.0819C84.319 34.9676 81.8973 34.9669 79.4796 35.0799C80.6726 33.5069 81.8946 32.0449 83.1236 30.7199ZM72.2516 41.2599C71.6493 42.3046 71.0715 43.3633 70.5186 44.4349C69.7546 42.6229 69.1016 40.8419 68.5686 39.1219C70.3206 38.7299 72.1886 38.4099 74.1356 38.1659C73.4836 39.1819 72.8556 40.2139 72.2536 41.2589L72.2516 41.2599ZM74.1996 56.9349C72.299 56.7287 70.4101 56.4249 68.5406 56.0249C69.0826 54.2749 69.7406 52.4549 70.5406 50.6049C71.0956 51.6779 71.6766 52.7369 72.2806 53.7819C72.8981 54.8481 73.541 55.8994 74.2086 56.9349H74.1996ZM83.2036 64.3779C81.9606 63.0359 80.7206 61.5529 79.5096 59.9579C80.6856 60.0039 81.8836 60.0279 83.1016 60.0279C84.3536 60.0279 85.5916 59.9999 86.8086 59.9459C85.6835 61.4846 84.4803 62.9645 83.2036 64.3799V64.3779ZM95.7136 50.4999C96.5336 52.3699 97.2266 54.1799 97.7756 55.8999C95.9956 56.3059 94.0736 56.6329 92.0476 56.8759C92.6966 55.8472 93.3251 54.8057 93.9326 53.7519C94.5506 52.6819 95.1426 51.5959 95.7126 50.4989L95.7136 50.4999ZM91.6606 52.4429C90.7304 54.0588 89.7479 55.644 88.7146 57.1959C86.8926 57.3259 85.0106 57.3929 83.0916 57.3929C81.2372 57.3942 79.3832 57.3355 77.5326 57.2169C76.4726 55.6687 75.4716 54.0809 74.5316 52.4569C73.596 50.8417 72.722 49.1915 71.9116 47.5099C72.7199 45.8278 73.5912 44.1766 74.5236 42.5599C75.4557 40.9432 76.4488 39.3624 77.5006 37.8209C79.3266 37.6829 81.1986 37.6209 83.0906 37.6209C84.9906 37.6209 86.8666 37.6939 88.6906 37.8329C89.7306 39.3729 90.7186 40.9479 91.6486 42.5569C92.5846 44.1699 93.4666 45.8129 94.2956 47.4839C93.4756 49.1709 92.5956 50.8289 91.6576 52.4539L91.6606 52.4429ZM97.0706 23.1529C99.1266 24.3389 99.9266 29.1209 98.6346 35.3929C98.5496 35.8029 98.4576 36.2079 98.3586 36.6129C95.8116 36.0249 93.0446 35.5879 90.1586 35.3159C88.4716 32.9139 86.7236 30.7289 84.9586 28.8379C85.4186 28.3949 85.8886 27.9629 86.3706 27.5429C90.9036 23.5979 95.1406 22.0399 97.0706 23.1529Z" fill="white"/>
<path d="M83.0924 41.9741C86.1204 41.9741 88.5754 44.4291 88.5754 47.4571C88.5754 50.4851 86.1204 52.9401 83.0924 52.9401C80.0644 52.9401 77.6094 50.4851 77.6094 47.4571C77.6094 44.4291 80.0644 41.9741 83.0924 41.9741Z" fill="#53C1DE"/>
</svg>
