<svg width="166" height="94" viewBox="0 0 166 94" fill="none" xmlns="http://www.w3.org/2000/svg">
<rect width="166" height="94" fill="white"/>
<path d="M53 17H113V77H53V17Z" fill="#F7DF1E"/>
<path d="M68.7764 67.1399L73.3664 64.3599C74.2524 65.9299 75.0584 67.2599 76.9914 67.2599C78.8444 67.2599 80.0114 66.5349 80.0114 63.7159V44.5459H85.6494V63.7959C85.6494 69.6359 82.2264 72.2939 77.2314 72.2939C72.7214 72.2939 70.1014 69.9579 68.7734 67.1389L68.7764 67.1399ZM88.7114 66.5349L93.3014 63.8769C94.5114 65.8509 96.0814 67.3009 98.8594 67.3009C101.195 67.3009 102.685 66.1329 102.685 64.5209C102.685 62.5879 101.155 61.9029 98.5774 60.7759L97.1674 60.1709C93.0994 58.4409 90.4014 56.2649 90.4014 51.6729C90.4014 47.4429 93.6234 44.2229 98.6584 44.2229C102.243 44.2229 104.82 45.4729 106.673 48.7329L102.273 51.5529C101.306 49.8209 100.259 49.1369 98.6484 49.1369C96.9984 49.1369 95.9484 50.1839 95.9484 51.5529C95.9484 53.2429 96.9954 53.9299 99.4124 54.9769L100.812 55.5809C105.605 57.6349 108.302 59.7289 108.302 64.4409C108.302 69.5159 104.315 72.2949 98.9584 72.2949C93.7224 72.2949 90.3384 69.7979 88.6884 66.5349" fill="black"/>
</svg>
