<svg width="138" height="28" viewBox="0 0 138 28" fill="none" xmlns="http://www.w3.org/2000/svg">
<path fill-rule="evenodd" clip-rule="evenodd" d="M1.82617 1.80493H26.2816V26.1952H1.82617V1.80493ZM5.73904 5.70737V10.9758L17.0862 22.2927H22.3688V17.5123L10.5323 5.70737H5.73904ZM5.73904 22.2927V16.4947L11.5526 22.2927H5.73904ZM22.3688 5.70737V11.9934L16.0659 5.70737H22.3688ZM110.846 6.08423C110.846 7.24476 109.896 8.19214 108.733 8.19214C107.569 8.19214 106.643 7.24476 106.643 6.08423C106.643 4.92369 107.569 4 108.733 4C109.896 4 110.846 4.92369 110.846 6.08423ZM110.561 9.21057V20.6501H106.904V9.21057H110.561ZM58.3628 20.6501L53.9219 14.4211L58.149 9.21057H53.732L50.241 13.7817V4.85264H46.5839V20.6501H50.241V17.9027L51.3334 16.6001L53.8507 20.6501H58.3628ZM39.4982 20.9343C42.7753 20.9343 44.6989 19.3712 44.6989 17.1922C44.6989 14.1017 41.8109 13.6137 39.8415 13.2809C38.8226 13.1087 38.0495 12.9781 38.0495 12.5501C38.0495 12.1001 38.6195 11.7685 39.4744 11.7685C40.8518 11.7685 42.1579 12.3606 42.8466 13.0238L44.2477 10.4422C43.0128 9.54215 41.398 8.92635 39.4507 8.92635C36.2922 8.92635 34.5349 10.679 34.5349 12.6922C34.5349 15.6808 37.3007 16.1367 39.2711 16.4615C40.3613 16.6412 41.208 16.7808 41.208 17.2869C41.208 17.7843 40.7568 18.0922 39.6644 18.0922C38.3108 18.0922 36.4822 17.3106 35.6273 16.5527L34.1074 19.158C35.3186 20.2475 37.4321 20.9343 39.4982 20.9343ZM69.6687 19.4185C68.5288 20.437 66.629 20.9343 64.8717 20.9343C61.3333 20.9343 58.626 18.637 58.626 14.9185C58.626 11.6027 61.1195 8.92635 64.7054 8.92635C68.1014 8.92635 70.5711 11.4132 70.5711 15.2975V16.1264H62.4019C62.6631 17.1448 63.613 17.9975 65.2754 17.9975C66.0828 17.9975 67.4127 17.6422 68.0776 17.0264L69.6687 19.4185ZM62.3544 13.6396H67.0802C66.9852 12.8343 66.3915 11.8632 64.7054 11.8632C63.1143 11.8632 62.4969 12.8106 62.3544 13.6396ZM76.7183 20.9343C78.0719 20.9343 78.9743 20.6028 79.4255 20.1764L78.7131 17.4291C78.5943 17.5712 78.1906 17.7133 77.7869 17.7133C77.1695 17.7133 76.7895 17.2159 76.7895 16.5527V12.3606H79.1168V9.21057H76.7895V6.08423H73.1324V9.21057H71.2325V12.3606H73.1324V17.5712C73.1324 19.7738 74.391 20.9343 76.7183 20.9343ZM91.1415 18.8264C90.4528 19.8212 88.933 20.9343 86.4394 20.9343C82.8535 20.9343 80.1938 18.4949 80.1938 14.9185C80.1938 11.3422 82.8535 8.92635 86.4394 8.92635C88.933 8.92635 90.4528 10.0158 91.1415 11.0343L88.7667 13.2369C88.3155 12.5738 87.5793 12.1474 86.6057 12.1474C85.0858 12.1474 83.9222 13.1895 83.9222 14.9185C83.9222 16.6475 85.0858 17.7133 86.6057 17.7133C87.5793 17.7133 88.3155 17.2396 88.7667 16.6001L91.1415 18.8264ZM104.25 20.6501V12.5027C104.25 10.3948 103.063 8.92635 100.451 8.92635C98.527 8.92635 97.1734 9.80268 96.4847 10.6079V4.85264H92.8276V20.6501H96.4847V13.2606C96.9122 12.7395 97.6246 12.1474 98.6933 12.1474C99.8569 12.1474 100.593 12.5974 100.593 13.9948V20.6501H104.25ZM117.629 20.9343C120.906 20.9343 122.83 19.3712 122.83 17.1922C122.83 14.1017 119.942 13.6137 117.972 13.2809C116.954 13.1087 116.18 12.9781 116.18 12.5501C116.18 12.1001 116.75 11.7685 117.605 11.7685C118.983 11.7685 120.289 12.3606 120.978 13.0238L122.379 10.4422C121.144 9.54215 119.529 8.92635 117.582 8.92635C114.423 8.92635 112.666 10.679 112.666 12.6922C112.666 15.6808 115.432 16.1367 117.402 16.4615C118.492 16.6412 119.339 16.7808 119.339 17.2869C119.339 17.7843 118.888 18.0922 117.795 18.0922C116.442 18.0922 114.613 17.3106 113.758 16.5527L112.238 19.158C113.45 20.2475 115.563 20.9343 117.629 20.9343ZM136.161 12.5027V20.6501H132.504V13.9948C132.504 12.5974 131.768 12.1474 130.604 12.1474C129.536 12.1474 128.823 12.7395 128.396 13.2606V20.6501H124.739V4.85264H128.396V10.6079C129.084 9.80268 130.438 8.92635 132.362 8.92635C134.974 8.92635 136.161 10.3948 136.161 12.5027Z" fill="white"/>
</svg>
