<svg width="128" height="112" viewBox="0 0 128 112" fill="none" xmlns="http://www.w3.org/2000/svg">
<path opacity="0.2" fill-rule="evenodd" clip-rule="evenodd" d="M0 61.7366C0 75.9415 2.14197 92.6958 6.42596 112H55.1562V65.0146H28.3813V52.4488C28.3813 42.2504 30.4341 34.6017 34.5396 29.5024C38.6451 24.4032 45.3387 21.8537 54.6207 21.8537V0C36.7707 0 23.2049 5.19019 13.9229 15.5707C4.64093 25.9513 0 41.3397 0 61.7366ZM72.2955 61.7366C72.2955 75.9415 74.4375 92.6958 78.7215 112H127.452V65.0146H100.677V52.4488C100.677 42.2504 102.73 34.6017 106.835 29.5024C110.941 24.4032 117.634 21.8537 126.916 21.8537V0C109.066 0 95.5005 5.19019 86.2185 15.5707C76.9365 25.9513 72.2955 41.3397 72.2955 61.7366Z" fill="#707580"/>
</svg>
