<svg width="231" height="50" viewBox="0 0 231 50" fill="none" xmlns="http://www.w3.org/2000/svg">
<path fill-rule="evenodd" clip-rule="evenodd" d="M77.2057 31.2551H67.2673L63.391 39.4636H58.9961L64.7118 27.3598H75.3746L71.7714 19.6972H68.3445L68.63 19.0882C69.7072 16.7909 70.7718 14.4852 71.8658 12.1942L72.2564 11.3752L85.3614 39.4636H81.0672L77.2057 31.2551ZM91.8561 26.3056C91.8374 27.6364 92.0881 28.9573 92.5931 30.1887C93.0981 31.4202 93.847 32.5367 94.7946 33.4713C95.7422 34.4058 96.8691 35.139 98.1074 35.6268C99.3457 36.1146 100.67 36.3468 102 36.3096C103.663 36.3523 105.311 35.9853 106.799 35.2408C108.287 34.4963 109.569 33.3973 110.532 32.0405L110.792 31.7024L113.908 34.0942L113.665 34.4302C111.946 36.8177 109.514 38.5986 106.719 39.5167C103.924 40.4348 100.91 40.4428 98.1096 39.5397C95.3097 38.6365 92.8684 36.8686 91.1366 34.4903C89.4048 32.1119 88.4718 29.2456 88.4718 26.3035C88.4718 23.3614 89.4048 20.4951 91.1366 18.1168C92.8684 15.7384 95.3097 13.9705 98.1096 13.0674C100.91 12.1642 103.924 12.1722 106.719 13.0903C109.514 14.0084 111.946 15.7893 113.665 18.1769L113.908 18.5149L110.792 20.9067L110.532 20.5687C109.569 19.2119 108.287 18.1128 106.799 17.3683C105.311 16.6238 103.663 16.2568 102 16.2995C100.67 16.2623 99.3454 16.4946 98.1069 16.9825C96.8685 17.4704 95.7415 18.2038 94.7938 19.1386C93.8462 20.0733 93.0974 21.1902 92.5925 22.4218C92.0876 23.6535 91.8371 24.9746 91.8561 26.3056ZM122.761 26.3056C122.742 27.6364 122.993 28.9573 123.498 30.1887C124.003 31.4202 124.752 32.5367 125.7 33.4713C126.647 34.4058 127.774 35.139 129.012 35.6268C130.251 36.1146 131.575 36.3468 132.905 36.3096C134.569 36.3584 136.219 35.9944 137.708 35.2502C139.196 34.506 140.477 33.4047 141.437 32.0447L141.697 31.7024L144.813 34.0942L144.57 34.4302C142.851 36.8177 140.419 38.5986 137.624 39.5167C134.829 40.4348 131.815 40.4428 129.015 39.5397C126.215 38.6365 123.773 36.8686 122.042 34.4903C120.31 32.1119 119.377 29.2456 119.377 26.3035C119.377 23.3614 120.31 20.4951 122.042 18.1168C123.773 15.7384 126.215 13.9705 129.015 13.0674C131.815 12.1642 134.829 12.1722 137.624 13.0903C140.419 14.0084 142.851 15.7893 144.57 18.1769L144.813 18.5149L141.697 20.9067L141.437 20.5666C140.478 19.2061 139.197 18.1044 137.708 17.3598C136.219 16.6152 134.569 16.251 132.905 16.2995C131.575 16.2623 130.25 16.4946 129.012 16.9825C127.774 17.4704 126.647 18.2038 125.699 19.1386C124.751 20.0733 124.002 21.1902 123.498 22.4218C122.993 23.6535 122.742 24.9746 122.761 26.3056ZM196.626 28.6827L203.048 39.4469H198.478L192.364 29.2161H187.377V39.4469H183.416V25.3124H193.361C193.949 25.3756 194.544 25.3143 195.107 25.1325C195.67 24.9508 196.188 24.6526 196.628 24.2573C197.068 23.8621 197.42 23.3787 197.661 22.8385C197.901 22.2983 198.026 21.7134 198.026 21.122C198.026 20.5305 197.901 19.9457 197.661 19.4055C197.42 18.8653 197.068 18.3819 196.628 17.9866C196.188 17.5914 195.67 17.2932 195.107 17.1114C194.544 16.9297 193.949 16.8684 193.361 16.9316H183.416V13.0279H193.407C194.511 12.9656 195.616 13.1293 196.655 13.5091C197.693 13.8889 198.643 14.4768 199.446 15.2366C200.25 15.9965 200.889 16.9124 201.326 17.9282C201.763 18.944 201.988 20.0383 201.987 21.144C202.01 22.8071 201.503 24.4342 200.539 25.7896C199.575 27.145 198.205 28.1584 196.626 28.6827ZM163.178 12.4021C165.917 12.3769 168.602 13.1645 170.893 14.6654C173.183 16.1663 174.978 18.3131 176.048 20.834C177.119 23.3549 177.418 26.1368 176.907 28.8277C176.397 31.5186 175.099 33.9975 173.18 35.9509C171.26 37.9042 168.804 39.2443 166.122 39.8015C163.441 40.3586 160.654 40.1079 158.115 39.081C155.576 38.054 153.399 36.2971 151.859 34.0323C150.318 31.7676 149.484 29.0969 149.462 26.3581C149.423 24.5348 149.749 22.7221 150.422 21.0268C151.094 19.3316 152.099 17.7881 153.377 16.4874C154.656 15.1867 156.181 14.1552 157.865 13.4535C159.548 12.7519 161.355 12.3944 163.178 12.4021ZM208.186 39.4636V13.0279H214.099C215.457 13.0279 216.829 13.0552 218.172 13.1665C219.634 13.2508 221.079 13.5196 222.473 13.9665C224.739 14.9589 226.694 16.5456 228.133 18.5585C229.571 20.5714 230.438 22.9357 230.642 25.4012C230.847 27.8666 230.381 30.3414 229.294 32.5637C228.207 34.7861 226.539 36.6731 224.468 38.0252C222.079 39.088 219.476 39.5805 216.864 39.4636H208.186ZM163.29 16.2995C161.984 16.3073 160.693 16.5746 159.491 17.0858C158.29 17.597 157.202 18.3419 156.291 19.2772C155.38 20.2125 154.664 21.3196 154.184 22.5341C153.705 23.7486 153.472 25.0463 153.498 26.3518C153.489 27.6555 153.739 28.9481 154.233 30.1544C154.728 31.3608 155.457 32.4569 156.378 33.3792C157.3 34.3015 158.395 35.0315 159.601 35.527C160.807 36.0224 162.099 36.2734 163.403 36.2653C164.706 36.2573 165.996 35.9903 167.195 35.48C168.395 34.9697 169.481 34.2261 170.391 33.2925C171.301 32.3589 172.017 31.2538 172.496 30.0414C172.975 28.829 173.209 27.5335 173.184 26.23C173.199 24.9248 172.953 23.6298 172.462 22.4206C171.97 21.2114 171.243 20.1124 170.321 19.1877C169.4 18.2631 168.304 17.5314 167.096 17.0355C165.889 16.5396 164.595 16.2894 163.29 16.2995ZM212.047 35.6376H214.195C215.634 35.6376 217.072 35.6082 218.504 35.4822C219.393 35.4286 220.274 35.2765 221.129 35.0286C222.859 34.4408 224.343 33.2911 225.345 31.7626C226.346 30.234 226.808 28.4144 226.656 26.5933C226.805 24.6276 226.284 22.6693 225.179 21.0373C224.073 19.4053 222.447 18.1958 220.566 17.6057C219.986 17.4361 219.395 17.309 218.796 17.2256C218.13 17.1269 217.463 17.0639 216.793 17.0156C215.554 16.9358 214.313 16.9211 213.074 16.9211H212.043L212.047 35.6376Z" fill="white"/>
<path fill-rule="evenodd" clip-rule="evenodd" d="M22.754 0.652949C22.9212 0.362885 23.3398 0.36284 23.5072 0.652868L44.0769 36.305C44.2441 36.5949 44.0349 36.9571 43.7003 36.9571H41.069C40.836 36.9571 40.6206 36.8327 40.5042 36.6309L23.3198 6.85198C23.2361 6.70698 23.0268 6.70702 22.9432 6.85204L21.3777 9.56684C21.3001 9.70128 21.3002 9.86684 21.3777 10.0013L40.3116 42.8265C40.4788 43.1164 40.2696 43.4785 39.935 43.4785H29.7796C29.5469 43.4785 29.3318 43.3545 29.2152 43.1532L15.7597 19.9146C15.6758 19.7698 15.4666 19.7701 15.3831 19.9152L13.8351 22.6063C13.7577 22.7407 13.7579 22.9062 13.8355 23.0405L29.0315 49.3478C29.199 49.6376 28.9898 50 28.6551 50H18.4241C18.1898 50 17.9735 49.8743 17.8575 49.6707L8.3021 32.9009C8.21872 32.7546 8.00779 32.7546 7.92438 32.9009L5.79128 36.6428C5.67985 36.8383 5.67705 37.0773 5.78386 37.2754L7.02515 39.5766C7.18139 39.8662 6.97161 40.2178 6.6425 40.2178H0.748286C0.414664 40.2178 0.205359 39.8575 0.370583 39.5677L7.72885 26.6598C7.89563 26.3672 8.31739 26.3672 8.48422 26.6597L19.81 46.5199C19.8874 46.6555 20.0315 46.7393 20.1877 46.7393H23.3687C23.536 46.7393 23.6406 46.5581 23.557 46.4132L10.132 23.1563C10.0157 22.9549 10.0155 22.7068 10.1315 22.5051L15.1856 13.7192C15.3525 13.429 15.771 13.4285 15.9387 13.7181L31.2204 40.1094C31.2592 40.1765 31.3309 40.2178 31.4085 40.2178H34.6656C34.8329 40.2178 34.9375 40.0367 34.8539 39.8918L17.676 10.1103C17.5597 9.90863 17.5597 9.66029 17.676 9.45864L22.754 0.652949Z" fill="white"/>
</svg>
