<svg width="264" height="50" viewBox="0 0 264 50" fill="none" xmlns="http://www.w3.org/2000/svg">
<path d="M48.4386 2.28293C42.6027 -1.3562 34.9198 -0.496989 28.0676 3.81094C21.2368 -0.49461 13.5491 -1.3562 7.72035 2.28293C-1.50006 8.04509 -2.62107 22.8872 5.21889 35.4302C10.9977 44.6816 20.0348 50.0986 28.0795 49.9986C36.1241 50.0986 45.1613 44.6816 50.9401 35.4302C58.7705 22.8872 57.659 8.04509 48.4386 2.28293ZM9.4578 32.7836C7.84078 30.2202 6.62106 27.4269 5.84009 24.4985C5.14568 21.9574 4.88022 19.3181 5.05466 16.6895C5.40453 12.0555 7.29193 8.44495 10.367 6.52185C13.442 4.59875 17.5072 4.48688 21.8366 6.20292C22.4947 6.46757 23.1389 6.76546 23.7668 7.09544C21.3605 9.28769 19.2684 11.8018 17.55 14.5665C12.7899 22.1827 11.3381 30.6605 12.9993 37.4152C11.6759 35.986 10.4902 34.4353 9.4578 32.7836ZM50.3213 24.4985C49.5393 27.4266 48.3196 30.2197 46.7036 32.7836C45.6716 34.4386 44.4859 35.9925 43.162 37.4247C44.6472 31.3674 43.638 23.9487 39.9965 16.9894C39.8799 16.7567 39.6698 16.5845 39.4186 16.5159C39.1675 16.4474 38.8991 16.4888 38.6803 16.63L27.3274 23.725C27.1184 23.8551 26.9698 24.063 26.9144 24.3028C26.8591 24.5426 26.9015 24.7946 27.0323 25.0031L28.6983 27.6664C28.8284 27.8754 29.0363 28.024 29.2761 28.0794C29.5159 28.1347 29.7679 28.0924 29.9764 27.9615L37.3356 23.3656C37.5736 24.0796 37.8116 24.7818 37.9901 25.5077C38.6843 28.0489 38.9498 30.6881 38.7755 33.3167C38.4257 37.9531 36.5383 41.5637 33.4632 43.4868C31.8771 44.4565 30.0597 44.9826 28.2009 45.01H27.9629C26.1039 44.9832 24.2864 44.4571 22.7005 43.4868C19.6231 41.5637 17.7357 37.9531 17.3858 33.3167C17.2128 30.6882 17.4782 28.0491 18.1712 25.5077C19.7672 19.629 23.0643 14.3529 27.6487 10.3419C29.6259 8.60559 31.878 7.21009 34.3129 6.21243C38.6304 4.4964 42.7027 4.60826 45.7801 6.53136C48.8575 8.45446 50.7426 12.065 51.0924 16.699C51.2693 19.3236 51.0087 21.9594 50.3213 24.4985Z" fill="white"/>
<path d="M113.026 13.5468C106.371 13.5468 100.993 18.7421 100.993 25.3516C100.993 31.916 106.371 37.0263 113.026 37.0263C119.726 37.0263 125.104 31.9239 125.104 25.3516C125.104 18.7447 119.734 13.5494 113.026 13.5494V13.5468ZM113.026 30.8546C109.959 30.8546 107.624 28.3737 107.624 25.3065C107.624 22.2392 109.959 19.7211 113.026 19.7211C116.138 19.7211 118.473 22.2471 118.473 25.3144C118.473 28.3817 116.138 30.8652 113.026 30.8652V30.8546ZM140.109 4.48008H127.863C127.596 4.47514 127.338 4.57925 127.15 4.76854C126.961 4.95784 126.857 5.21594 126.863 5.48323V35.3362C126.844 35.6125 126.941 35.8843 127.131 36.0858C127.321 36.2874 127.586 36.4004 127.863 36.3976H140.109C149.908 36.3976 156.716 29.8809 156.716 20.4004C156.716 10.8616 149.908 4.48008 140.109 4.48008ZM140.398 30.0931H133.698V10.7687H140.398C145.821 10.7687 149.56 14.8257 149.56 20.3871C149.56 25.8557 145.821 30.0931 140.398 30.0931ZM181.09 14.1889H176.486C175.959 14.2306 175.547 14.6628 175.531 15.1919V16.5583C174.483 14.8257 172.113 13.5494 169.163 13.5494C163.421 13.5494 158.043 18.0601 158.043 25.264C158.043 32.4281 163.373 37.021 169.118 37.021C172.079 37.021 174.496 35.7474 175.544 34.0148V35.4264C175.547 35.9532 175.973 36.3799 176.499 36.3842H181.103C181.359 36.3901 181.606 36.2911 181.787 36.1101C181.968 35.9292 182.067 35.6822 182.061 35.4264V15.1919C182.069 14.929 181.97 14.6742 181.787 14.4853C181.604 14.2964 181.353 14.1895 181.09 14.1889ZM170.381 30.905C167.332 30.905 165.042 28.5621 165.042 25.3118C165.042 22.0614 167.332 19.7211 170.381 19.7211C173.43 19.7211 175.719 22.0588 175.719 25.3091C175.719 28.5595 173.432 30.9024 170.381 30.9024V30.905ZM206.931 4.48026H202.327C202.067 4.47241 201.814 4.56943 201.626 4.74953C201.438 4.92964 201.33 5.17773 201.327 5.43812V16.4681C200.266 14.8257 197.862 13.5494 194.855 13.5494C189.156 13.5494 183.871 18.0601 183.871 25.264C183.871 32.4281 189.201 37.021 194.946 37.021C197.907 37.021 200.141 35.7474 201.372 34.0148V35.4264C201.374 35.9538 201.8 36.3813 202.327 36.3842H206.931C207.187 36.3909 207.434 36.2921 207.615 36.111C207.797 35.9299 207.895 35.6824 207.889 35.4264V5.44343C207.897 5.1865 207.799 4.93759 207.617 4.75532C207.436 4.57306 207.188 4.47356 206.931 4.48026ZM196.222 30.9608C193.186 30.9608 190.915 28.594 190.915 25.3091C190.915 22.0243 193.194 19.6575 196.222 19.6575C199.249 19.6575 201.529 22.0243 201.529 25.3091C201.529 28.594 199.26 30.9608 196.222 30.9608ZM232.767 4.48026H228.171C227.91 4.47241 227.658 4.56935 227.469 4.74938C227.281 4.92941 227.172 5.17749 227.168 5.43812V16.4681C226.12 14.8257 223.703 13.5494 220.696 13.5494C214.997 13.5494 209.712 18.0601 209.712 25.264C209.712 32.4281 215.045 37.021 220.787 37.021C223.75 37.021 225.982 35.7474 227.213 34.0148V35.4264C227.216 35.9542 227.643 36.3813 228.171 36.3842H232.767C233.022 36.3909 233.27 36.292 233.45 36.1109C233.631 35.9297 233.729 35.6821 233.722 35.4264V5.44343C233.731 5.18675 233.633 4.93781 233.452 4.75546C233.271 4.5731 233.023 4.47352 232.767 4.48026ZM222.058 30.9608C219.02 30.9608 216.751 28.594 216.751 25.3091C216.751 22.0243 219.03 19.6575 222.058 19.6575C225.085 19.6575 227.364 22.0243 227.364 25.3091C227.364 28.594 225.101 30.9608 222.066 30.9608H222.058ZM257.973 15.7411L251.104 39.3003C249.777 43.4926 246.819 46 242.215 46C240.122 46 238.217 45.5728 236.723 44.7184C235.852 44.2223 235.131 43.7685 235.131 43.0415C235.131 42.5904 235.277 42.3569 235.542 41.9351L236.906 39.892C237.291 39.3215 237.574 39.1358 237.988 39.1358C238.316 39.1438 238.634 39.2542 238.896 39.4515C239.753 40.0061 240.549 40.4837 241.761 40.4837C243.178 40.4837 244.261 40.0299 244.845 38.3424L245.434 36.3869H242.653C241.968 36.3869 241.592 35.9783 241.422 35.429L235.274 15.7411C235.046 14.9663 235.255 14.1915 236.394 14.1915H241.236C241.828 14.1915 242.242 14.3932 242.502 15.2396L247.042 31.0934L251.287 15.2396C251.422 14.693 251.789 14.1915 252.518 14.1915H257.111C258.016 14.1889 258.289 14.8257 257.973 15.7411ZM99.2577 22.7486V35.3335C99.2619 35.6107 99.1537 35.8778 98.9577 36.0738C98.7617 36.2698 98.4946 36.378 98.2175 36.3736H94.4179C94.1405 36.3787 93.873 36.2708 93.6768 36.0746C93.4806 35.8784 93.3727 35.6109 93.3778 35.3335V32.0301C90.9658 35.0761 86.7709 36.9945 82.0267 36.9945C73.1167 36.9945 66.1543 30.2921 66.1543 20.7507C66.1543 10.8351 73.6713 4 83.1676 4C90.1778 4 95.7817 7.01422 98.2705 13.0771C98.3403 13.2373 98.379 13.4093 98.3846 13.5839C98.3846 13.8705 98.1963 14.0881 97.5886 14.2977L93.1522 16.0064C92.8846 16.1174 92.5847 16.1222 92.3138 16.0197C92.0762 15.8794 91.8901 15.6664 91.7831 15.4121C90.1911 12.3846 87.3573 10.3283 82.9952 10.3283C77.3382 10.3283 73.2865 14.7461 73.2865 20.4747C73.2865 26.0282 76.7359 30.5946 83.157 30.5946C86.5347 30.5946 89.2279 29.0026 90.4829 27.254H86.4764C86.1992 27.2584 85.9321 27.1502 85.7361 26.9542C85.5401 26.7582 85.4319 26.4911 85.4363 26.2139V22.7937C85.4319 22.5166 85.5401 22.2495 85.7361 22.0535C85.9321 21.8575 86.1992 21.7493 86.4764 21.7536H98.2175C98.4895 21.7397 98.7552 21.8386 98.9521 22.0269C99.1489 22.2152 99.2594 22.4762 99.2577 22.7486ZM258.098 9.5296V9.22446C258.098 9.20306 258.105 9.1823 258.119 9.16609C258.135 9.15251 258.155 9.14497 258.175 9.14486H260.115C260.135 9.14416 260.156 9.15181 260.17 9.16609C260.184 9.1823 260.192 9.20306 260.192 9.22446V9.5296C260.192 9.55013 260.184 9.56992 260.17 9.58532C260.156 9.5996 260.135 9.60725 260.115 9.60655H259.406V11.5196C259.405 11.563 259.37 11.5978 259.327 11.5992H258.961C258.94 11.5991 258.921 11.5904 258.907 11.5753C258.892 11.5608 258.884 11.5407 258.884 11.5196V9.60655H258.175C258.154 9.60816 258.134 9.60057 258.119 9.58577C258.104 9.57098 258.097 9.55046 258.098 9.5296ZM261.489 9.21385L262.02 10.4424L262.551 9.21385C262.559 9.19208 262.574 9.17348 262.593 9.16078C262.615 9.14934 262.64 9.14386 262.665 9.14486H263.28C263.301 9.14333 263.321 9.15057 263.335 9.16476C263.35 9.17895 263.358 9.19874 263.357 9.21915V11.5223C263.359 11.5426 263.351 11.5627 263.337 11.5774C263.323 11.5921 263.303 11.6 263.283 11.5992H262.938C262.917 11.5999 262.897 11.5923 262.882 11.578C262.867 11.5636 262.859 11.5431 262.861 11.5223V9.78432L262.291 11.0473C262.282 11.0712 262.268 11.0923 262.248 11.1083C262.226 11.1204 262.201 11.126 262.176 11.1243H261.895C261.871 11.1256 261.847 11.1201 261.826 11.1083C261.806 11.093 261.791 11.0717 261.784 11.0473L261.216 9.78432V11.5223C261.216 11.5428 261.208 11.5626 261.195 11.578C261.18 11.591 261.161 11.5985 261.142 11.5992H260.789C260.77 11.5994 260.751 11.5917 260.738 11.578C260.723 11.5636 260.715 11.5431 260.717 11.5223V9.21915C260.716 9.19874 260.724 9.17895 260.739 9.16476C260.754 9.15057 260.774 9.14333 260.794 9.14486H261.391C261.415 9.1442 261.439 9.14968 261.46 9.16078C261.475 9.17535 261.485 9.19375 261.489 9.21385Z" fill="white"/>
</svg>
