<svg width="184" height="80" viewBox="0 0 184 80" fill="none" xmlns="http://www.w3.org/2000/svg">
<path d="M46.6922 6.68262C46.5964 6.69272 46.2332 6.71797 45.8952 6.74323C33.9308 7.65743 23.3282 15.1125 18.269 26.1637C16.7407 29.5023 15.8327 32.947 15.4191 37.0432C15.3031 38.1443 15.3081 41.8162 15.4191 42.9577C15.7672 46.4731 16.443 49.3319 17.6486 52.3725C21.2046 61.3528 28.69 68.4897 37.7995 71.5959C40.3922 72.4748 42.8537 72.99 45.8952 73.2728C46.8687 73.3637 50.561 73.3486 51.5295 73.2526C55.0653 72.894 57.9152 72.2121 60.9164 71.0201C69.345 67.6613 76.1646 60.8225 79.5189 52.3725C80.7042 49.3874 81.4053 46.4327 81.7433 43.0082C81.8341 42.0435 81.8744 39.0282 81.8088 37.9523C81.4759 32.7399 80.0132 27.8456 77.4407 23.3605L77.012 22.6079L78.737 20.8704C80.5579 19.0319 80.6185 18.9612 80.7395 18.4359C80.9766 17.4156 80.3461 16.36 79.3272 16.0822C79.2213 16.057 77.7686 15.9155 76.104 15.7741C74.4345 15.6327 73.0574 15.5014 73.0372 15.4913C73.0221 15.4711 72.896 14.0922 72.7548 12.4204C72.6135 10.7435 72.4774 9.28886 72.4471 9.18279C72.316 8.70296 71.9326 8.19787 71.524 7.97563C71.1003 7.74834 70.5506 7.66248 70.1016 7.7736C69.5771 7.89482 69.5064 7.95038 67.6754 9.77878L65.9403 11.5062L65.214 11.0869C64.1799 10.496 63.3224 10.0515 62.4095 9.63231C58.9392 8.05645 55.5294 7.1574 51.5799 6.75838C50.909 6.69777 47.1966 6.63716 46.6922 6.68262ZM49.7489 10.6172C54.3793 10.8294 58.5104 11.9708 62.5759 14.1578L63.04 14.4053L61.8445 15.6125C60.1447 17.3197 60.2102 17.1328 60.412 19.5218C60.4877 20.4108 60.5482 21.1533 60.5482 21.1735C60.5482 21.1937 60.4725 21.1634 60.3817 21.1078C57.093 19.1178 53.8951 18.0622 50.2836 17.7793C48.8712 17.6682 46.7426 17.744 45.2748 17.9561C41.3203 18.5319 37.4616 20.2744 34.3545 22.8705C29.7089 26.7597 26.8691 32.26 26.395 38.2958C26.3395 39.0332 26.3395 40.9929 26.395 41.7304C26.7934 46.8216 28.8766 51.5391 32.3621 55.2666C35.8526 59.0042 40.5284 61.4185 45.5775 62.1155C47.4538 62.3681 50.0011 62.3529 51.8977 62.065C58.0564 61.1407 63.6251 57.5799 67.0853 52.3523C68.3917 50.3824 69.3148 48.3874 69.9453 46.1801C70.5354 44.1194 70.7927 42.2556 70.7927 40.0282C70.7927 38.7756 70.7523 38.1039 70.6111 37.0331C70.2277 34.1137 69.1887 31.1135 67.6704 28.583C67.4888 28.28 67.3425 28.0224 67.3526 28.0123C67.3627 28.0072 68.0991 28.0628 68.9869 28.1386C70.7977 28.2951 70.8935 28.2901 71.408 28.0477C71.6653 27.9315 71.8469 27.7699 72.9011 26.7092L74.1066 25.5071L74.3487 25.9667C74.6968 26.6183 75.3575 27.987 75.5946 28.5477C77.6778 33.4925 78.3739 38.9978 77.592 44.3467C76.4672 51.9987 72.3563 58.883 66.1118 63.5853C58.8887 69.0251 49.5068 70.7828 40.7049 68.3584C35.0253 66.7926 29.8854 63.454 26.0217 58.8224C20.4833 52.1805 18.1782 43.483 19.6813 34.8562C20.8566 28.083 24.4631 21.8755 29.8098 17.4055C34.7681 13.2588 40.8613 10.895 47.3076 10.6223C48.498 10.5667 48.6846 10.5667 49.7489 10.6172ZM69.0676 15.7943C69.1382 16.7035 69.224 17.5621 69.2492 17.7086C69.3803 18.4157 69.8696 18.9915 70.5556 19.2188C70.7069 19.2693 71.3576 19.3451 72.553 19.4461C73.5265 19.5319 74.3386 19.6027 74.3638 19.6128C74.384 19.6178 73.355 20.6633 72.094 21.9311L69.7939 24.2393L67.2769 24.0272C65.8898 23.911 64.7499 23.8151 64.7499 23.81C64.7448 23.81 64.649 22.6685 64.533 21.2745L64.3211 18.7491L66.6212 16.4408C67.8873 15.1731 68.9213 14.1427 68.9314 14.1478C68.9213 14.1528 68.9919 14.8953 69.0676 15.7943ZM49.4715 21.6886C53.2142 21.8957 56.5735 23.118 59.5444 25.3505L60.0236 25.7091L57.2595 28.477L54.5004 31.2448L54.339 31.1539C52.7804 30.2043 51.5143 29.7346 49.8599 29.5124C49.3101 29.4366 47.8221 29.4366 47.2874 29.5124C44.8763 29.8407 42.7881 30.866 41.1236 32.5429C38.7781 34.8915 37.6735 38.1897 38.1274 41.4576C38.5209 44.2962 40.0088 46.8014 42.2988 48.5035C44.3013 49.9935 46.8385 50.7411 49.2495 50.5592C52.8056 50.2865 55.8068 48.453 57.6226 45.4377C59.6554 42.0587 59.605 37.6543 57.5016 34.3915L57.2998 34.0834L60.069 31.3105L62.8382 28.5376L63.1963 29.0174C67.857 35.2552 68.1042 43.68 63.8167 50.1299C63.1207 51.1754 62.5507 51.8724 61.6125 52.8371C58.8736 55.6454 55.4235 57.4536 51.5648 58.1052C49.6178 58.4385 47.4488 58.4284 45.4766 58.085C42.2837 57.5294 39.3582 56.1707 36.8412 54.0645C36.2561 53.5796 35.1918 52.5189 34.6722 51.9027C32.2057 48.9985 30.7732 45.6347 30.3596 41.8112C30.2688 40.9172 30.2688 39.1039 30.3596 38.2099C30.7328 34.7602 31.9485 31.654 34.0014 28.9366C34.9345 27.7042 36.2964 26.3405 37.512 25.4111C40.5385 23.118 44.1096 21.825 47.8826 21.6735C48.5736 21.6432 48.7149 21.6482 49.4715 21.6886ZM49.8195 33.5127C50.334 33.6137 50.9595 33.8208 51.3277 34.0127L51.6051 34.149L49.3 36.4674C47.9381 37.8412 46.9494 38.8665 46.8839 38.9878C46.5358 39.5989 46.5409 40.4929 46.904 41.0536C47.0453 41.2758 47.3126 41.5435 47.5245 41.6799C48.1247 42.0637 49.0326 42.0587 49.6581 41.6647C49.759 41.6041 50.8787 40.5182 52.1398 39.2605L54.4348 36.9674L54.6114 37.3462C54.8131 37.7806 54.9796 38.311 55.0855 38.8766C55.1914 39.4221 55.1914 40.5939 55.0905 41.1445C54.5609 43.9123 52.4777 46.0034 49.7136 46.5337C49.1688 46.6347 47.9986 46.6347 47.4539 46.5337C44.6897 46.0034 42.6065 43.9123 42.0769 41.1445C41.971 40.5838 41.976 39.4221 42.0819 38.8564C42.43 37.0381 43.4438 35.4976 44.9671 34.4875C45.8448 33.9016 46.7124 33.5935 47.9835 33.4116C48.271 33.3662 49.4109 33.4268 49.8195 33.5127Z" fill="white"/>
<path d="M99.958 28.8911H102.657L107.348 51.1148L105.517 50.2965L104.155 43.7608V43.68H104.129L101.431 30.8306H101.158L98.3792 43.68H98.354V43.786L96.9316 50.2915L95.1309 51.1097L99.958 28.8911ZM98.6516 43.68L101.295 31.4569L103.857 43.68H98.6516ZM102.061 42.0132L101.269 38.023L100.478 42.0132H102.061ZM97.204 50.3218L98.5961 43.9527H103.913L105.274 50.3218L103.832 51.1148L102.742 45.4831H99.7966L98.6516 51.1148L97.204 50.3218ZM111.928 42.2859H115.393C115.867 42.2859 116.311 42.3768 116.724 42.5587C117.143 42.7405 117.511 42.9981 117.829 43.3264C118.147 43.6547 118.399 44.0335 118.581 44.4628C118.762 44.8922 118.853 45.3518 118.853 45.8417V50.2965L117.269 51.0895V45.6498C117.269 45.1043 117.077 44.6396 116.699 44.2557C116.316 43.8719 115.857 43.68 115.307 43.68H113.537V51.1148L111.928 50.3218V42.2859ZM118.803 34.0581V38.6796C118.803 39.1342 118.717 39.5686 118.54 39.9777C118.369 40.3868 118.132 40.7454 117.834 41.0434C117.531 41.3465 117.188 41.5788 116.795 41.7556C116.407 41.9273 115.983 42.0132 115.529 42.0132H111.928V30.6993H115.529C115.983 30.6993 116.407 30.7852 116.795 30.9569C117.188 31.1286 117.531 31.3711 117.834 31.6842C118.137 31.9923 118.369 32.3509 118.54 32.76C118.717 33.1692 118.803 33.6035 118.803 34.0581ZM113.542 32.3661V40.21H115.559C116.013 40.21 116.402 40.0383 116.729 39.6898C117.057 39.3463 117.224 38.917 117.224 38.4069V34.1692C117.224 33.6591 117.057 33.2298 116.729 32.8863C116.402 32.5378 116.013 32.3661 115.559 32.3661H113.542ZM120.654 34.1692V38.4069C120.654 39.0989 120.538 39.7504 120.301 40.3616C120.064 40.9727 119.736 41.5131 119.317 41.9879C119.756 42.4627 120.099 43.0133 120.356 43.6446C120.613 44.2709 120.739 44.9427 120.739 45.6548V51.0946L119.13 50.3016V45.8468C119.13 44.973 118.873 44.2002 118.354 43.5234C117.834 42.8516 117.188 42.392 116.402 42.1546C117.163 41.9526 117.794 41.5334 118.293 40.897C118.792 40.2606 119.045 39.5231 119.045 38.6847V34.0632C119.045 33.5732 118.954 33.1085 118.772 32.6691C118.591 32.2297 118.339 31.8509 118.021 31.5226C117.703 31.1943 117.33 30.9316 116.906 30.7397C116.477 30.5478 116.023 30.4569 115.529 30.4569H111.928H111.655V30.7044V42.0182V42.2657V50.3319L110.076 51.1249V43.6901V40.2151V32.3711V28.8911H113.537H115.554C116.265 28.8911 116.926 29.0326 117.542 29.3154C118.162 29.5982 118.702 29.9771 119.166 30.4518C119.63 30.9266 119.993 31.4822 120.255 32.1186C120.523 32.755 120.654 33.4369 120.654 34.1692ZM125.314 42.2859H128.78C129.254 42.2859 129.698 42.3768 130.116 42.5587C130.535 42.7405 130.898 42.9981 131.216 43.3264C131.534 43.6547 131.786 44.0335 131.968 44.4628C132.149 44.8922 132.24 45.3518 132.24 45.8417V50.2965L130.661 51.0895V45.6498C130.661 45.1043 130.469 44.6396 130.086 44.2557C129.703 43.8719 129.244 43.68 128.694 43.68H126.923V51.1148L125.314 50.3218V42.2859ZM132.189 34.0581V38.6796C132.189 39.1342 132.104 39.5686 131.927 39.9777C131.756 40.3868 131.519 40.7454 131.221 41.0434C130.918 41.3465 130.575 41.5788 130.187 41.7556C129.794 41.9273 129.375 42.0132 128.916 42.0132H125.314V30.6993H128.916C129.37 30.6993 129.794 30.7852 130.187 30.9569C130.575 31.1286 130.918 31.3711 131.221 31.6842C131.524 31.9923 131.756 32.3509 131.927 32.76C132.104 33.1692 132.189 33.6035 132.189 34.0581ZM126.923 32.3661V40.21H128.941C129.395 40.21 129.788 40.0383 130.116 39.6898C130.444 39.3463 130.606 38.917 130.606 38.4069V34.1692C130.606 33.6591 130.444 33.2298 130.116 32.8863C129.788 32.5378 129.395 32.3661 128.941 32.3661H126.923ZM134.041 34.1692V38.4069C134.041 39.0989 133.925 39.7504 133.688 40.3616C133.45 40.9727 133.123 41.5131 132.709 41.9879C133.143 42.4627 133.486 43.0133 133.743 43.6446C134 44.2709 134.126 44.9427 134.126 45.6548V51.0946L132.517 50.3016V45.8468C132.517 44.973 132.26 44.2002 131.741 43.5234C131.221 42.8516 130.575 42.392 129.789 42.1546C130.555 41.9526 131.186 41.5334 131.685 40.897C132.184 40.2606 132.437 39.5231 132.437 38.6847V34.0632C132.437 33.5732 132.346 33.1085 132.164 32.6691C131.983 32.2297 131.73 31.8509 131.413 31.5226C131.095 31.1943 130.722 30.9316 130.293 30.7397C129.864 30.5478 129.41 30.4569 128.916 30.4569H125.314H125.042V30.7044V42.0182V42.2657V50.3319L123.463 51.1249V43.6901V40.2151V32.3711V28.8911H126.923H128.941C129.652 28.8911 130.313 29.0326 130.933 29.3154C131.549 29.5982 132.089 29.9771 132.553 30.4518C133.017 30.9266 133.38 31.4822 133.642 32.1186C133.91 32.755 134.041 33.4369 134.041 34.1692ZM142.278 28.9214H142.525C143.271 28.9214 143.972 29.0628 144.638 29.3406C145.299 29.6235 145.874 30.0124 146.368 30.5023C146.858 30.9973 147.246 31.5731 147.528 32.2398C147.811 32.9065 147.947 33.6136 147.947 34.3561V45.6498C147.947 46.3973 147.806 47.1044 147.528 47.7661C147.246 48.4328 146.858 49.0086 146.368 49.5036C145.874 49.9985 145.299 50.3824 144.638 50.6653C143.972 50.9481 143.271 51.0895 142.525 51.0895H142.278C141.531 51.0895 140.83 50.9481 140.164 50.6653C139.498 50.3824 138.923 49.9985 138.434 49.5036C137.94 49.0136 137.556 48.4328 137.274 47.7661C136.991 47.0994 136.85 46.3922 136.85 45.6498V34.3561C136.85 33.6086 136.991 32.9015 137.274 32.2398C137.556 31.5782 137.94 30.9973 138.434 30.5023C138.923 30.0124 139.498 29.6235 140.164 29.3406C140.83 29.0628 141.531 28.9214 142.278 28.9214ZM146.419 45.9225V34.2197C146.419 33.6944 146.318 33.1995 146.121 32.7297C145.919 32.2651 145.652 31.861 145.319 31.5276C144.981 31.1892 144.583 30.9216 144.119 30.7246C143.655 30.5225 143.17 30.4266 142.661 30.4266H142.303C141.773 30.4266 141.279 30.5276 140.82 30.7246C140.356 30.9266 139.957 31.1943 139.619 31.5276C139.281 31.866 139.014 32.2651 138.812 32.7297C138.611 33.1944 138.515 33.6894 138.515 34.2197V45.9225C138.515 46.4528 138.616 46.9428 138.812 47.3974C139.014 47.852 139.281 48.251 139.619 48.5843C139.957 48.9227 140.356 49.1904 140.82 49.3874C141.284 49.5894 141.778 49.6904 142.303 49.6904H142.661C143.17 49.6904 143.655 49.5894 144.119 49.3874C144.583 49.1854 144.981 48.9177 145.319 48.5843C145.657 48.2459 145.924 47.852 146.121 47.3974C146.323 46.9428 146.419 46.4528 146.419 45.9225ZM142.303 30.6993H142.661C143.15 30.6993 143.609 30.7902 144.038 30.9721C144.467 31.1539 144.835 31.4064 145.153 31.7246C145.47 32.0428 145.723 32.4166 145.904 32.8459C146.086 33.2752 146.177 33.7349 146.177 34.2248V45.9276C146.177 46.4175 146.086 46.8771 145.904 47.3115C145.723 47.7408 145.47 48.1146 145.153 48.4328C144.835 48.751 144.462 49.0035 144.038 49.1854C143.609 49.3672 143.155 49.4581 142.661 49.4581H142.303C141.813 49.4581 141.354 49.3672 140.926 49.1854C140.497 49.0035 140.129 48.751 139.811 48.4328C139.493 48.1146 139.241 47.7408 139.059 47.3115C138.878 46.8822 138.787 46.4225 138.787 45.9276V34.2248C138.787 33.7349 138.878 33.2752 139.059 32.8459C139.241 32.4166 139.493 32.0428 139.811 31.7246C140.129 31.4064 140.502 31.1539 140.926 30.9721C141.354 30.7902 141.813 30.6993 142.303 30.6993ZM144.487 45.6498V34.3561C144.487 33.8106 144.295 33.3459 143.917 32.9621C143.534 32.5782 143.075 32.3863 142.525 32.3863H142.278C141.733 32.3863 141.269 32.5782 140.885 32.9621C140.502 33.3459 140.31 33.8106 140.31 34.3561V45.6498C140.31 46.1953 140.502 46.6599 140.885 47.0438C141.269 47.4277 141.728 47.6196 142.278 47.6196H142.525C143.069 47.6196 143.534 47.4277 143.917 47.0438C144.295 46.6599 144.487 46.1953 144.487 45.6498ZM162.726 49.3925H162.973L166.817 29.7093L168.668 28.8911L164.633 49.8016L164.386 51.1148H161.359L161.112 49.7763L159.664 42.0435L158.222 49.7763L157.975 51.1148H154.948L154.701 49.8016L150.666 28.8911L152.467 29.7093L156.285 49.3925H156.527L159.664 34.0834L162.726 49.3925ZM159.806 33.4015H159.533L156.426 48.7106L152.714 29.7144L154.187 28.8962L156.426 40.5434L157.924 32.6691L158.141 31.3862H161.198L161.415 32.6691L162.913 40.5434L165.152 28.8962L166.544 29.7144L162.862 48.7106L159.806 33.4015Z" fill="white"/>
</svg>
