<svg width="50" height="50" viewBox="0 0 50 50" fill="none" xmlns="http://www.w3.org/2000/svg">
<circle cx="25" cy="25" r="24.5" stroke="#707580"/>
<path fill-rule="evenodd" clip-rule="evenodd" d="M20.7871 18.2712C20.7871 17.152 19.879 16.2439 18.7615 16.2439C17.6418 16.2439 16.7363 17.152 16.7363 18.2712C16.7363 19.3892 17.6418 20.2973 18.7615 20.2973C19.879 20.2973 20.7871 19.3892 20.7871 18.2712ZM20.5096 33.0788H17.0139V21.8337H20.5096V33.0788ZM26.054 21.8337H22.7019V33.0788H26.1954V27.5165C26.1954 26.0499 26.4725 24.6282 28.2912 24.6282C30.0851 24.6282 30.1074 26.3056 30.1074 27.6099V33.0788H33.6009V26.9112C33.6009 23.8833 32.9477 21.5549 29.4088 21.5549C27.7087 21.5549 26.5685 22.487 26.102 23.3715H26.054V21.8337Z" fill="#40444D"/>
</svg>
