<svg width="50" height="50" viewBox="0 0 50 50" fill="none" xmlns="http://www.w3.org/2000/svg">
<circle cx="25" cy="25" r="24.5" stroke="#707580"/>
<path fill-rule="evenodd" clip-rule="evenodd" d="M17 17C15.8954 17 15 17.8954 15 19V31C15 32.1046 15.8954 33 17 33H33C34.1046 33 35 32.1046 35 31V19C35 17.8954 34.1046 17 33 17H17ZM31.8593 20.4468C31.5538 19.9867 30.9331 19.8614 30.473 20.1669L25.5556 23.4322C25.2198 23.6552 24.7829 23.6548 24.4476 23.4311L19.5548 20.168C19.0954 19.8616 18.4745 19.9857 18.168 20.4451C17.8616 20.9046 17.9857 21.5255 18.4452 21.832L23.3379 25.095C24.3439 25.766 25.6545 25.7673 26.6619 25.0984L31.5794 21.8331C32.0395 21.5276 32.1648 20.9069 31.8593 20.4468Z" fill="#40444D"/>
<mask id="mask0" mask-type="alpha" maskUnits="userSpaceOnUse" x="15" y="17" width="20" height="16">
<path fill-rule="evenodd" clip-rule="evenodd" d="M17 17C15.8954 17 15 17.8954 15 19V31C15 32.1046 15.8954 33 17 33H33C34.1046 33 35 32.1046 35 31V19C35 17.8954 34.1046 17 33 17H17ZM31.8593 20.4468C31.5538 19.9867 30.9331 19.8614 30.473 20.1669L25.5556 23.4322C25.2198 23.6552 24.7829 23.6548 24.4476 23.4311L19.5548 20.168C19.0954 19.8616 18.4745 19.9857 18.168 20.4451C17.8616 20.9046 17.9857 21.5255 18.4452 21.832L23.3379 25.095C24.3439 25.766 25.6545 25.7673 26.6619 25.0984L31.5794 21.8331C32.0395 21.5276 32.1648 20.9069 31.8593 20.4468Z" fill="white"/>
</mask>
<g mask="url(#mask0)">
<rect x="13" y="13" width="24" height="24" fill="#40444D"/>
</g>
</svg>
