<svg width="166" height="94" viewBox="0 0 166 94" fill="none" xmlns="http://www.w3.org/2000/svg">
<rect width="166" height="94" fill="white"/>
<path d="M83.4995 49.006H75.3355V40.87H83.5235V48.97C85.6311 48.97 87.707 48.4561 89.5711 47.4726C91.4352 46.4891 93.0314 45.0659 94.2212 43.3262C95.411 41.5865 96.1585 39.5829 96.3991 37.489C96.6396 35.3951 96.3658 33.2742 95.6015 31.31C94.9807 29.6416 94.0041 28.1283 92.7395 26.8755C91.4749 25.6226 89.9526 24.6601 88.2785 24.055C79.1295 20.75 70.4995 27.433 70.4995 36.072H62.3115C62.3115 22.302 75.7095 11.564 90.2365 16.074C96.5765 18.054 101.641 23.066 103.61 29.366C108.16 43.803 97.3545 57.12 83.5005 57.12V49.006H83.4995ZM75.3355 55.234H69.0695V49.006H75.3365V55.234H75.3355ZM69.0685 49.006H63.7995V43.78H69.0575V49.006H69.0685ZM48.4915 65.376C49.0915 65.758 49.5475 66.331 49.8845 67.046C50.1965 67.762 50.3645 68.596 50.3645 69.528C50.3645 70.46 50.1965 71.328 49.8845 72.034C49.5485 72.75 49.0925 73.334 48.5145 73.728C47.4585 74.516 46.1145 74.898 44.5765 74.898H41.1895V64.278H44.5515C46.0885 64.278 47.4315 64.636 48.4895 65.376H48.4915ZM43.1615 66.068V73.108H44.2415C45.4415 73.108 46.4015 72.868 47.0985 72.416C47.9145 71.891 48.3235 70.913 48.3235 69.529C48.3235 68.193 47.9155 67.262 47.0985 66.761C46.3545 66.308 45.3935 66.069 44.2185 66.069H43.1585L43.1615 66.068ZM52.6935 64.135C53.0053 64.1376 53.3049 64.2568 53.5335 64.469C53.6425 64.5734 53.7287 64.6993 53.7865 64.8387C53.8443 64.9782 53.8726 65.1281 53.8695 65.279C53.8725 65.4336 53.8443 65.5873 53.7865 65.7307C53.7288 65.8742 53.6427 66.0046 53.5335 66.114C53.2935 66.329 53.0055 66.448 52.6935 66.448C52.3575 66.448 52.0695 66.328 51.8535 66.114C51.6375 65.874 51.5175 65.614 51.5175 65.279C51.5175 64.944 51.6375 64.682 51.8535 64.479C52.0792 64.2624 52.3806 64.1426 52.6935 64.145V64.135ZM51.7335 67.405H53.6305V74.898H51.7335V67.405ZM60.5215 68.025H60.4735V67.381H62.3465V74.181C62.3465 75.303 62.0105 76.209 61.3385 76.901C60.6665 77.593 59.7535 77.927 58.6255 77.927C57.7855 77.927 57.0655 77.727 56.5125 77.377C55.9365 77.019 55.5285 76.637 55.2395 76.255L55.2155 76.207L56.5125 74.967C57.1845 75.874 57.7375 76.207 58.6125 76.207C59.1885 76.207 59.6445 76.04 59.9825 75.707C60.3205 75.374 60.4865 74.907 60.4865 74.275V74.1C59.9825 74.506 59.3335 74.697 58.6135 74.697C57.5815 74.697 56.6935 74.339 56.0205 73.647C55.3445 72.94 55.0105 72.034 55.0105 70.984C55.0105 69.886 55.3705 68.979 56.0425 68.287C56.7145 67.571 57.5795 67.213 58.6355 67.213C59.3315 67.213 59.9555 67.513 60.5325 68.013L60.5215 68.025ZM60.0175 72.465C60.3535 72.083 60.5215 71.605 60.5215 71.009C60.5215 70.413 60.3535 69.911 60.0175 69.529C59.8543 69.3485 59.6537 69.2059 59.4297 69.1111C59.2056 69.0163 58.9636 68.9715 58.7205 68.98C58.1925 68.98 57.7365 69.147 57.4235 69.53C57.1105 69.913 56.9435 70.39 56.9435 71.01C56.9435 71.607 57.0875 72.084 57.4235 72.466C57.5866 72.6465 57.7872 72.7891 58.0112 72.8839C58.2353 72.9787 58.4773 73.0235 58.7205 73.015C59.2485 73.015 59.6805 72.848 60.0175 72.465ZM64.0035 67.405H65.8995V74.898H64.0025V67.405H64.0035ZM64.9635 64.135C65.2995 64.135 65.5635 64.255 65.8035 64.469C65.9125 64.5734 65.9987 64.6993 66.0565 64.8387C66.1143 64.9782 66.1426 65.1281 66.1395 65.279C66.1425 65.4336 66.1143 65.5873 66.0565 65.7307C65.9988 65.8742 65.9127 66.0046 65.8035 66.114C65.5635 66.329 65.2755 66.448 64.9635 66.448C64.6275 66.448 64.3395 66.328 64.1235 66.114C63.9075 65.874 63.7875 65.614 63.7875 65.279C63.7875 64.944 63.9075 64.682 64.1235 64.479C64.3492 64.2624 64.6506 64.1426 64.9635 64.145V64.135ZM70.0635 65.375V67.38H71.8405V69.1H70.0635V71.94C70.0635 72.44 70.1355 72.775 70.2795 72.942C70.4235 73.109 70.7115 73.182 71.1675 73.182L71.8155 73.158V74.876H71.6995C71.4115 74.9 71.0995 74.9 70.7875 74.9C69.8275 74.9 69.1305 74.7 68.7475 74.303C68.3645 73.906 68.1715 73.205 68.1715 72.227V69.125H67.0995V67.407H68.1795V65.38H70.0525L70.0635 65.375ZM80.7235 64.253H82.6205V74.896H80.7235V64.256V64.253ZM101.781 72.223L103.031 73.416C102.672 73.9419 102.188 74.37 101.622 74.6616C101.056 74.9532 100.426 75.0991 99.7895 75.086C98.7335 75.086 97.8445 74.704 97.0895 73.964C96.3694 73.224 95.9845 72.294 95.9845 71.172C95.9845 70.05 96.3445 69.12 97.0895 68.38C97.8344 67.64 98.7465 67.258 99.7895 67.258C101.039 67.258 102.069 67.758 102.886 68.808L101.636 70C101.084 69.356 100.436 68.974 99.8365 68.974C99.5766 68.9699 99.3192 69.0233 99.0825 69.1305C98.8458 69.2377 98.6357 69.396 98.4675 69.594C98.1075 70 97.9155 70.524 97.9155 71.169C97.9155 71.789 98.1075 72.339 98.4675 72.744C98.8275 73.174 99.2835 73.364 99.8375 73.364C100.184 73.3715 100.525 73.2807 100.821 73.102C101.085 72.935 101.445 72.602 101.781 72.219V72.223ZM109.585 68.453C109.844 68.8236 110.039 69.235 110.161 69.67C110.287 70.1206 110.352 70.5861 110.353 71.054L110.329 71.746H105.311C105.359 72.223 105.551 72.606 105.863 72.891C106.199 73.191 106.631 73.344 107.16 73.344C107.52 73.344 107.832 73.272 108.12 73.129C108.312 73.034 108.48 72.889 108.672 72.723L109.104 72.293L110.354 73.486L110.306 73.534C109.514 74.536 108.456 75.061 107.186 75.061C106.056 75.061 105.146 74.703 104.449 73.987C103.777 73.271 103.417 72.34 103.417 71.195C103.417 70.073 103.753 69.143 104.377 68.379C105.025 67.615 105.89 67.234 106.947 67.234C107.523 67.234 108.052 67.354 108.507 67.568C108.962 67.782 109.323 68.068 109.587 68.451L109.585 68.453ZM105.431 70.219H108.361C108.337 69.861 108.193 69.575 107.977 69.336C107.737 69.073 107.377 68.954 106.921 68.954C106.537 68.954 106.201 69.074 105.937 69.336C105.697 69.551 105.529 69.861 105.433 70.219H105.431ZM116.861 67.976C117.437 68.453 117.725 69.169 117.797 70.052V74.872H115.924V74.252C115.3 74.752 114.627 75.039 113.907 75.039C113.187 75.039 112.587 74.824 112.082 74.419C111.578 73.989 111.338 73.441 111.338 72.725C111.338 71.925 111.626 71.269 112.202 70.84C112.778 70.411 113.547 70.196 114.482 70.196C114.938 70.196 115.394 70.268 115.875 70.411V70.053C115.875 69.719 115.731 69.456 115.491 69.253C115.227 69.038 114.915 68.953 114.507 68.953C113.763 68.953 113.21 69.239 112.707 70.027L111.482 68.882L111.458 68.858C111.766 68.3432 112.217 67.9288 112.755 67.665C113.301 67.3963 113.901 67.2573 114.508 67.259C115.492 67.259 116.285 67.522 116.861 67.999V67.976ZM113.499 72.033C113.283 72.176 113.187 72.367 113.187 72.63C113.187 72.87 113.283 73.036 113.451 73.18C113.643 73.323 113.883 73.395 114.219 73.395C114.891 73.395 115.444 73.195 115.852 72.822V72.082C115.348 71.915 114.868 71.819 114.412 71.819C114.028 71.819 113.716 71.891 113.5 72.034L113.499 72.033ZM125.024 68.119C125.552 68.692 125.816 69.527 125.816 70.553V74.896H123.919V70.553C123.919 70.076 123.799 69.67 123.559 69.383C123.319 69.096 123.007 68.953 122.575 68.953C122.071 68.953 121.711 69.12 121.445 69.43C121.179 69.74 121.037 70.194 121.037 70.766V74.894H119.14V67.424H120.99V67.877C121.446 67.447 122.07 67.233 122.815 67.233C123.751 67.233 124.495 67.519 125.015 68.116L125.024 68.119ZM78.3465 67.976C78.9225 68.453 79.2105 69.169 79.2825 70.052V74.872H77.3995V74.252C76.7755 74.752 76.1025 75.039 75.3825 75.039C74.6625 75.039 74.0625 74.824 73.5575 74.419C73.0535 73.989 72.8135 73.441 72.8135 72.725C72.8135 71.925 73.1015 71.269 73.6775 70.84C74.2535 70.411 75.0225 70.196 75.9575 70.196C76.4135 70.196 76.8695 70.268 77.3505 70.411V70.053C77.3505 69.719 77.2065 69.456 76.9665 69.253C76.7025 69.038 76.3905 68.953 75.9825 68.953C75.2385 68.953 74.6855 69.239 74.1825 70.027L72.9595 68.86L72.9355 68.836C73.2433 68.3212 73.6938 67.9068 74.2325 67.643C74.7776 67.3743 75.3776 67.2353 75.9855 67.237C76.9695 67.237 77.7625 67.5 78.3385 67.977L78.3465 67.976ZM74.9845 72.033C74.7685 72.176 74.6725 72.367 74.6725 72.63C74.6725 72.87 74.7685 73.036 74.9365 73.18C75.1285 73.323 75.3685 73.395 75.7045 73.395C76.3765 73.395 76.9295 73.195 77.3375 72.822V72.082C76.8335 71.915 76.3535 71.819 75.8975 71.819C75.5135 71.819 75.2015 71.891 74.9855 72.034L74.9845 72.033ZM89.5115 75.063C86.4615 75.063 83.9885 72.605 83.9885 69.563C83.9885 66.521 86.4615 64.063 89.5115 64.063C92.5615 64.063 95.0345 66.521 95.0345 69.563C95.0345 72.605 92.5615 75.063 89.5115 75.063ZM89.5115 66.019C87.5415 66.019 85.9335 67.619 85.9335 69.575C85.9335 71.531 87.5335 73.131 89.5115 73.131C91.4895 73.131 93.0895 71.531 93.0895 69.575C93.0895 67.619 91.4895 66.019 89.5115 66.019Z" fill="#0080FF"/>
</svg>
