<svg width="166" height="94" viewBox="0 0 166 94" fill="none" xmlns="http://www.w3.org/2000/svg">
<rect width="166" height="94" fill="white"/>
<path d="M59.88 64.508V60.322C59.88 59.772 60.224 59.33 60.793 59.33H60.951C61.521 59.33 61.861 59.772 61.861 60.322V69.134C61.861 71.284 60.799 72.994 58.949 74.082C58.1015 74.5841 57.1341 74.8481 56.149 74.846H55.756C53.606 74.846 51.899 73.784 50.808 71.936C50.305 71.089 50.041 70.121 50.045 69.136V68.743C50.045 66.593 51.107 64.885 52.955 63.793C53.8024 63.2897 54.7704 63.0257 55.756 63.029H56.149C57.604 63.029 58.839 63.593 59.879 64.509L59.88 64.508ZM52.028 68.938C52.028 70.49 52.78 71.658 54.141 72.402C54.691 72.702 55.288 72.865 55.916 72.865C57.44 72.865 58.57 72.145 59.349 70.865C59.711 70.265 59.879 69.607 59.879 68.909C59.879 67.563 59.242 66.513 58.159 65.733C57.5189 65.2664 56.746 65.0176 55.954 65.023C54.294 65.023 53.098 65.863 52.381 67.353C52.1438 67.8514 52.0231 68.3971 52.028 68.949V68.938ZM68.738 63.028H69.013C71.31 63.028 73.056 64.142 74.163 66.148C74.6067 66.9407 74.8404 67.8336 74.842 68.742V69.135C74.842 71.285 73.782 72.995 71.93 74.083C71.0825 74.5842 70.1156 74.8477 69.131 74.846H68.738C66.588 74.846 64.881 73.784 63.79 71.936C63.287 71.089 63.023 70.121 63.026 69.136V68.743C63.026 66.593 64.093 64.89 65.926 63.793C66.783 63.283 67.732 63.029 68.728 63.029L68.738 63.028ZM65.008 68.938C65.008 70.445 65.748 71.553 67.02 72.333C67.618 72.699 68.276 72.865 68.974 72.865C70.464 72.865 71.564 72.11 72.329 70.855C72.694 70.255 72.859 69.598 72.859 68.9C72.859 67.5 72.184 66.43 71.029 65.653C70.397 65.228 69.693 65.013 68.932 65.013C67.272 65.013 66.076 65.853 65.359 67.343C65.116 67.847 65.006 68.383 65.006 68.939L65.008 68.938ZM83.083 65.171C82.783 65.031 82.223 64.984 81.9 64.971C80.244 64.909 79.046 65.841 78.343 67.301C78.1 67.805 77.989 68.338 77.989 68.896C77.989 70.594 78.881 71.783 80.396 72.506C80.95 72.771 81.664 72.821 82.269 72.821C82.801 72.821 83.553 72.495 84.025 72.271L84.107 72.231H84.474L84.514 72.239C84.964 72.333 85.304 72.619 85.304 73.104V73.3C85.304 74.507 83.098 74.783 82.257 74.842C79.287 75.047 77.067 73.416 76.219 70.582C76.072 70.09 76.006 69.602 76.006 69.089V68.7C76.006 66.55 77.073 64.848 78.906 63.753C79.763 63.243 80.711 62.988 81.706 62.988H82.099C83.156 62.988 84.129 63.288 85.001 63.884L85.073 63.934L85.118 64.009C85.212 64.165 85.293 64.346 85.293 64.531V64.727C85.293 65.233 84.913 65.505 84.458 65.593L84.42 65.6H84.303C84.007 65.6 83.335 65.294 83.071 65.17L83.083 65.171ZM89.513 66.513L91.837 64.213C92.055 64.001 92.879 63.106 93.204 63.106H93.559L93.599 63.114C94.051 63.208 94.389 63.494 94.389 63.98V64.176C94.389 64.508 94.001 64.893 93.787 65.12L89.991 68.974L93.075 72.084L93.919 72.954C94.017 73.058 94.163 73.187 94.245 73.33C94.335 73.465 94.388 73.616 94.388 73.778V73.983L94.376 74.03C94.266 74.482 93.978 74.847 93.476 74.847H93.318C92.99 74.847 92.62 74.477 92.395 74.264L89.509 71.429V73.817C89.509 74.367 89.165 74.809 88.596 74.809H88.44C87.87 74.809 87.527 74.367 87.527 73.817V60.36C87.527 59.81 87.871 59.36 88.44 59.36H88.596C89.166 59.36 89.509 59.8 89.509 60.36V66.512L89.513 66.513ZM114.219 63.107H114.416C115.011 63.107 115.406 63.507 115.406 64.099C115.406 64.919 114.621 65.129 113.943 65.129C113.043 65.129 112.203 65.669 111.589 66.272C110.824 67.026 110.489 67.992 110.489 69.055V73.855C110.489 74.405 110.145 74.847 109.576 74.847H109.419C108.849 74.847 108.506 74.407 108.506 73.855V68.78C108.506 66.83 109.456 65.24 111.036 64.125C111.964 63.4609 113.077 63.1049 114.218 63.107H114.219ZM100.129 72.607C100.849 72.859 101.673 72.823 102.413 72.694C102.793 72.534 103.76 72.111 104.116 72.174L104.172 72.184L104.222 72.209C104.439 72.314 104.647 72.464 104.758 72.685C105.018 73.205 104.893 73.725 104.383 74.019L104.213 74.117C102.333 75.202 100.333 75.052 98.458 74.037C97.562 73.552 96.876 72.833 96.371 71.957L96.253 71.752C95.046 69.662 95.209 67.462 96.57 65.475C97.04 64.788 97.654 64.257 98.372 63.842L98.644 63.685C100.414 62.663 102.314 62.733 104.131 63.63C105.109 64.112 105.901 64.832 106.447 65.777L106.545 65.947C106.942 66.634 106.428 67.233 105.898 67.642L104.071 69.197L100.128 72.597L100.129 72.607ZM98.427 71.411L104.385 66.285C103.985 65.782 103.319 65.42 102.753 65.203C101.61 64.767 100.483 64.913 99.433 65.519C98.061 66.312 97.476 67.573 97.527 69.144C97.5416 69.7597 97.7193 70.3605 98.042 70.885C98.158 71.07 98.287 71.245 98.426 71.411H98.427ZM87.73 31.7H93.58V37.68H96.537C97.903 37.68 99.307 37.437 100.601 37C101.237 36.784 101.951 36.485 102.577 36.107C101.751 35.029 101.33 33.667 101.207 32.327C101.037 30.502 101.407 28.127 102.642 26.697L103.257 25.987L103.99 26.577C105.835 28.059 107.386 30.13 107.66 32.491C109.88 31.838 112.49 31.991 114.447 33.121L115.25 33.585L114.827 34.41C113.171 37.64 109.709 38.643 106.325 38.465C101.261 51.079 90.225 57.051 76.865 57.051C69.958 57.051 63.622 54.469 60.013 48.351L59.953 48.251L59.427 47.181C58.207 44.484 57.802 41.529 58.077 38.576L58.16 37.692H63.162V31.7H69.012V25.85H80.712V20H87.732V31.7H87.73Z" fill="#364548"/>
<path d="M106.68 33.9101C107.072 30.8621 104.79 28.4681 103.376 27.3301C101.746 29.2151 101.492 34.1551 104.05 36.2341C102.623 37.5021 99.6145 38.6511 96.5345 38.6511H59.0475C58.7475 41.8661 59.3125 44.8261 60.6015 47.3611L61.0275 48.1411C61.2975 48.5991 61.5925 49.0411 61.9115 49.4671L66.1745 49.5711C68.7295 49.5151 70.8145 49.2131 72.3945 48.6651C72.5062 48.6304 72.627 48.6405 72.7314 48.6933C72.8357 48.7461 72.9154 48.8375 72.9535 48.9481C72.9919 49.0585 72.9859 49.1795 72.9366 49.2855C72.8873 49.3916 72.7987 49.4742 72.6895 49.5161L72.0335 49.7221C70.7895 50.0771 69.4555 50.3161 67.7335 50.4221C67.8355 50.4241 67.6275 50.4371 67.6265 50.4371L67.4365 50.4521L65.2805 50.4981C64.4391 50.4998 63.5979 50.4794 62.7575 50.4371L62.7345 50.4521C65.8575 53.9621 70.7415 56.0681 76.8645 56.0681C89.8205 56.0681 100.811 50.3241 105.678 37.4301C109.13 37.7841 112.448 36.9041 113.958 33.9571C111.554 32.5701 108.462 33.0121 106.682 33.9071" fill="#22A0C8"/>
<path d="M106.681 33.9101C107.073 30.8621 104.791 28.4681 103.377 27.3301C101.747 29.2151 101.493 34.1551 104.051 36.2341C102.624 37.5021 99.6157 38.6511 96.5357 38.6511H61.2687C61.1157 43.5741 62.9427 47.3111 66.1757 49.5711C68.7317 49.5151 70.8157 49.2131 72.3957 48.6651C72.5073 48.6304 72.6282 48.6405 72.7325 48.6933C72.8369 48.7461 72.9165 48.8375 72.9547 48.9481C72.9931 49.0585 72.987 49.1795 72.9377 49.2855C72.8884 49.3916 72.7998 49.4742 72.6907 49.5161C72.4907 49.5891 72.2607 49.6561 72.0357 49.7221C70.7907 50.0771 69.3427 50.3471 67.6207 50.4521C67.6197 50.4521 67.5787 50.4121 67.5787 50.4121C71.9887 52.6741 78.3817 52.6661 85.7117 49.8501C93.9317 46.6921 101.58 40.6771 106.916 33.7961C106.836 33.8321 106.756 33.8691 106.681 33.9081" fill="#37B1D9"/>
<path d="M59.1172 42.5601C59.3502 44.2821 59.8542 45.8951 60.6012 47.3631L61.0272 48.1431C61.2972 48.6011 61.5922 49.0431 61.9112 49.4691L66.1742 49.5731C68.7292 49.5171 70.8142 49.2151 72.3942 48.6671C72.5059 48.6324 72.6267 48.6425 72.731 48.6953C72.8354 48.7481 72.9151 48.8395 72.9532 48.9501C72.9916 49.0605 72.9855 49.1815 72.9362 49.2876C72.887 49.3936 72.7984 49.4762 72.6892 49.5181L72.0332 49.7241C70.7892 50.0791 69.3482 50.3241 67.6272 50.4401L67.4052 50.4481L65.2572 50.5081C64.4402 50.5081 63.6042 50.4921 62.7042 50.4481C65.8272 53.9581 70.7422 56.0721 76.8642 56.0721C87.9562 56.0721 97.6062 51.8721 103.207 42.5591H59.1172" fill="#1B81A5"/>
<path d="M61.6055 42.5601C62.2685 45.5841 63.8625 47.9571 66.1755 49.5741C68.7305 49.5181 70.8155 49.2161 72.3955 48.6681C72.5072 48.6334 72.628 48.6435 72.7323 48.6963C72.8367 48.7491 72.9163 48.8405 72.9545 48.9511C72.9929 49.0615 72.9868 49.1825 72.9375 49.2886C72.8882 49.3946 72.7996 49.4772 72.6905 49.5191L72.0345 49.7251C70.7905 50.0801 69.3195 50.3251 67.5975 50.4411C72.0075 52.7011 78.3815 52.6711 85.7115 49.8541C90.1455 48.1501 94.4135 45.6141 98.2415 42.5591H61.6055" fill="#1D91B4"/>
<path d="M64.1367 32.674H69.2067V37.7439H64.1367V32.674ZM64.5587 33.097H64.9587V37.3219H64.5587V33.097ZM65.3107 33.097H65.7267V37.3219H65.3107V33.097ZM66.0787 33.097H66.4947V37.3219H66.0787V33.097ZM66.8467 33.097H67.2627V37.3219H66.8467V33.097ZM67.6147 33.097H68.0307V37.3219H67.6147V33.097ZM68.3827 33.097H68.7827V37.3219H68.3827V33.097ZM69.9847 26.825H75.0547V31.895H69.9847V26.825ZM70.4077 27.2479H70.8077V31.4729H70.4077V27.2479ZM71.1597 27.2479H71.5757V31.4729H71.1597V27.2479ZM71.9277 27.2479H72.3437V31.4729H71.9277V27.2479ZM72.6957 27.2479H73.1117V31.4729H72.6957V27.2479ZM73.4637 27.2479H73.8797V31.4729H73.4637V27.2479ZM74.2317 27.2479H74.6317V31.4729H74.2317V27.2479Z" fill="#23A3C2"/>
<path d="M69.9863 32.6741H75.0563V37.7441H69.9863V32.6741ZM70.4093 33.0971H70.8093V37.3221H70.4093V33.0971ZM71.1613 33.0971H71.5773V37.3221H71.1613V33.0971ZM71.9293 33.0971H72.3453V37.3221H71.9293V33.0971ZM72.6973 33.0971H73.1133V37.3221H72.6973V33.0971ZM73.4653 33.0971H73.8813V37.3221H73.4653V33.0971ZM74.2333 33.0971H74.6333V37.3221H74.2333V33.0971Z" fill="#34BBDE"/>
<path d="M75.8359 32.6741H80.9059V37.7441H75.8359V32.6741ZM76.2579 33.0971H76.6579V37.3221H76.2579V33.0971ZM77.0099 33.0971H77.4259V37.3221H77.0009V33.0971H77.0099ZM77.7779 33.0971H78.1939V37.3221H77.7779V33.0971ZM78.5459 33.0971H78.9619V37.3221H78.5459V33.0971ZM79.3139 33.0971H79.7299V37.3221H79.3139V33.0971ZM80.0819 33.0971H80.4819V37.3221H80.0819V33.0971Z" fill="#23A3C2"/>
<path d="M75.8359 26.824H80.9059V31.894H75.8359V26.824ZM76.2579 27.247H76.6579V31.472H76.2579V27.247ZM77.0099 27.247H77.4259V31.472H77.0009V27.247H77.0099ZM77.7779 27.247H78.1939V31.472H77.7779V27.247ZM78.5459 27.247H78.9619V31.472H78.5459V27.247ZM79.3139 27.247H79.7299V31.472H79.3139V27.247ZM80.0819 27.247H80.4819V31.472H80.0819V27.247ZM81.6839 32.674H86.7539V37.744H81.6839V32.674ZM82.1069 33.097H82.5069V37.322H82.1069V33.097ZM82.8589 33.097H83.2749V37.322H82.8589V33.097ZM83.6269 33.097H84.0429V37.322H83.6269V33.097ZM84.3949 33.097H84.8109V37.322H84.3949V33.097ZM85.1629 33.097H85.5789V37.322H85.1629V33.097ZM85.9309 33.097H86.3309V37.322H85.9309V33.097Z" fill="#34BBDE"/>
<path d="M81.6855 26.824H86.7555V31.894H81.6855V26.824ZM82.1085 27.247H82.5085V31.472H82.1085V27.247ZM82.8605 27.247H83.2766V31.472H82.8605V27.247ZM83.6285 27.247H84.0445V31.472H83.6285V27.247ZM84.3965 27.247H84.8125V31.472H84.3965V27.247ZM85.1645 27.247H85.5805V31.472H85.1645V27.247ZM85.9325 27.247H86.3326V31.472H85.9325V27.247Z" fill="#23A3C2"/>
<path d="M81.6855 20.9751H86.7555V26.0451H81.6855V20.9751ZM82.1086 21.3971H82.5086V25.6221H82.1086V21.3971ZM82.8605 21.3971H83.2766V25.6221H82.8605V21.3971ZM83.6285 21.3971H84.0445V25.6221H83.6285V21.3971ZM84.3966 21.3971H84.8125V25.6221H84.3966V21.3971ZM85.1646 21.3971H85.5806V25.6221H85.1646V21.3971ZM85.9325 21.3971H86.3326V25.6221H85.9325V21.3971Z" fill="#34BBDE"/>
<path d="M87.5332 32.6741H92.6032V37.7441H87.5332V32.6741ZM87.9552 33.0971H88.3552V37.3221H87.9552V33.0971ZM88.7072 33.0971H89.1232V37.3221H88.7072V33.0971ZM89.4752 33.0971H89.8912V37.3221H89.4752V33.0971ZM90.2432 33.0971H90.6592V37.3221H90.2432V33.0971ZM91.0112 33.0971H91.4272V37.3221H91.0112V33.0971ZM91.7792 33.0971H92.1792V37.3221H91.7792V33.0971Z" fill="#23A3C2"/>
<path d="M74.7374 45.963C74.985 45.96 75.2289 46.0227 75.4444 46.1447C75.6598 46.2668 75.839 46.4437 75.9637 46.6576C76.0885 46.8715 76.1542 47.1146 76.1544 47.3622C76.1545 47.6098 76.0889 47.853 75.9644 48.067C75.8089 48.3316 75.5708 48.5377 75.2867 48.6538C75.0026 48.7698 74.6882 48.7892 74.3919 48.7091C74.0957 48.629 73.834 48.4538 73.647 48.2104C73.4601 47.967 73.3584 47.6689 73.3574 47.362C73.3579 46.9945 73.5029 46.6419 73.7611 46.3803C74.0193 46.1188 74.3699 45.9692 74.7374 45.964" fill="#D3ECEC"/>
<path d="M74.738 46.36C74.8619 46.36 74.9846 46.3831 75.1 46.428C75.0234 46.4737 74.9638 46.5432 74.9303 46.6259C74.8967 46.7085 74.8911 46.7999 74.9141 46.8861C74.9372 46.9722 74.9878 47.0486 75.0581 47.1034C75.1285 47.1583 75.2148 47.1886 75.304 47.19C75.3775 47.1899 75.4495 47.1701 75.5127 47.1326C75.5758 47.0951 75.6278 47.0414 75.663 46.977C75.7467 47.1755 75.7639 47.3958 75.7122 47.6049C75.6606 47.814 75.5427 48.0009 75.3763 48.1377C75.2099 48.2745 75.0037 48.3538 74.7885 48.364C74.5733 48.3741 74.3606 48.3145 74.182 48.194C74.002 48.0754 73.8652 47.9018 73.7919 47.699C73.7186 47.4963 73.7127 47.2753 73.7752 47.069C73.8378 46.8627 73.9653 46.6821 74.1388 46.5541C74.3123 46.4262 74.5225 46.3577 74.738 46.359V46.36ZM50 43.065H115.06C113.644 42.705 110.578 42.22 111.084 40.365C108.508 43.345 102.296 42.455 100.728 40.987C98.982 43.519 88.818 42.557 88.11 40.584C85.92 43.154 79.14 43.154 76.95 40.584C76.24 42.557 66.077 43.519 64.33 40.987C62.762 42.457 56.55 43.347 53.975 40.367C54.48 42.223 51.415 42.709 49.998 43.067" fill="#364548"/>
<path d="M78.4559 56.0421C74.9919 54.3981 73.0909 52.1641 72.0339 49.7251C70.7469 50.0921 69.2009 50.3271 67.4039 50.4281L65.2679 50.4851C64.4059 50.4851 63.4979 50.4591 62.5449 50.4091C65.7209 53.5841 69.6289 56.0291 76.8649 56.0721C77.3989 56.0721 77.9289 56.0621 78.4569 56.0421" fill="#BDD9D7"/>
<path d="M73.3203 51.9751C72.8403 51.3251 72.3763 50.5071 72.0343 49.7251C70.7473 50.0931 69.2003 50.3271 67.4043 50.4281C68.6393 51.0981 70.4043 51.7181 73.3213 51.9761" fill="#D3ECEC"/>
</svg>
